{"glyphs":{"0":{"ha":778,"x_min":50,"x_max":726,"o":"m 454 1023 q 648 921 570 1023 q 726 625 726 820 q 663 268 726 425 q 509 43 600 111 q 313 -25 417 -25 q 179 16 238 -25 q 85 137 121 56 q 50 349 50 218 q 113 735 50 567 q 260 954 169 884 q 454 1023 351 1023 m 436 846 q 359 812 395 846 q 268 626 308 760 q 228 348 228 492 q 256 186 228 229 q 332 144 283 144 q 423 188 376 144 q 509 361 470 232 q 548 645 548 491 q 517 800 548 753 q 436 846 486 846 z "},"1":{"ha":778,"x_min":220,"x_max":574,"o":"m 279 998 l 574 998 l 440 0 l 257 0 l 368 823 l 220 823 l 279 998 z "},"2":{"ha":778,"x_min":20,"x_max":699,"o":"m 286 692 l 104 692 q 149 869 109 793 q 258 984 190 945 q 412 1023 326 1023 q 618 942 536 1023 q 699 743 699 862 q 635 537 699 648 q 323 170 572 426 l 659 170 l 636 0 l 20 0 l 37 131 q 370 480 294 392 q 498 657 473 600 q 517 743 517 701 q 487 820 517 789 q 411 851 456 851 q 332 815 363 851 q 286 692 300 780 z "},"3":{"ha":778,"x_min":39,"x_max":701,"o":"m 321 757 l 149 757 q 245 951 164 879 q 442 1023 326 1023 q 573 990 515 1023 q 666 897 631 957 q 701 772 701 836 q 663 645 701 707 q 547 536 625 583 q 682 305 682 453 q 582 72 682 169 q 339 -25 482 -25 q 124 65 209 -25 q 39 304 39 155 l 215 304 q 251 194 222 229 q 354 147 290 147 q 460 197 421 147 q 500 317 500 248 q 478 390 500 356 q 422 443 457 425 q 315 465 387 460 l 338 621 q 469 660 424 621 q 514 758 514 699 q 489 825 514 799 q 425 850 463 850 q 357 826 385 850 q 321 757 329 802 z "},"4":{"ha":778,"x_min":5,"x_max":716,"o":"m 539 1023 l 705 1023 l 618 354 l 716 354 l 694 192 l 596 192 l 570 0 l 400 0 l 425 192 l 5 192 l 27 354 l 539 1023 m 488 706 l 224 354 l 445 354 l 488 706 z "},"5":{"ha":778,"x_min":22,"x_max":752,"o":"m 275 998 l 752 998 l 729 827 l 407 827 l 350 633 q 441 654 393 654 q 623 580 554 654 q 691 371 691 506 q 591 84 691 193 q 342 -25 491 -25 q 155 28 237 -25 q 22 186 73 81 l 186 260 q 267 172 229 196 q 351 148 305 148 q 460 200 416 148 q 503 338 503 252 q 470 441 503 402 q 390 481 437 481 q 288 421 326 481 l 121 467 l 275 998 z "},"6":{"ha":778,"x_min":50,"x_max":703,"o":"m 458 1023 l 601 926 l 361 591 q 426 601 397 601 q 622 516 541 601 q 703 306 703 431 q 608 70 703 164 q 363 -25 512 -25 q 139 65 229 -25 q 50 285 50 155 q 63 386 50 337 q 119 520 83 456 q 249 729 182 635 l 458 1023 m 379 441 q 270 397 315 441 q 224 289 224 352 q 266 189 224 230 q 369 148 308 148 q 477 192 433 148 q 521 302 521 237 q 480 401 521 361 q 379 441 440 441 z "},"7":{"ha":778,"x_min":116,"x_max":783,"o":"m 161 998 l 783 998 l 772 876 l 269 -25 l 116 59 l 549 825 l 139 825 l 161 998 z "},"8":{"ha":778,"x_min":28,"x_max":718,"o":"m 535 537 q 652 447 610 509 q 694 301 694 386 q 650 133 694 208 q 525 17 606 59 q 340 -25 444 -25 q 116 59 205 -25 q 28 261 28 143 q 55 385 28 323 q 126 487 82 446 q 245 555 171 528 q 172 621 197 584 q 133 751 133 681 q 172 885 133 821 q 282 986 210 949 q 437 1023 353 1023 q 639 949 560 1023 q 718 775 718 876 q 672 638 718 701 q 535 537 627 576 m 433 848 q 349 815 382 848 q 315 734 315 781 q 341 661 315 690 q 412 633 368 633 q 495 666 461 633 q 529 747 529 699 q 503 821 529 794 q 433 848 477 848 m 377 460 q 261 409 309 460 q 214 283 214 359 q 254 185 214 225 q 354 146 294 146 q 468 194 422 146 q 514 311 514 241 q 473 417 514 374 q 377 460 433 460 z "},"9":{"ha":778,"x_min":82,"x_max":736,"o":"m 328 -25 l 184 71 l 425 406 q 359 397 389 397 q 163 481 245 397 q 82 692 82 566 q 178 928 82 833 q 422 1023 273 1023 q 646 933 557 1023 q 736 713 736 843 q 722 612 736 661 q 667 477 702 541 q 536 268 604 362 l 328 -25 m 406 556 q 515 601 470 556 q 561 708 561 646 q 519 808 561 768 q 416 849 477 849 q 308 805 352 849 q 264 695 264 760 q 305 596 264 636 q 406 556 345 556 z "}," ":{"ha":389,"x_min":0,"x_max":0,"o":""},"!":{"ha":389,"x_min":31,"x_max":363,"o":"m 176 1023 l 363 1023 l 260 294 l 74 294 l 176 1023 m 145 209 q 225 176 192 209 q 259 95 259 142 q 225 15 259 48 q 145 -19 192 -19 q 64 15 98 -19 q 31 95 31 48 q 64 176 31 142 q 145 209 98 209 z "},"\"":{"ha":500,"x_min":57,"x_max":517,"o":"m 479 681 l 373 681 l 336 1023 l 517 1023 l 479 681 m 200 681 l 94 681 l 57 1023 l 238 1023 l 200 681 z "},"#":{"ha":833,"x_min":41,"x_max":791,"o":"m 753 460 l 753 325 l 596 325 l 548 0 l 412 0 l 459 325 l 330 325 l 282 0 l 146 0 l 194 325 l 41 325 l 41 460 l 215 460 l 235 587 l 84 587 l 84 722 l 254 722 l 298 1023 l 431 1023 l 389 722 l 518 722 l 562 1023 l 699 1023 l 654 722 l 791 722 l 791 587 l 635 587 l 617 460 l 753 460 m 499 587 l 368 587 l 350 460 l 478 460 l 499 587 z "},"$":{"ha":778,"x_min":-10,"x_max":726,"o":"m 420 1090 l 538 1090 l 526 1009 q 632 962 587 993 q 726 871 677 932 l 595 770 q 509 842 548 823 q 431 862 471 862 q 343 830 380 862 q 307 759 307 799 q 314 722 307 738 q 345 684 324 702 q 426 631 354 676 q 568 534 531 566 q 662 420 631 480 q 692 289 692 360 q 653 138 692 209 q 548 26 614 67 q 382 -23 483 -14 l 357 -201 l 239 -201 l 263 -23 q 105 44 167 -5 q -10 195 43 93 l 153 277 q 350 134 226 134 q 467 176 420 134 q 513 277 513 218 q 481 365 513 325 q 336 471 450 404 q 170 608 213 545 q 127 747 127 671 q 200 928 127 844 q 410 1019 273 1011 l 420 1090 z "},"%":{"ha":1194,"x_min":44,"x_max":1130,"o":"m 994 1042 l 1130 1042 l 181 -68 l 44 -68 l 856 885 q 763 871 809 876 q 670 867 716 867 q 532 875 606 867 q 541 810 541 838 q 505 680 541 743 q 409 582 469 616 q 276 548 349 548 q 124 606 183 548 q 65 753 65 664 q 165 958 65 875 q 321 1023 241 1023 q 436 1006 351 1023 q 688 978 586 978 q 844 994 768 978 q 994 1042 921 1010 m 319 903 q 225 863 264 903 q 187 764 187 823 q 215 693 187 722 q 286 664 243 664 q 377 704 338 664 q 416 802 416 745 q 389 875 416 847 q 319 903 362 903 m 914 448 q 1062 388 1003 448 q 1120 238 1120 329 q 1085 107 1120 170 q 989 9 1049 44 q 857 -25 928 -25 q 701 37 756 -25 q 646 184 646 100 q 683 312 646 249 q 782 412 720 376 q 914 448 845 448 m 899 331 q 806 292 844 331 q 768 195 768 252 q 797 119 768 148 q 869 91 825 91 q 958 133 920 91 q 996 231 996 174 q 969 304 996 277 q 899 331 943 331 z "},"&":{"ha":945,"x_min":44,"x_max":888,"o":"m 768 399 l 867 264 q 789 203 830 232 l 749 174 l 791 122 q 888 0 857 42 l 666 0 q 599 75 630 37 q 446 1 527 27 q 294 -25 366 -25 q 119 47 194 -25 q 44 216 44 119 q 95 370 44 299 q 288 523 146 441 q 239 633 251 593 q 227 714 227 673 q 304 886 227 814 q 494 957 381 957 q 651 896 589 957 q 713 745 713 836 q 669 603 713 671 q 528 467 626 534 q 643 309 594 368 q 768 399 715 357 m 437 608 q 540 736 540 678 q 523 771 540 756 q 479 785 506 785 q 425 764 447 785 q 402 715 402 743 q 437 608 402 668 m 377 373 q 271 305 324 345 q 231 260 244 286 q 220 222 220 241 q 244 166 220 188 q 307 144 268 144 q 389 161 340 144 q 493 212 400 166 q 455 264 480 228 l 377 373 z "},"'":{"ha":306,"x_min":99,"x_max":279,"o":"m 242 681 l 136 681 l 99 1023 l 279 1023 l 242 681 z "},"(":{"ha":528,"x_min":113,"x_max":652,"o":"m 416 1042 l 652 1042 q 306 194 306 710 q 339 -44 306 61 q 463 -289 373 -150 l 229 -289 q 139 -56 166 -165 q 113 176 113 53 q 147 494 113 334 q 245 781 182 653 q 416 1042 308 909 z "},")":{"ha":528,"x_min":-152,"x_max":387,"o":"m 83 -289 l -152 -289 q 194 559 194 43 q 160 797 194 692 q 37 1042 127 903 l 271 1042 q 360 809 334 918 q 387 576 387 700 q 353 259 387 418 q 255 -28 318 100 q 83 -289 192 -156 z "},"*":{"ha":611,"x_min":73,"x_max":613,"o":"m 262 1023 l 434 1023 l 380 819 l 534 963 l 613 814 l 406 761 l 613 702 l 524 555 l 376 702 l 428 498 l 262 498 l 314 702 l 163 555 l 73 702 l 280 761 l 73 819 l 163 970 l 314 819 l 262 1023 z "},"+":{"ha":833,"x_min":78,"x_max":755,"o":"m 332 583 l 332 838 l 502 838 l 502 583 l 755 583 l 755 414 l 502 414 l 502 160 l 332 160 l 332 414 l 78 414 l 78 583 l 332 583 z "},",":{"ha":389,"x_min":-35,"x_max":240,"o":"m 100 181 l 240 98 l 53 -146 l -35 -94 l 100 181 z "},"-":{"ha":583,"x_min":84,"x_max":471,"o":"m 106 450 l 471 450 l 450 285 l 84 285 l 106 450 z "},"­":{"ha":583,"x_min":84,"x_max":471,"o":"m 106 450 l 471 450 l 450 285 l 84 285 l 106 450 z "},".":{"ha":389,"x_min":25,"x_max":253,"o":"m 139 209 q 219 176 186 209 q 253 95 253 142 q 219 15 253 48 q 139 -19 186 -19 q 58 15 92 -19 q 25 95 25 48 q 58 176 25 142 q 139 209 92 209 z "},"/":{"ha":639,"x_min":30,"x_max":610,"o":"m 30 -178 l 478 1026 l 610 1026 l 161 -178 l 30 -178 z "},":":{"ha":389,"x_min":25,"x_max":330,"o":"m 216 757 q 297 724 263 757 q 330 644 330 690 q 297 564 330 597 q 216 530 263 530 q 136 564 169 530 q 102 644 102 597 q 135 724 102 691 q 216 757 168 757 m 139 209 q 219 176 186 209 q 253 95 253 142 q 219 15 253 48 q 139 -19 186 -19 q 58 15 92 -19 q 25 95 25 48 q 58 176 25 142 q 139 209 92 209 z "},";":{"ha":389,"x_min":-35,"x_max":331,"o":"m 217 757 q 297 724 264 757 q 331 644 331 690 q 297 564 331 597 q 217 530 264 530 q 136 564 170 530 q 103 644 103 597 q 136 724 103 691 q 217 757 169 757 m 100 181 l 240 98 l 53 -146 l -35 -94 l 100 181 z "},";":{"ha":389,"x_min":-35,"x_max":331,"o":"m 217 757 q 297 724 264 757 q 331 644 331 690 q 297 564 331 597 q 217 530 264 530 q 136 564 170 530 q 103 644 103 597 q 136 724 103 691 q 217 757 169 757 m 100 181 l 240 98 l 53 -146 l -35 -94 l 100 181 z "},"<":{"ha":833,"x_min":78,"x_max":755,"o":"m 755 248 l 755 79 l 78 423 l 78 574 l 755 918 l 755 749 l 273 498 l 755 248 z "},"=":{"ha":833,"x_min":78,"x_max":755,"o":"m 78 728 l 755 728 l 755 559 l 78 559 l 78 728 m 78 438 l 755 438 l 755 269 l 78 269 l 78 438 z "},">":{"ha":833,"x_min":78,"x_max":755,"o":"m 78 749 l 78 918 l 755 574 l 755 423 l 78 79 l 78 248 l 562 498 l 78 749 z "},"?":{"ha":778,"x_min":58,"x_max":717,"o":"m 235 745 l 58 745 q 115 898 68 830 q 242 1004 163 966 q 420 1042 321 1042 q 634 963 551 1042 q 717 776 717 885 q 553 517 717 637 q 459 441 478 463 q 428 385 441 420 q 410 296 414 349 l 235 296 q 276 491 239 418 q 414 631 314 563 q 516 714 495 685 q 538 774 538 744 q 501 844 538 814 q 403 873 464 873 q 235 745 268 873 m 288 209 q 368 176 335 209 q 401 95 401 142 q 368 15 401 48 q 288 -19 335 -19 q 208 15 241 -19 q 174 95 174 48 q 208 176 174 142 q 288 209 241 209 z "},"@":{"ha":1027,"x_min":22,"x_max":1038,"o":"m 849 204 l 979 204 q 847 71 905 113 q 714 5 790 29 q 556 -18 638 -18 q 287 53 411 -18 q 92 245 163 123 q 22 511 22 368 q 93 781 22 656 q 286 975 163 906 q 555 1044 408 1044 q 898 913 758 1044 q 1038 609 1038 783 q 980 390 1038 481 q 820 246 921 298 q 690 207 743 207 q 627 228 651 207 q 608 279 609 243 q 463 214 548 214 q 302 282 366 214 q 238 465 238 351 q 317 689 238 590 q 526 787 395 787 q 621 765 579 787 q 693 699 663 743 l 707 770 l 840 770 l 773 374 q 766 327 766 332 q 773 313 766 319 q 790 307 781 307 q 854 339 814 307 q 920 434 895 372 q 945 570 945 496 q 897 764 945 680 q 759 897 849 848 q 552 945 669 945 q 332 890 429 945 q 178 735 234 836 q 121 515 121 635 q 178 293 121 393 q 338 138 235 193 q 567 82 440 82 q 708 110 642 82 q 849 204 774 138 m 517 357 q 615 405 576 357 q 654 515 654 454 q 622 601 654 568 q 543 635 591 635 q 446 589 488 635 q 405 478 405 543 q 436 390 405 423 q 517 357 467 357 z "},"A":{"ha":1027,"x_min":-16,"x_max":928,"o":"m 522 998 l 680 998 l 928 0 l 747 0 l 694 212 l 300 212 l 185 0 l -16 0 l 522 998 m 648 389 l 568 716 l 393 389 l 648 389 z "},"B":{"ha":806,"x_min":47,"x_max":720,"o":"m 180 998 l 336 998 q 548 967 479 998 q 660 872 617 937 q 702 733 702 808 q 672 615 702 671 q 586 523 642 560 q 720 276 720 430 q 677 130 720 196 q 572 32 635 63 q 392 0 510 0 l 47 0 l 180 998 m 315 602 l 349 602 q 452 613 425 602 q 498 654 479 624 q 517 722 517 685 q 500 782 517 757 q 456 816 484 807 q 345 825 429 825 l 315 602 m 260 177 l 372 173 q 496 206 457 173 q 534 297 534 239 q 510 372 534 339 q 446 419 486 406 q 293 433 406 433 l 260 177 z "},"C":{"ha":1083,"x_min":59,"x_max":1034,"o":"m 1034 869 l 897 743 q 789 821 853 793 q 651 848 726 848 q 451 795 547 848 q 302 653 355 741 q 249 465 249 565 q 342 240 249 330 q 583 150 436 150 q 854 241 739 150 l 964 95 q 570 -25 794 -25 q 303 35 413 -25 q 126 210 193 94 q 59 460 59 326 q 138 738 59 605 q 352 946 217 870 q 646 1023 487 1023 q 1034 869 870 1023 z "},"D":{"ha":972,"x_min":47,"x_max":917,"o":"m 181 998 l 340 998 q 672 945 563 998 q 849 780 781 892 q 917 520 917 667 q 845 242 917 369 q 663 58 772 116 q 357 0 553 0 l 47 0 l 181 998 m 346 822 l 260 174 l 321 174 q 528 198 464 174 q 671 314 617 232 q 726 517 726 396 q 687 683 726 616 q 579 786 649 749 q 393 822 509 822 l 346 822 z "},"E":{"ha":722,"x_min":35,"x_max":708,"o":"m 166 998 l 708 998 l 685 821 l 332 821 l 304 614 l 658 614 l 635 439 l 281 439 l 246 174 l 602 174 l 578 0 l 35 0 l 166 998 z "},"F":{"ha":667,"x_min":37,"x_max":659,"o":"m 168 998 l 659 998 l 637 821 l 334 821 l 305 614 l 609 614 l 587 439 l 282 439 l 225 0 l 37 0 l 168 998 z "},"G":{"ha":1166,"x_min":59,"x_max":1075,"o":"m 1045 812 l 889 711 q 758 818 821 788 q 615 848 695 848 q 334 709 442 848 q 248 464 248 599 q 336 241 248 331 q 554 151 425 151 q 729 197 650 151 q 859 336 808 243 l 547 336 l 570 513 l 1075 513 q 920 120 1064 266 q 553 -25 776 -25 q 171 143 310 -25 q 59 465 59 278 q 223 857 59 692 q 613 1023 387 1023 q 777 998 697 1023 q 922 930 857 974 q 1045 812 986 886 z "},"H":{"ha":945,"x_min":46,"x_max":899,"o":"m 180 998 l 368 998 l 318 621 l 659 621 l 710 998 l 899 998 l 763 0 l 576 0 l 637 453 l 294 453 l 233 0 l 46 0 l 180 998 z "},"I":{"ha":389,"x_min":39,"x_max":357,"o":"m 174 998 l 357 998 l 219 0 l 39 0 l 174 998 z "},"J":{"ha":667,"x_min":-32,"x_max":623,"o":"m 436 998 l 623 998 l 530 294 q 482 96 511 154 q 399 6 454 38 q 273 -25 345 -25 q 101 28 182 -25 q -32 178 19 81 l 117 269 q 195 180 156 208 q 263 153 233 153 q 313 177 295 153 q 339 283 330 201 l 436 998 z "},"K":{"ha":861,"x_min":50,"x_max":878,"o":"m 183 998 l 371 998 l 325 659 l 646 998 l 878 998 l 444 541 l 787 0 l 578 0 l 296 444 l 236 0 l 50 0 l 183 998 z "},"L":{"ha":611,"x_min":49,"x_max":569,"o":"m 184 998 l 372 998 l 259 172 l 569 172 l 547 0 l 49 0 l 184 998 z "},"M":{"ha":1250,"x_min":1,"x_max":1113,"o":"m 255 998 l 425 998 l 593 302 l 938 998 l 1099 998 l 1113 0 l 938 0 l 930 597 l 634 0 l 491 0 l 339 627 l 180 0 l 1 0 l 255 998 z "},"N":{"ha":1027,"x_min":48,"x_max":980,"o":"m 180 998 l 345 998 l 706 319 l 798 998 l 980 998 l 846 0 l 686 0 l 319 686 l 228 0 l 48 0 l 180 998 z "},"O":{"ha":1166,"x_min":56,"x_max":1114,"o":"m 641 1023 q 980 890 846 1023 q 1114 555 1114 758 q 1035 261 1114 399 q 824 49 956 123 q 523 -25 693 -25 q 183 101 310 -25 q 56 433 56 227 q 208 836 56 667 q 641 1023 377 1023 m 634 846 q 438 794 527 846 q 296 645 350 742 q 241 444 241 547 q 317 235 241 321 q 533 150 392 150 q 811 265 696 150 q 925 545 925 380 q 845 764 925 682 q 634 846 764 846 z "},"P":{"ha":778,"x_min":48,"x_max":749,"o":"m 182 998 l 358 998 q 584 970 518 998 q 707 873 665 935 q 749 729 749 812 q 700 565 749 638 q 568 457 651 491 q 293 421 486 424 l 236 0 l 48 0 l 182 998 m 315 597 q 515 629 469 598 q 562 722 562 661 q 544 781 562 757 q 490 814 526 804 q 347 823 454 823 l 315 597 z "},"Q":{"ha":1166,"x_min":56,"x_max":1130,"o":"m 955 152 l 1130 -47 l 892 -47 l 813 43 q 524 -25 680 -25 q 183 101 310 -25 q 56 433 56 227 q 133 732 56 595 q 343 945 211 868 q 636 1023 476 1023 q 980 890 846 1023 q 1114 555 1114 758 q 1071 337 1114 445 q 955 152 1029 230 m 833 290 q 925 545 925 399 q 845 764 925 682 q 631 846 764 846 q 438 793 526 846 q 296 644 350 741 q 241 444 241 547 q 317 235 241 320 q 532 150 393 150 q 690 181 618 150 l 541 349 l 781 349 l 833 290 z "},"R":{"ha":806,"x_min":58,"x_max":758,"o":"m 191 998 l 365 998 q 592 970 526 998 q 716 874 674 935 q 758 728 758 812 q 696 550 758 625 q 509 447 634 476 l 727 0 l 533 0 l 320 435 l 302 435 l 245 0 l 58 0 l 191 998 m 324 599 q 525 630 478 600 q 571 723 571 661 q 552 782 571 758 q 498 815 534 806 q 355 825 463 825 l 324 599 z "},"S":{"ha":722,"x_min":-10,"x_max":690,"o":"m 690 859 l 553 738 q 397 846 469 846 q 337 825 361 846 q 313 774 313 804 q 335 712 313 746 q 467 562 357 678 q 543 475 525 500 q 607 363 587 415 q 626 258 626 311 q 541 56 626 138 q 321 -25 455 -25 q -10 168 118 -25 l 134 284 q 321 152 220 152 q 402 183 370 152 q 435 258 435 214 q 415 329 435 293 q 301 465 395 365 q 170 623 201 570 q 128 766 128 696 q 189 931 128 858 q 393 1023 264 1023 q 690 859 570 1023 z "},"T":{"ha":583,"x_min":31,"x_max":663,"o":"m 54 998 l 663 998 l 641 820 l 429 820 l 321 0 l 135 0 l 243 820 l 31 820 l 54 998 z "},"U":{"ha":889,"x_min":85,"x_max":854,"o":"m 176 998 l 363 998 l 280 382 q 269 268 269 301 q 304 180 269 212 q 406 149 339 149 q 499 172 459 149 q 547 231 529 190 q 582 394 565 272 l 665 998 l 854 998 l 772 402 q 707 138 747 218 q 589 17 666 58 q 401 -25 512 -25 q 169 54 252 -25 q 85 271 85 134 q 102 448 85 331 l 176 998 z "},"V":{"ha":972,"x_min":71,"x_max":1020,"o":"m 71 998 l 254 998 l 433 277 l 819 998 l 1020 998 l 486 0 l 319 0 l 71 998 z "},"W":{"ha":1250,"x_min":90,"x_max":1286,"o":"m 90 998 l 260 998 l 317 351 l 623 998 l 764 998 l 883 368 l 1105 998 l 1286 998 l 933 0 l 780 0 l 654 661 l 342 0 l 178 0 l 90 998 z "},"X":{"ha":945,"x_min":11,"x_max":937,"o":"m 170 998 l 362 998 l 503 689 l 720 998 l 937 998 l 586 504 l 815 0 l 621 0 l 469 338 l 229 0 l 11 0 l 385 524 l 170 998 z "},"Y":{"ha":861,"x_min":45,"x_max":888,"o":"m 45 998 l 234 998 l 390 598 l 673 998 l 888 998 l 463 399 l 409 0 l 222 0 l 277 399 l 45 998 z "},"Z":{"ha":694,"x_min":12,"x_max":688,"o":"m 124 998 l 688 998 l 292 174 l 606 174 l 583 0 l 12 0 l 409 822 l 100 822 l 124 998 z "},"[":{"ha":444,"x_min":34,"x_max":511,"o":"m 214 1023 l 511 1023 l 487 850 l 378 850 l 245 -98 l 355 -98 l 332 -270 l 34 -270 l 214 1023 z "},"\\":{"ha":889,"x_min":155,"x_max":734,"o":"m 734 -178 l 603 -178 l 155 1026 l 286 1026 l 734 -178 z "},"]":{"ha":444,"x_min":-85,"x_max":391,"o":"m 211 -270 l -85 -270 l -62 -97 l 47 -97 l 180 850 l 71 850 l 94 1023 l 391 1023 l 211 -270 z "},"^":{"ha":833,"x_min":74,"x_max":759,"o":"m 337 998 l 494 998 l 759 248 l 595 248 l 417 755 l 239 248 l 74 248 l 337 998 z "},"_":{"ha":694,"x_min":-8,"x_max":703,"o":"m -8 -104 l 703 -104 l 703 -174 l -8 -174 l -8 -104 z "},"`":{"ha":583,"x_min":146,"x_max":488,"o":"m 146 1137 l 365 1137 l 488 871 l 356 871 l 146 1137 z "},"a":{"ha":917,"x_min":39,"x_max":848,"o":"m 667 738 l 848 738 l 752 0 l 573 0 l 583 79 q 473 3 524 24 q 358 -19 422 -19 q 125 89 212 -19 q 39 340 39 197 q 94 548 39 449 q 241 702 149 646 q 435 757 334 757 q 560 726 503 757 q 654 635 617 694 l 667 738 m 400 142 q 516 172 467 142 q 599 266 566 202 q 633 396 633 330 q 582 537 633 484 q 449 590 532 590 q 286 519 353 590 q 218 335 218 448 q 269 195 218 248 q 400 142 320 142 z "},"b":{"ha":917,"x_min":29,"x_max":839,"o":"m 210 0 l 29 0 l 163 1023 l 342 1023 l 294 659 q 405 735 353 714 q 519 757 456 757 q 752 649 666 757 q 839 399 839 541 q 784 191 839 290 q 636 36 729 92 q 444 -19 544 -19 q 318 12 375 -19 q 224 103 260 43 l 210 0 m 477 596 q 361 566 411 596 q 278 472 312 536 q 245 342 245 408 q 295 201 245 254 q 429 148 346 148 q 592 219 525 148 q 659 403 659 290 q 608 543 659 490 q 477 596 557 596 z "},"c":{"ha":889,"x_min":41,"x_max":805,"o":"m 805 585 l 652 502 q 477 585 587 585 q 346 553 403 585 q 255 462 289 522 q 221 336 221 402 q 275 199 221 250 q 422 147 328 147 q 621 235 551 147 l 763 134 q 613 22 703 62 q 412 -19 523 -19 q 141 76 240 -19 q 41 327 41 171 q 164 631 41 505 q 480 757 287 757 q 805 585 698 757 z "},"d":{"ha":917,"x_min":39,"x_max":886,"o":"m 705 1023 l 886 1023 l 752 0 l 573 0 l 583 79 q 473 3 524 24 q 358 -19 422 -19 q 125 89 212 -19 q 39 340 39 197 q 94 548 39 449 q 241 702 149 646 q 435 757 334 757 q 560 726 503 757 q 654 635 617 694 l 705 1023 m 400 142 q 516 172 467 142 q 599 266 566 202 q 633 396 633 330 q 582 537 633 484 q 449 590 532 590 q 286 519 353 590 q 218 335 218 448 q 269 195 218 248 q 400 142 320 142 z "},"e":{"ha":889,"x_min":41,"x_max":817,"o":"m 584 216 l 743 134 q 601 22 690 63 q 405 -19 513 -19 q 139 76 236 -19 q 41 328 41 171 q 163 632 41 508 q 457 757 285 757 q 642 711 561 757 q 770 579 723 666 q 817 391 817 492 q 810 316 817 359 l 221 316 q 272 194 224 239 q 404 149 319 149 q 584 216 505 149 m 630 449 q 562 552 610 517 q 448 587 515 587 q 328 551 381 587 q 246 449 274 515 l 630 449 z "},"f":{"ha":389,"x_min":16,"x_max":463,"o":"m 38 738 l 117 738 q 159 936 136 882 q 222 1015 182 989 q 321 1042 262 1042 q 463 998 398 1042 l 443 850 q 368 883 406 883 q 326 862 339 883 q 298 738 313 842 l 410 738 l 391 582 l 278 582 l 197 0 l 16 0 l 96 582 l 18 582 l 38 738 z "},"g":{"ha":917,"x_min":21,"x_max":848,"o":"m 667 738 l 848 738 l 768 147 q 719 -85 744 -28 q 587 -231 680 -173 q 353 -289 494 -289 q 150 -244 237 -289 q 21 -127 64 -199 l 176 -46 q 358 -120 246 -120 q 471 -96 423 -120 q 545 -32 518 -73 q 582 87 571 8 q 359 0 484 0 q 198 44 272 0 q 83 167 125 87 q 41 343 41 246 q 96 548 41 452 q 245 701 151 644 q 443 757 340 757 q 556 732 505 757 q 656 650 607 708 l 667 738 m 452 586 q 287 517 354 586 q 219 347 219 448 q 269 215 219 264 q 404 165 319 165 q 520 196 467 165 q 605 283 574 227 q 636 406 636 340 q 585 535 636 484 q 452 586 533 586 z "},"h":{"ha":833,"x_min":31,"x_max":734,"o":"m 170 1023 l 349 1023 l 300 663 q 516 757 404 757 q 673 696 612 757 q 734 543 734 635 q 722 414 734 500 l 667 0 l 488 0 l 541 404 q 549 497 549 466 q 524 566 549 542 q 452 590 498 590 q 361 558 406 590 q 291 471 315 527 q 246 261 267 415 l 212 0 l 31 0 l 170 1023 z "},"i":{"ha":333,"x_min":7,"x_max":332,"o":"m 220 1040 q 299 1007 266 1040 q 332 928 332 974 q 299 849 332 882 q 220 816 266 816 q 141 849 174 816 q 108 928 108 882 q 141 1007 108 974 q 220 1040 174 1040 m 107 738 l 286 738 l 187 0 l 7 0 l 107 738 z "},"j":{"ha":361,"x_min":-132,"x_max":348,"o":"m 236 1040 q 315 1007 283 1040 q 348 928 348 974 q 315 849 348 882 q 236 816 283 816 q 157 849 190 816 q 124 928 124 882 q 157 1007 124 974 q 236 1040 190 1040 m 121 738 l 301 738 l 213 85 q 162 -162 188 -100 q 88 -257 136 -224 q -21 -289 41 -289 q -132 -262 -68 -289 l -111 -100 q -54 -119 -80 -119 q -8 -94 -24 -119 q 30 61 14 -56 l 121 738 z "},"k":{"ha":806,"x_min":31,"x_max":812,"o":"m 167 1023 l 345 1023 l 273 481 l 564 738 l 812 738 l 439 409 l 766 0 l 549 0 l 257 363 l 209 0 l 31 0 l 167 1023 z "},"l":{"ha":333,"x_min":9,"x_max":326,"o":"m 145 1023 l 326 1023 l 190 0 l 9 0 l 145 1023 z "},"m":{"ha":1305,"x_min":31,"x_max":1203,"o":"m 127 738 l 309 738 l 298 658 q 518 757 396 757 q 611 740 568 757 q 681 696 654 723 q 726 623 707 670 q 846 723 777 688 q 988 757 914 757 q 1142 695 1081 757 q 1203 534 1203 633 q 1196 441 1203 496 l 1138 0 l 958 0 l 1008 379 q 1018 481 1018 456 q 992 560 1018 533 q 918 587 966 587 q 825 554 872 587 q 753 467 778 522 q 711 279 728 412 l 675 0 l 494 0 l 547 401 q 554 485 554 450 q 526 561 554 533 q 453 589 498 589 q 364 559 410 589 q 293 477 318 529 q 253 318 267 425 l 212 0 l 31 0 l 127 738 z "},"n":{"ha":833,"x_min":31,"x_max":734,"o":"m 131 738 l 311 738 l 300 663 q 516 757 404 757 q 673 696 612 757 q 734 543 734 635 q 722 414 734 500 l 667 0 l 488 0 l 541 404 q 549 497 549 466 q 524 566 549 542 q 452 590 498 590 q 361 558 406 590 q 291 471 315 527 q 246 261 267 415 l 212 0 l 31 0 l 131 738 z "},"o":{"ha":889,"x_min":41,"x_max":812,"o":"m 464 757 q 643 711 562 757 q 768 583 723 666 q 812 395 812 499 q 690 102 812 223 q 386 -19 567 -19 q 135 76 229 -19 q 41 326 41 172 q 168 634 41 511 q 464 757 295 757 m 451 585 q 280 506 340 585 q 221 333 221 426 q 270 200 221 250 q 399 149 318 149 q 573 226 513 149 q 633 402 633 303 q 583 534 633 484 q 451 585 532 585 z "},"p":{"ha":917,"x_min":-6,"x_max":839,"o":"m 175 -270 l -6 -270 l 126 738 l 304 738 l 294 659 q 405 735 353 714 q 519 757 456 757 q 753 649 667 757 q 839 399 839 541 q 784 191 839 290 q 636 36 729 92 q 444 -19 544 -19 q 318 12 376 -19 q 224 103 260 43 l 175 -270 m 477 596 q 362 566 412 596 q 278 472 312 536 q 245 342 245 408 q 295 201 245 254 q 429 148 346 148 q 592 219 525 148 q 659 403 659 290 q 608 543 659 490 q 477 596 557 596 z "},"q":{"ha":917,"x_min":39,"x_max":848,"o":"m 667 738 l 848 738 l 717 -270 l 538 -270 l 583 79 q 473 3 524 24 q 358 -19 422 -19 q 125 89 212 -19 q 39 340 39 197 q 94 548 39 449 q 241 702 149 646 q 435 757 334 757 q 560 726 503 757 q 654 635 617 694 l 667 738 m 400 142 q 516 172 467 142 q 599 266 566 202 q 633 396 633 330 q 582 537 633 484 q 449 590 532 590 q 286 519 353 590 q 218 335 218 448 q 269 195 218 248 q 400 142 320 142 z "},"r":{"ha":444,"x_min":-11,"x_max":459,"o":"m 85 738 l 247 738 l 234 637 q 408 757 307 757 q 459 744 433 757 l 394 581 q 364 587 374 587 q 271 525 312 587 q 206 277 230 464 l 171 0 l -11 0 l 85 738 z "},"s":{"ha":611,"x_min":-19,"x_max":536,"o":"m 536 635 l 450 496 q 380 569 416 546 q 311 593 343 593 q 270 579 287 593 q 253 549 253 566 q 267 516 253 532 q 345 453 279 500 q 481 325 448 378 q 514 210 514 272 q 447 54 514 127 q 251 -19 379 -19 q 116 11 177 -19 q -19 120 56 41 l 93 250 q 259 150 169 150 q 316 167 295 150 q 338 208 338 184 q 321 247 338 227 q 233 319 305 267 q 117 421 149 378 q 72 547 72 481 q 142 699 72 640 q 308 757 212 757 q 435 725 375 757 q 536 635 496 693 z "},"t":{"ha":416,"x_min":21,"x_max":426,"o":"m 169 1012 l 349 1012 l 311 738 l 426 738 l 404 582 l 290 582 l 211 0 l 30 0 l 110 582 l 21 582 l 42 738 l 131 738 l 169 1012 z "},"u":{"ha":833,"x_min":76,"x_max":768,"o":"m 132 738 l 311 738 l 262 361 q 254 267 254 298 q 288 185 254 218 q 376 152 321 152 q 483 195 446 152 q 538 368 521 237 l 589 738 l 768 738 l 715 341 q 653 133 696 207 q 539 20 610 60 q 372 -19 468 -19 q 156 59 236 -19 q 76 262 76 138 q 93 457 76 338 l 132 738 z "},"v":{"ha":778,"x_min":37,"x_max":764,"o":"m 37 738 l 215 738 l 330 328 l 567 738 l 764 738 l 336 0 l 248 0 l 37 738 z "},"w":{"ha":1111,"x_min":35,"x_max":1107,"o":"m 35 738 l 210 738 l 311 342 l 526 738 l 597 738 l 701 342 l 914 738 l 1107 738 l 706 0 l 618 0 l 518 390 l 308 0 l 222 0 l 35 738 z "},"x":{"ha":778,"x_min":-20,"x_max":733,"o":"m 41 738 l 240 738 l 369 528 l 522 738 l 733 738 l 465 371 l 692 0 l 493 0 l 356 223 l 191 0 l -20 0 l 260 380 l 41 738 z "},"y":{"ha":806,"x_min":28,"x_max":800,"o":"m 31 738 l 208 738 l 352 300 l 604 738 l 800 738 l 220 -270 l 28 -270 l 238 100 l 31 738 z "},"z":{"ha":639,"x_min":-48,"x_max":644,"o":"m 59 738 l 644 738 l 266 167 l 612 167 l 589 0 l -48 0 l 328 569 l 37 569 l 59 738 z "},"{":{"ha":472,"x_min":-11,"x_max":556,"o":"m -11 264 l 12 427 q 107 453 74 430 q 164 530 141 475 q 195 672 181 571 q 220 812 209 772 q 274 921 239 883 q 378 982 309 959 q 520 998 425 998 l 556 998 l 533 835 q 433 826 456 835 q 397 797 409 817 q 374 696 389 783 q 334 505 347 538 q 284 414 314 449 q 199 345 255 379 q 288 170 288 289 q 275 -5 288 120 q 269 -84 269 -68 q 300 -134 269 -118 q 395 -144 321 -144 l 372 -306 l 337 -306 q 185 -287 233 -306 q 113 -229 138 -268 q 87 -130 87 -191 q 102 9 87 -83 q 115 140 115 93 q 81 235 115 198 q -11 264 56 260 z "},"|":{"ha":833,"x_min":363,"x_max":471,"o":"m 363 1023 l 471 1023 l 471 -270 l 363 -270 l 363 1023 z "},"}":{"ha":472,"x_min":-142,"x_max":425,"o":"m 425 427 l 402 264 q 307 238 340 261 q 250 161 273 216 q 219 20 233 121 q 195 -121 205 -81 q 140 -230 176 -191 q 35 -291 105 -268 q -106 -306 -12 -306 l -142 -306 l -119 -144 q -18 -134 -42 -144 q 17 -106 5 -125 q 40 -5 25 -92 q 80 187 68 153 q 130 278 100 243 q 216 346 159 313 q 125 521 125 403 q 139 696 125 571 q 146 776 146 759 q 113 825 146 809 q 18 835 94 835 l 41 998 l 77 998 q 229 978 181 998 q 301 921 276 959 q 326 822 326 882 q 313 682 326 774 q 300 551 300 598 q 334 457 300 494 q 425 427 358 431 z "},"~":{"ha":833,"x_min":68,"x_max":766,"o":"m 68 382 l 68 599 q 237 649 171 649 q 333 634 281 649 q 471 578 385 620 q 545 546 527 551 q 591 539 568 539 q 766 616 667 539 l 766 397 q 599 349 681 349 q 509 361 554 349 q 361 418 463 373 q 274 453 296 447 q 229 458 252 458 q 161 444 195 458 q 68 382 126 429 z "},"Ä":{"ha":1027,"x_min":-16,"x_max":928,"o":"m 522 998 l 680 998 l 928 0 l 747 0 l 694 212 l 300 212 l 185 0 l -16 0 l 522 998 m 648 389 l 568 716 l 393 389 l 648 389 m 479 1265 q 539 1241 515 1265 q 563 1184 563 1217 q 530 1104 563 1137 q 451 1071 498 1071 q 390 1094 413 1071 q 367 1156 367 1118 q 400 1232 367 1199 q 479 1265 434 1265 m 780 1265 q 839 1241 815 1265 q 863 1184 863 1217 q 831 1104 863 1137 q 751 1071 798 1071 q 690 1094 713 1071 q 667 1156 667 1118 q 701 1232 667 1199 q 780 1265 734 1265 z "},"Å":{"ha":1027,"x_min":-16,"x_max":928,"o":"m 522 998 l 680 998 l 928 0 l 747 0 l 694 212 l 300 212 l 185 0 l -16 0 l 522 998 m 648 389 l 568 716 l 393 389 l 648 389 m 652 1397 q 743 1361 707 1397 q 779 1266 779 1325 q 726 1147 779 1199 q 607 1095 674 1095 q 515 1132 551 1095 q 479 1225 479 1169 q 530 1347 479 1296 q 652 1397 581 1397 m 640 1310 q 592 1290 612 1310 q 572 1242 572 1270 q 586 1204 572 1219 q 621 1190 600 1190 q 665 1211 646 1190 q 685 1258 685 1231 q 672 1296 685 1281 q 640 1310 659 1310 z "},"Ç":{"ha":1083,"x_min":59,"x_max":1034,"o":"m 1034 869 l 897 743 q 789 821 853 793 q 651 848 726 848 q 451 795 547 848 q 302 653 355 741 q 249 465 249 565 q 342 240 249 330 q 583 150 436 150 q 854 241 739 150 l 964 95 q 570 -25 794 -25 q 303 35 413 -25 q 126 210 193 94 q 59 460 59 326 q 138 738 59 605 q 352 946 217 870 q 646 1023 487 1023 q 1034 869 870 1023 m 486 9 l 600 9 l 588 -20 q 650 -56 629 -31 q 671 -111 671 -81 q 618 -214 671 -170 q 478 -259 566 -259 q 332 -227 405 -259 l 368 -140 q 462 -156 416 -156 q 518 -140 498 -156 q 538 -102 538 -125 q 527 -77 538 -85 q 484 -69 515 -69 l 450 -71 l 486 9 z "},"É":{"ha":722,"x_min":35,"x_max":746,"o":"m 166 998 l 708 998 l 685 821 l 332 821 l 304 614 l 658 614 l 635 439 l 281 439 l 246 174 l 602 174 l 578 0 l 35 0 l 166 998 m 527 1360 l 746 1360 l 460 1095 l 328 1095 l 527 1360 z "},"Ñ":{"ha":1027,"x_min":48,"x_max":980,"o":"m 180 998 l 345 998 l 706 319 l 798 998 l 980 998 l 846 0 l 686 0 l 319 686 l 228 0 l 48 0 l 180 998 m 389 1097 l 331 1209 q 433 1261 391 1248 q 517 1275 475 1275 q 600 1261 549 1275 q 713 1238 680 1238 q 834 1273 770 1238 l 890 1168 q 795 1109 821 1119 q 713 1095 754 1095 q 612 1113 671 1095 q 552 1131 564 1128 q 515 1133 536 1133 q 389 1097 449 1133 z "},"Ö":{"ha":1166,"x_min":56,"x_max":1114,"o":"m 641 1023 q 980 890 846 1023 q 1114 555 1114 758 q 1035 261 1114 399 q 824 49 956 123 q 523 -25 693 -25 q 183 101 310 -25 q 56 433 56 227 q 208 836 56 667 q 641 1023 377 1023 m 634 846 q 438 794 527 846 q 296 645 350 742 q 241 444 241 547 q 317 235 241 321 q 533 150 392 150 q 811 265 696 150 q 925 545 925 380 q 845 764 925 682 q 634 846 764 846 m 525 1265 q 584 1241 560 1265 q 608 1184 608 1217 q 576 1104 608 1137 q 496 1071 543 1071 q 435 1094 458 1071 q 412 1156 412 1118 q 446 1232 412 1199 q 525 1265 479 1265 m 825 1265 q 885 1241 861 1265 q 909 1184 909 1217 q 876 1104 909 1137 q 797 1071 844 1071 q 736 1094 759 1071 q 713 1156 713 1118 q 746 1232 713 1199 q 825 1265 780 1265 z "},"Ü":{"ha":889,"x_min":85,"x_max":854,"o":"m 176 998 l 363 998 l 280 382 q 269 268 269 301 q 304 180 269 212 q 406 149 339 149 q 499 172 459 149 q 547 231 529 190 q 582 394 565 272 l 665 998 l 854 998 l 772 402 q 707 138 747 218 q 589 17 666 58 q 401 -25 512 -25 q 169 54 252 -25 q 85 271 85 134 q 102 448 85 331 l 176 998 m 410 1265 q 470 1241 446 1265 q 494 1184 494 1217 q 461 1104 494 1137 q 382 1071 429 1071 q 321 1094 344 1071 q 298 1156 298 1118 q 331 1232 298 1199 q 410 1265 365 1265 m 711 1265 q 770 1241 746 1265 q 794 1184 794 1217 q 762 1104 794 1137 q 682 1071 729 1071 q 621 1094 644 1071 q 598 1156 598 1118 q 632 1232 598 1199 q 711 1265 665 1265 z "},"á":{"ha":917,"x_min":39,"x_max":848,"o":"m 667 738 l 848 738 l 752 0 l 573 0 l 583 79 q 473 3 524 24 q 358 -19 422 -19 q 125 89 212 -19 q 39 340 39 197 q 94 548 39 449 q 241 702 149 646 q 435 757 334 757 q 560 726 503 757 q 654 635 617 694 l 667 738 m 400 142 q 516 172 467 142 q 599 266 566 202 q 633 396 633 330 q 582 537 633 484 q 449 590 532 590 q 286 519 353 590 q 218 335 218 448 q 269 195 218 248 q 400 142 320 142 m 583 1137 l 802 1137 l 517 872 l 384 872 l 583 1137 z "},"à":{"ha":917,"x_min":39,"x_max":848,"o":"m 667 738 l 848 738 l 752 0 l 573 0 l 583 79 q 473 3 524 24 q 358 -19 422 -19 q 125 89 212 -19 q 39 340 39 197 q 94 548 39 449 q 241 702 149 646 q 435 757 334 757 q 560 726 503 757 q 654 635 617 694 l 667 738 m 400 142 q 516 172 467 142 q 599 266 566 202 q 633 396 633 330 q 582 537 633 484 q 449 590 532 590 q 286 519 353 590 q 218 335 218 448 q 269 195 218 248 q 400 142 320 142 m 313 1137 l 531 1137 l 654 871 l 522 871 l 313 1137 z "},"â":{"ha":917,"x_min":39,"x_max":848,"o":"m 667 738 l 848 738 l 752 0 l 573 0 l 583 79 q 473 3 524 24 q 358 -19 422 -19 q 125 89 212 -19 q 39 340 39 197 q 94 548 39 449 q 241 702 149 646 q 435 757 334 757 q 560 726 503 757 q 654 635 617 694 l 667 738 m 400 142 q 516 172 467 142 q 599 266 566 202 q 633 396 633 330 q 582 537 633 484 q 449 590 532 590 q 286 519 353 590 q 218 335 218 448 q 269 195 218 248 q 400 142 320 142 m 469 1042 l 617 1042 l 793 850 l 591 850 l 530 939 l 441 850 l 238 850 l 469 1042 z "},"ä":{"ha":917,"x_min":39,"x_max":848,"o":"m 667 738 l 848 738 l 752 0 l 573 0 l 583 79 q 473 3 524 24 q 358 -19 422 -19 q 125 89 212 -19 q 39 340 39 197 q 94 548 39 449 q 241 702 149 646 q 435 757 334 757 q 560 726 503 757 q 654 635 617 694 l 667 738 m 400 142 q 516 172 467 142 q 599 266 566 202 q 633 396 633 330 q 582 537 633 484 q 449 590 532 590 q 286 519 353 590 q 218 335 218 448 q 269 195 218 248 q 400 142 320 142 m 359 1042 q 418 1018 394 1042 q 442 961 442 994 q 410 881 442 914 q 330 848 377 848 q 269 871 292 848 q 246 932 246 895 q 280 1009 246 976 q 359 1042 313 1042 m 659 1042 q 719 1018 694 1042 q 743 961 743 994 q 710 881 743 914 q 631 848 677 848 q 570 871 593 848 q 547 932 547 895 q 580 1009 547 976 q 659 1042 614 1042 z "},"ã":{"ha":917,"x_min":39,"x_max":848,"o":"m 667 738 l 848 738 l 752 0 l 573 0 l 583 79 q 473 3 524 24 q 358 -19 422 -19 q 125 89 212 -19 q 39 340 39 197 q 94 548 39 449 q 241 702 149 646 q 435 757 334 757 q 560 726 503 757 q 654 635 617 694 l 667 738 m 400 142 q 516 172 467 142 q 599 266 566 202 q 633 396 633 330 q 582 537 633 484 q 449 590 532 590 q 286 519 353 590 q 218 335 218 448 q 269 195 218 248 q 400 142 320 142 m 293 874 l 235 986 q 337 1038 295 1025 q 420 1052 378 1052 q 503 1038 452 1052 q 616 1015 584 1015 q 738 1050 674 1015 l 794 945 q 699 886 725 896 q 616 871 658 871 q 516 890 575 871 q 456 907 468 905 q 419 910 439 910 q 293 874 353 910 z "},"å":{"ha":917,"x_min":39,"x_max":848,"o":"m 667 738 l 848 738 l 752 0 l 573 0 l 583 79 q 473 3 524 24 q 358 -19 422 -19 q 125 89 212 -19 q 39 340 39 197 q 94 548 39 449 q 241 702 149 646 q 435 757 334 757 q 560 726 503 757 q 654 635 617 694 l 667 738 m 400 142 q 516 172 467 142 q 599 266 566 202 q 633 396 633 330 q 582 537 633 484 q 449 590 532 590 q 286 519 353 590 q 218 335 218 448 q 269 195 218 248 q 400 142 320 142 m 556 1174 q 647 1138 611 1174 q 682 1043 682 1102 q 630 924 682 976 q 511 871 578 871 q 419 909 455 871 q 382 1002 382 946 q 434 1123 382 1073 q 556 1174 485 1174 m 543 1087 q 496 1067 516 1087 q 476 1019 476 1046 q 490 981 476 996 q 524 967 503 967 q 569 987 549 967 q 589 1035 589 1008 q 575 1073 589 1058 q 543 1087 562 1087 z "},"ç":{"ha":889,"x_min":41,"x_max":805,"o":"m 805 585 l 652 502 q 477 585 587 585 q 346 553 403 585 q 255 462 289 522 q 221 336 221 402 q 275 199 221 250 q 422 147 328 147 q 621 235 551 147 l 763 134 q 613 22 703 62 q 412 -19 523 -19 q 141 76 240 -19 q 41 327 41 171 q 164 631 41 505 q 480 757 287 757 q 805 585 698 757 m 389 9 l 503 9 l 491 -20 q 553 -56 532 -31 q 574 -111 574 -81 q 521 -214 574 -170 q 381 -259 469 -259 q 235 -227 308 -259 l 271 -140 q 365 -156 319 -156 q 421 -140 401 -156 q 441 -102 441 -125 q 430 -77 441 -85 q 387 -69 418 -69 l 353 -71 l 389 9 z "},"é":{"ha":889,"x_min":41,"x_max":817,"o":"m 584 216 l 743 134 q 601 22 690 63 q 405 -19 513 -19 q 139 76 236 -19 q 41 328 41 171 q 163 632 41 508 q 457 757 285 757 q 642 711 561 757 q 770 579 723 666 q 817 391 817 492 q 810 316 817 359 l 221 316 q 272 194 224 239 q 404 149 319 149 q 584 216 505 149 m 630 449 q 562 552 610 517 q 448 587 515 587 q 328 551 381 587 q 246 449 274 515 l 630 449 m 570 1137 l 789 1137 l 503 872 l 370 872 l 570 1137 z "},"è":{"ha":889,"x_min":41,"x_max":817,"o":"m 584 216 l 743 134 q 601 22 690 63 q 405 -19 513 -19 q 139 76 236 -19 q 41 328 41 171 q 163 632 41 508 q 457 757 285 757 q 642 711 561 757 q 770 579 723 666 q 817 391 817 492 q 810 316 817 359 l 221 316 q 272 194 224 239 q 404 149 319 149 q 584 216 505 149 m 630 449 q 562 552 610 517 q 448 587 515 587 q 328 551 381 587 q 246 449 274 515 l 630 449 m 299 1137 l 517 1137 l 641 871 l 509 871 l 299 1137 z "},"ê":{"ha":889,"x_min":41,"x_max":817,"o":"m 584 216 l 743 134 q 601 22 690 63 q 405 -19 513 -19 q 139 76 236 -19 q 41 328 41 171 q 163 632 41 508 q 457 757 285 757 q 642 711 561 757 q 770 579 723 666 q 817 391 817 492 q 810 316 817 359 l 221 316 q 272 194 224 239 q 404 149 319 149 q 584 216 505 149 m 630 449 q 562 552 610 517 q 448 587 515 587 q 328 551 381 587 q 246 449 274 515 l 630 449 m 456 1042 l 604 1042 l 779 850 l 577 850 l 516 939 l 428 850 l 224 850 l 456 1042 z "},"ë":{"ha":889,"x_min":41,"x_max":817,"o":"m 584 216 l 743 134 q 601 22 690 63 q 405 -19 513 -19 q 139 76 236 -19 q 41 328 41 171 q 163 632 41 508 q 457 757 285 757 q 642 711 561 757 q 770 579 723 666 q 817 391 817 492 q 810 316 817 359 l 221 316 q 272 194 224 239 q 404 149 319 149 q 584 216 505 149 m 630 449 q 562 552 610 517 q 448 587 515 587 q 328 551 381 587 q 246 449 274 515 l 630 449 m 345 1042 q 405 1018 380 1042 q 429 961 429 994 q 396 881 429 914 q 317 848 363 848 q 256 871 279 848 q 233 932 233 895 q 266 1009 233 976 q 345 1042 300 1042 m 646 1042 q 705 1018 681 1042 q 729 961 729 994 q 696 881 729 914 q 617 848 664 848 q 556 871 579 848 q 533 932 533 895 q 567 1009 533 976 q 646 1042 600 1042 z "},"í":{"ha":333,"x_min":7,"x_max":511,"o":"m 107 738 l 286 738 l 187 0 l 7 0 l 107 738 m 292 1137 l 511 1137 l 225 872 l 92 872 l 292 1137 z "},"ì":{"ha":333,"x_min":7,"x_max":363,"o":"m 107 738 l 286 738 l 187 0 l 7 0 l 107 738 m 21 1137 l 239 1137 l 363 871 l 231 871 l 21 1137 z "},"î":{"ha":333,"x_min":-54,"x_max":501,"o":"m 107 738 l 286 738 l 187 0 l 7 0 l 107 738 m 178 1042 l 326 1042 l 501 850 l 299 850 l 238 939 l 150 850 l -54 850 l 178 1042 z "},"ï":{"ha":333,"x_min":-45,"x_max":451,"o":"m 107 738 l 286 738 l 187 0 l 7 0 l 107 738 m 67 1042 q 126 1018 102 1042 q 151 961 151 994 q 118 881 151 914 q 39 848 85 848 q -22 871 1 848 q -45 932 -45 895 q -12 1009 -45 976 q 67 1042 22 1042 m 368 1042 q 427 1018 403 1042 q 451 961 451 994 q 418 881 451 914 q 339 848 386 848 q 278 871 301 848 q 255 932 255 895 q 289 1009 255 976 q 368 1042 322 1042 z "},"ñ":{"ha":833,"x_min":31,"x_max":753,"o":"m 131 738 l 311 738 l 300 663 q 516 757 404 757 q 673 696 612 757 q 734 543 734 635 q 722 414 734 500 l 667 0 l 488 0 l 541 404 q 549 497 549 466 q 524 566 549 542 q 452 590 498 590 q 361 558 406 590 q 291 471 315 527 q 246 261 267 415 l 212 0 l 31 0 l 131 738 m 252 874 l 193 986 q 295 1038 254 1025 q 379 1052 337 1052 q 462 1038 411 1052 q 575 1015 543 1015 q 696 1050 633 1015 l 753 945 q 658 886 684 896 q 575 871 616 871 q 475 890 534 871 q 414 907 427 905 q 378 910 398 910 q 252 874 311 910 z "},"ó":{"ha":889,"x_min":41,"x_max":812,"o":"m 464 757 q 643 711 562 757 q 768 583 723 666 q 812 395 812 499 q 690 102 812 223 q 386 -19 567 -19 q 135 76 229 -19 q 41 326 41 172 q 168 634 41 511 q 464 757 295 757 m 451 585 q 280 506 340 585 q 221 333 221 426 q 270 200 221 250 q 399 149 318 149 q 573 226 513 149 q 633 402 633 303 q 583 534 633 484 q 451 585 532 585 m 570 1137 l 789 1137 l 503 872 l 370 872 l 570 1137 z "},"ò":{"ha":889,"x_min":41,"x_max":812,"o":"m 464 757 q 643 711 562 757 q 768 583 723 666 q 812 395 812 499 q 690 102 812 223 q 386 -19 567 -19 q 135 76 229 -19 q 41 326 41 172 q 168 634 41 511 q 464 757 295 757 m 451 585 q 280 506 340 585 q 221 333 221 426 q 270 200 221 250 q 399 149 318 149 q 573 226 513 149 q 633 402 633 303 q 583 534 633 484 q 451 585 532 585 m 300 1137 l 518 1137 l 642 871 l 509 871 l 300 1137 z "},"ô":{"ha":889,"x_min":41,"x_max":812,"o":"m 464 757 q 643 711 562 757 q 768 583 723 666 q 812 395 812 499 q 690 102 812 223 q 386 -19 567 -19 q 135 76 229 -19 q 41 326 41 172 q 168 634 41 511 q 464 757 295 757 m 451 585 q 280 506 340 585 q 221 333 221 426 q 270 200 221 250 q 399 149 318 149 q 573 226 513 149 q 633 402 633 303 q 583 534 633 484 q 451 585 532 585 m 456 1042 l 604 1042 l 779 850 l 577 850 l 516 939 l 428 850 l 224 850 l 456 1042 z "},"ö":{"ha":889,"x_min":41,"x_max":812,"o":"m 464 757 q 643 711 562 757 q 768 583 723 666 q 812 395 812 499 q 690 102 812 223 q 386 -19 567 -19 q 135 76 229 -19 q 41 326 41 172 q 168 634 41 511 q 464 757 295 757 m 451 585 q 280 506 340 585 q 221 333 221 426 q 270 200 221 250 q 399 149 318 149 q 573 226 513 149 q 633 402 633 303 q 583 534 633 484 q 451 585 532 585 m 345 1042 q 405 1018 380 1042 q 429 961 429 994 q 396 881 429 914 q 317 848 363 848 q 256 871 279 848 q 233 932 233 895 q 266 1009 233 976 q 345 1042 300 1042 m 646 1042 q 705 1018 681 1042 q 729 961 729 994 q 696 881 729 914 q 617 848 664 848 q 556 871 579 848 q 533 932 533 895 q 567 1009 533 976 q 646 1042 600 1042 z "},"õ":{"ha":889,"x_min":41,"x_max":812,"o":"m 464 757 q 643 711 562 757 q 768 583 723 666 q 812 395 812 499 q 690 102 812 223 q 386 -19 567 -19 q 135 76 229 -19 q 41 326 41 172 q 168 634 41 511 q 464 757 295 757 m 451 585 q 280 506 340 585 q 221 333 221 426 q 270 200 221 250 q 399 149 318 149 q 573 226 513 149 q 633 402 633 303 q 583 534 633 484 q 451 585 532 585 m 279 874 l 221 986 q 323 1038 281 1025 q 407 1052 365 1052 q 490 1038 439 1052 q 603 1015 570 1015 q 724 1050 661 1015 l 781 945 q 686 886 711 896 q 603 871 644 871 q 503 890 562 871 q 442 907 454 905 q 406 910 426 910 q 279 874 339 910 z "},"ú":{"ha":833,"x_min":76,"x_max":768,"o":"m 132 738 l 311 738 l 262 361 q 254 267 254 298 q 288 185 254 218 q 376 152 321 152 q 483 195 446 152 q 538 368 521 237 l 589 738 l 768 738 l 715 341 q 653 133 696 207 q 539 20 610 60 q 372 -19 468 -19 q 156 59 236 -19 q 76 262 76 138 q 93 457 76 338 l 132 738 m 541 1137 l 760 1137 l 475 872 l 342 872 l 541 1137 z "},"ù":{"ha":833,"x_min":76,"x_max":768,"o":"m 132 738 l 311 738 l 262 361 q 254 267 254 298 q 288 185 254 218 q 376 152 321 152 q 483 195 446 152 q 538 368 521 237 l 589 738 l 768 738 l 715 341 q 653 133 696 207 q 539 20 610 60 q 372 -19 468 -19 q 156 59 236 -19 q 76 262 76 138 q 93 457 76 338 l 132 738 m 271 1137 l 490 1137 l 613 871 l 481 871 l 271 1137 z "},"û":{"ha":833,"x_min":76,"x_max":768,"o":"m 132 738 l 311 738 l 262 361 q 254 267 254 298 q 288 185 254 218 q 376 152 321 152 q 483 195 446 152 q 538 368 521 237 l 589 738 l 768 738 l 715 341 q 653 133 696 207 q 539 20 610 60 q 372 -19 468 -19 q 156 59 236 -19 q 76 262 76 138 q 93 457 76 338 l 132 738 m 428 1042 l 576 1042 l 751 850 l 549 850 l 488 939 l 400 850 l 197 850 l 428 1042 z "},"ü":{"ha":833,"x_min":76,"x_max":768,"o":"m 132 738 l 311 738 l 262 361 q 254 267 254 298 q 288 185 254 218 q 376 152 321 152 q 483 195 446 152 q 538 368 521 237 l 589 738 l 768 738 l 715 341 q 653 133 696 207 q 539 20 610 60 q 372 -19 468 -19 q 156 59 236 -19 q 76 262 76 138 q 93 457 76 338 l 132 738 m 317 1042 q 376 1018 352 1042 q 400 961 400 994 q 368 881 400 914 q 288 848 335 848 q 227 871 250 848 q 204 932 204 895 q 238 1009 204 976 q 317 1042 271 1042 m 617 1042 q 676 1018 652 1042 q 701 961 701 994 q 668 881 701 914 q 589 848 635 848 q 528 871 551 848 q 505 932 505 895 q 538 1009 505 976 q 617 1042 572 1042 z "},"†":{"ha":778,"x_min":26,"x_max":780,"o":"m 370 1023 l 552 1023 l 468 654 l 780 685 l 753 503 l 452 538 l 370 -270 l 188 -270 l 337 538 l 26 503 l 51 685 l 352 654 l 370 1023 z "},"°":{"ha":555,"x_min":73,"x_max":541,"o":"m 541 789 q 472 624 541 691 q 306 556 404 556 q 140 624 208 556 q 73 791 73 692 q 142 955 73 887 q 308 1023 212 1023 q 472 955 404 1023 q 541 789 541 887 m 460 788 q 416 901 460 855 q 309 946 372 946 q 199 900 244 946 q 153 789 153 854 q 199 679 153 726 q 308 632 245 632 q 415 678 370 632 q 460 788 460 724 z "},"¢":{"ha":778,"x_min":12,"x_max":793,"o":"m 703 920 l 793 861 l 685 696 q 752 643 721 673 l 652 517 q 597 560 626 541 l 330 149 q 391 139 365 139 q 491 167 437 139 q 587 245 546 195 l 685 114 q 533 7 608 39 q 376 -25 459 -25 q 237 3 304 -25 l 101 -205 l 12 -149 l 149 63 q 47 319 47 167 q 106 542 47 437 q 263 704 164 646 q 474 762 361 762 q 587 743 529 762 l 703 920 m 495 599 l 463 600 q 291 521 365 600 q 217 330 217 441 q 248 217 217 275 l 495 599 z "},"£":{"ha":778,"x_min":-18,"x_max":729,"o":"m 723 738 l 541 738 q 543 774 543 759 q 521 829 543 808 q 460 850 499 850 q 382 816 412 850 q 351 722 351 782 q 366 589 351 688 l 587 589 l 565 418 l 376 418 q 361 307 375 354 q 299 165 342 244 q 369 157 312 165 q 436 152 411 152 q 532 226 504 152 l 713 226 q 602 39 679 103 q 427 -25 526 -25 q 275 -12 379 -25 q 142 0 176 0 q -18 -28 78 0 l 5 142 q 101 165 53 158 q 173 317 157 271 q 191 418 188 363 l 42 418 l 64 589 l 173 589 q 155 724 155 666 q 245 937 155 852 q 481 1023 335 1023 q 663 960 596 1023 q 729 800 729 897 q 723 738 729 775 z "},"§":{"ha":778,"x_min":40,"x_max":711,"o":"m 711 781 l 530 781 q 502 847 527 824 q 434 871 476 871 q 371 850 395 871 q 347 801 347 829 q 368 752 347 777 q 472 665 387 727 q 615 549 579 587 q 668 469 651 511 q 685 381 685 428 q 637 242 685 303 q 500 154 589 181 q 574 70 550 117 q 599 -35 599 22 q 511 -217 599 -144 q 300 -289 422 -289 q 165 -258 224 -289 q 74 -171 107 -227 q 40 -50 40 -114 l 40 -34 l 217 -34 q 248 -96 221 -73 q 317 -119 274 -119 q 387 -98 361 -119 q 412 -47 412 -77 q 407 -22 412 -34 q 391 2 402 -9 q 214 147 354 44 q 90 267 121 215 q 59 379 59 319 q 106 522 59 454 q 233 623 153 589 q 177 697 196 657 q 158 785 158 738 q 241 965 158 888 q 452 1042 325 1042 q 640 968 568 1042 q 711 781 711 895 m 330 543 q 249 493 278 527 q 220 418 220 458 q 233 373 220 392 q 299 311 245 353 l 408 228 q 492 274 464 245 q 519 342 519 302 q 501 400 519 372 q 418 477 482 429 l 330 543 z "},"•":{"ha":833,"x_min":208,"x_max":625,"o":"m 416 714 q 564 653 503 714 q 625 506 625 592 q 564 358 625 419 q 416 297 503 297 q 269 358 330 297 q 208 506 208 419 q 269 653 208 592 q 416 714 330 714 z "},"¶":{"ha":833,"x_min":111,"x_max":716,"o":"m 374 -257 l 374 481 q 180 553 250 482 q 111 749 111 623 q 186 956 111 886 q 431 1026 262 1026 l 716 1026 l 716 947 l 661 947 l 661 -257 l 566 -257 l 566 947 l 469 947 l 469 -257 l 374 -257 z "},"ß":{"ha":833,"x_min":32,"x_max":769,"o":"m 370 494 l 391 637 q 497 658 450 637 q 567 711 545 679 q 589 779 589 743 q 558 845 589 817 q 481 872 528 872 q 362 821 411 872 q 300 656 314 770 l 296 616 l 212 0 l 32 0 l 107 587 q 176 861 132 779 q 303 992 220 943 q 490 1042 387 1042 q 693 972 617 1042 q 769 799 769 903 q 719 648 769 713 q 579 555 669 583 q 745 302 745 472 q 648 74 745 166 q 402 -19 552 -19 q 277 5 335 -19 l 298 174 q 392 149 343 149 q 517 198 467 149 q 568 320 568 248 q 515 445 568 396 q 370 494 462 494 z "},"®":{"ha":1027,"x_min":-5,"x_max":1034,"o":"m 1034 512 q 964 253 1034 373 q 774 64 895 134 q 514 -5 654 -5 q 254 64 375 -5 q 64 253 134 134 q -5 513 -5 373 q 64 772 -5 652 q 254 961 134 892 q 514 1031 374 1031 q 774 961 654 1031 q 964 772 895 892 q 1034 512 1034 652 m 926 511 q 806 803 926 683 q 515 924 686 924 q 223 804 344 924 q 102 514 102 684 q 156 310 102 404 q 307 161 211 216 q 514 106 404 106 q 720 160 624 106 q 871 309 817 215 q 926 511 926 403 m 299 795 l 551 795 q 667 778 630 795 q 727 722 705 760 q 750 631 750 684 q 736 556 750 585 q 684 500 722 528 q 726 460 715 482 q 741 382 738 438 q 750 259 745 277 q 774 227 754 242 l 631 227 q 619 265 622 250 q 616 319 616 281 q 608 412 614 394 q 586 438 602 429 q 525 447 571 447 l 424 447 l 424 227 l 299 227 l 299 795 m 424 686 l 424 551 l 528 551 q 608 568 589 551 q 628 620 628 584 q 609 671 628 656 q 529 686 589 686 l 424 686 z "},"©":{"ha":1027,"x_min":-5,"x_max":1034,"o":"m 1034 513 q 964 254 1034 374 q 774 64 895 134 q 514 -5 653 -5 q 254 64 375 -5 q 64 254 134 134 q -5 513 -5 374 q 64 772 -5 652 q 254 961 134 892 q 514 1031 374 1031 q 774 961 654 1031 q 964 772 895 892 q 1034 513 1034 652 m 926 511 q 806 803 926 683 q 515 924 686 924 q 308 869 404 924 q 157 719 212 814 q 102 514 102 623 q 157 310 102 405 q 308 161 212 216 q 513 106 404 106 q 720 161 624 106 q 871 310 817 216 q 926 511 926 404 m 665 418 l 784 418 q 704 271 772 329 q 536 214 635 214 q 327 299 408 214 q 245 522 245 385 q 326 738 245 655 q 532 821 406 821 q 698 770 633 821 q 784 622 763 719 l 665 622 q 618 699 653 672 q 533 726 584 726 q 409 672 458 726 q 360 524 360 617 q 412 368 360 427 q 536 309 464 309 q 623 339 587 309 q 665 418 659 370 z "},"™":{"ha":1389,"x_min":68,"x_max":1292,"o":"m 1292 998 l 1292 428 l 1173 428 l 1173 897 l 986 428 l 926 428 l 746 897 l 746 428 l 627 428 l 627 998 l 808 998 l 956 631 l 1112 998 l 1292 998 m 549 998 l 549 898 l 371 898 l 371 428 l 248 428 l 248 898 l 68 898 l 68 998 l 549 998 z "},"´":{"ha":583,"x_min":218,"x_max":636,"o":"m 417 1137 l 636 1137 l 351 872 l 218 872 l 417 1137 z "},"¨":{"ha":694,"x_min":135,"x_max":631,"o":"m 248 1042 q 307 1018 283 1042 q 331 961 331 994 q 298 881 331 914 q 219 848 266 848 q 158 871 181 848 q 135 932 135 895 q 169 1009 135 976 q 248 1042 202 1042 m 548 1042 q 607 1018 583 1042 q 631 961 631 994 q 599 881 631 914 q 519 848 566 848 q 458 871 481 848 q 435 932 435 895 q 469 1009 435 976 q 548 1042 503 1042 z "},"≠":{"ha":762,"x_min":42,"x_max":720,"o":"m 545 728 l 720 728 l 720 559 l 472 559 l 420 438 l 720 438 l 720 269 l 348 269 l 222 -25 l 91 -25 l 217 269 l 42 269 l 42 438 l 290 438 l 341 559 l 42 559 l 42 728 l 414 728 l 540 1023 l 671 1023 l 545 728 z "},"Æ":{"ha":1250,"x_min":-24,"x_max":1204,"o":"m 516 998 l 1204 998 l 1181 821 l 826 821 l 798 613 l 1155 613 l 1131 438 l 776 438 l 739 174 l 1097 174 l 1074 0 l 534 0 l 563 213 l 292 213 l 176 0 l -24 0 l 516 998 m 587 388 l 650 880 l 385 388 l 587 388 z "},"Ø":{"ha":1166,"x_min":56,"x_max":1114,"o":"m 998 871 q 1114 555 1114 739 q 1035 261 1114 399 q 825 49 956 123 q 524 -25 693 -25 q 265 37 372 -25 l 174 -68 l 92 0 l 181 102 q 56 433 56 231 q 133 732 56 595 q 343 945 210 868 q 635 1023 476 1023 q 916 943 800 1023 l 1002 1043 l 1084 972 l 998 871 m 307 247 l 794 804 q 631 846 723 846 q 438 793 526 846 q 295 644 349 741 q 241 444 241 547 q 307 247 241 330 m 872 730 l 391 180 q 535 150 452 150 q 811 266 697 150 q 925 545 925 381 q 872 730 925 651 z "},"∞":{"ha":990,"x_min":102,"x_max":888,"o":"m 460 572 q 566 692 513 657 q 680 726 618 726 q 829 663 770 726 q 888 490 888 599 q 829 317 888 380 q 680 253 770 253 q 566 287 618 253 q 460 408 513 321 q 368 321 420 352 q 266 291 315 291 q 149 345 196 291 q 102 490 102 399 q 149 634 102 580 q 266 688 196 688 q 368 657 315 688 q 460 572 420 627 m 524 491 q 604 384 581 404 q 682 353 640 353 q 761 393 732 353 q 789 492 789 432 q 759 591 789 555 q 684 627 729 627 q 612 601 647 627 q 524 491 577 574 m 402 492 q 273 588 334 588 q 219 563 241 588 q 197 493 197 537 q 219 421 197 448 q 273 395 241 395 q 323 411 300 395 q 402 492 358 435 z "},"±":{"ha":762,"x_min":42,"x_max":720,"o":"m 296 732 l 296 986 l 466 986 l 466 732 l 720 732 l 720 562 l 466 562 l 466 309 l 296 309 l 296 562 l 42 562 l 42 732 l 296 732 m 42 170 l 720 170 l 720 0 l 42 0 l 42 170 z "},"≤":{"ha":762,"x_min":42,"x_max":720,"o":"m 720 385 l 720 216 l 42 561 l 42 711 l 720 1055 l 720 886 l 237 635 l 720 385 m 42 140 l 720 140 l 720 -30 l 42 -30 l 42 140 z "},"≥":{"ha":762,"x_min":42,"x_max":720,"o":"m 42 385 l 526 635 l 42 886 l 42 1055 l 720 711 l 720 561 l 42 216 l 42 385 m 720 140 l 720 -30 l 42 -30 l 42 140 l 720 140 z "},"¥":{"ha":778,"x_min":14,"x_max":805,"o":"m 45 998 l 229 998 l 350 604 l 597 998 l 805 998 l 490 496 l 637 496 l 623 384 l 420 384 l 410 306 l 610 306 l 597 192 l 393 192 l 368 0 l 180 0 l 206 192 l 14 192 l 28 306 l 222 306 l 232 384 l 39 384 l 56 496 l 200 496 l 45 998 z "},"µ":{"ha":800,"x_min":-47,"x_max":765,"o":"m -47 -270 l 104 738 l 283 738 l 225 351 q 216 267 216 293 q 254 175 216 212 q 347 138 292 138 q 429 160 391 138 q 491 227 467 183 q 528 356 516 271 l 586 738 l 765 738 l 654 0 l 475 0 l 488 86 q 408 4 450 28 q 319 -20 367 -20 q 240 4 275 -20 q 184 81 206 28 l 132 -270 l -47 -270 z "},"∂":{"ha":686,"x_min":31,"x_max":663,"o":"m 258 762 l 165 819 q 267 963 200 914 q 416 1011 333 1011 q 541 972 486 1011 q 630 850 596 934 q 663 640 663 767 q 594 260 663 441 q 446 53 542 123 q 241 -17 351 -17 q 89 46 147 -17 q 31 223 31 109 q 91 431 31 336 q 267 583 152 526 q 533 640 381 640 l 561 639 q 518 828 560 769 q 412 888 477 888 q 332 862 367 888 q 258 762 296 836 m 553 514 l 523 515 q 349 477 427 515 q 228 370 271 439 q 186 229 186 302 q 214 145 186 178 q 281 112 242 112 q 448 215 370 112 q 553 514 526 317 z "},"∑":{"ha":990,"x_min":83,"x_max":940,"o":"m 94 1023 l 933 1023 l 933 911 l 263 911 l 675 386 l 235 -161 l 940 -161 l 940 -270 l 83 -270 l 83 -143 l 503 380 l 94 904 l 94 1023 z "},"∏":{"ha":1143,"x_min":110,"x_max":1034,"o":"m 110 1023 l 1034 1023 l 1034 -270 l 904 -270 l 904 905 l 241 905 l 241 -270 l 110 -270 l 110 1023 z "},"":{"ha":762,"x_min":0,"x_max":817,"o":"m 142 721 l 817 721 l 778 585 l 711 585 l 534 0 l 340 0 l 515 582 l 372 582 l 196 0 l 0 0 l 177 581 l 101 581 l 142 721 z "},"∫":{"ha":380,"x_min":0,"x_max":380,"o":"m 136 643 q 147 981 136 785 q 184 1179 154 1106 q 232 1242 201 1220 q 295 1263 264 1263 q 354 1241 328 1263 q 380 1191 380 1219 q 362 1140 380 1160 q 317 1120 344 1120 q 266 1145 294 1120 q 239 1158 250 1158 q 219 1148 227 1158 q 212 1115 212 1139 q 218 1017 212 1086 q 243 566 243 739 q 233 181 243 520 q 176 -97 227 -26 q 80 -149 138 -149 q 22 -126 45 -149 q 0 -67 0 -103 q 17 -19 0 -37 q 61 0 35 0 q 109 -22 88 0 q 141 -43 127 -43 q 160 -34 153 -43 q 168 -2 168 -24 q 161 79 168 26 q 136 643 136 294 z "},"ª":{"ha":500,"x_min":49,"x_max":497,"o":"m 363 1011 l 497 1011 l 432 549 l 299 549 l 304 590 q 249 548 271 558 q 193 538 226 538 q 91 593 134 538 q 49 743 49 648 q 116 942 49 861 q 264 1023 182 1023 q 310 1011 290 1023 q 357 968 330 1000 l 363 1011 m 250 654 q 309 686 286 654 q 339 797 339 730 q 319 877 339 849 q 269 904 299 904 q 208 866 235 904 q 181 760 181 828 q 201 681 181 709 q 250 654 222 654 z "},"º":{"ha":500,"x_min":47,"x_max":496,"o":"m 292 1023 q 438 961 380 1023 q 496 796 496 899 q 424 613 496 688 q 248 538 352 538 q 103 597 158 538 q 47 754 47 656 q 120 945 47 868 q 292 1023 193 1023 m 282 901 q 211 862 241 901 q 181 759 181 823 q 202 684 181 711 q 258 658 224 658 q 333 696 302 658 q 363 800 363 734 q 340 874 363 847 q 282 901 317 901 z "},"Ω":{"ha":1067,"x_min":1,"x_max":1065,"o":"m 245 142 q 144 248 177 191 q 100 420 100 326 q 181 723 100 575 q 385 945 262 871 q 661 1020 507 1020 q 956 912 847 1020 q 1065 623 1065 804 q 1022 410 1065 508 q 905 240 979 312 q 764 142 859 196 q 964 160 883 151 l 924 0 l 494 0 l 540 146 q 637 179 602 159 q 743 273 699 215 q 836 450 802 349 q 869 648 869 551 q 813 818 869 759 q 654 878 756 878 q 467 807 547 878 q 338 607 388 737 q 289 365 289 476 q 326 214 289 271 q 407 146 352 174 l 360 0 l 1 0 l 47 159 l 79 156 q 245 142 173 144 z "},"æ":{"ha":1500,"x_min":51,"x_max":1418,"o":"m 1411 314 l 810 314 q 1002 146 839 146 q 1185 214 1108 146 l 1345 132 q 1205 24 1296 66 q 1008 -19 1114 -19 q 879 0 935 -19 q 760 64 822 18 l 751 0 l 586 0 l 596 77 q 371 -19 508 -19 q 210 23 278 -19 q 97 153 142 65 q 51 339 51 240 q 106 546 51 448 q 255 701 161 645 q 448 757 349 757 q 572 725 514 757 q 667 633 630 692 l 682 757 l 847 757 l 836 675 q 1077 757 952 757 q 1317 651 1217 757 q 1418 393 1418 545 q 1411 314 1418 360 m 461 588 q 298 516 365 588 q 231 334 231 444 q 281 193 231 245 q 412 140 332 140 q 530 171 477 140 q 613 263 582 201 q 645 393 645 325 q 593 534 645 480 q 461 588 542 588 m 1232 447 q 1165 550 1212 514 q 1053 585 1118 585 q 931 552 986 585 q 835 447 876 519 l 1232 447 z "},"ø":{"ha":917,"x_min":31,"x_max":858,"o":"m 747 635 q 827 395 827 534 q 704 102 827 223 q 401 -19 581 -19 q 213 25 290 -19 l 109 -94 l 31 -23 l 133 94 q 55 325 55 191 q 111 542 55 443 q 266 699 168 640 q 474 757 365 757 q 667 706 583 757 l 777 833 l 858 762 l 747 635 m 257 237 l 547 569 q 462 585 509 585 q 294 505 353 585 q 235 334 235 425 q 257 237 235 280 m 625 496 l 334 163 q 413 149 370 149 q 587 225 526 149 q 648 401 648 302 q 625 496 648 456 z "},"¿":{"ha":778,"x_min":1,"x_max":659,"o":"m 429 544 q 349 577 382 544 q 315 658 315 610 q 349 738 315 705 q 429 772 382 772 q 510 738 477 772 q 543 658 543 705 q 510 577 543 610 q 429 544 477 544 m 481 8 l 659 8 q 602 -145 650 -77 q 475 -251 555 -213 q 296 -289 396 -289 q 83 -211 166 -289 q 1 -23 1 -132 q 165 235 1 115 q 258 312 239 290 q 290 368 277 333 q 308 457 303 404 l 481 457 q 441 262 479 334 q 303 122 404 190 q 201 38 222 68 q 180 -22 180 8 q 217 -91 180 -61 q 315 -121 254 -121 q 481 8 450 -121 z "},"¡":{"ha":389,"x_min":3,"x_max":334,"o":"m 221 544 q 140 577 174 544 q 107 658 107 610 q 140 738 107 705 q 221 772 174 772 q 301 738 268 772 q 334 658 334 705 q 301 577 334 610 q 221 544 268 544 m 189 -270 l 3 -270 l 105 458 l 292 458 l 189 -270 z "},"¬":{"ha":833,"x_min":78,"x_max":755,"o":"m 78 728 l 755 728 l 755 269 l 587 269 l 587 559 l 78 559 l 78 728 z "},"√":{"ha":762,"x_min":55,"x_max":760,"o":"m 710 1267 l 760 1267 l 549 -53 l 212 640 l 78 578 l 55 621 l 259 724 l 534 165 l 710 1267 z "},"ƒ":{"ha":778,"x_min":33,"x_max":715,"o":"m 715 985 l 692 823 q 598 863 637 863 q 554 840 570 863 q 526 734 538 817 l 512 633 l 664 633 l 641 475 l 488 475 l 416 -38 q 376 -186 402 -137 q 307 -262 349 -236 q 214 -289 264 -289 q 134 -276 174 -289 q 33 -228 93 -263 l 56 -64 q 164 -114 120 -114 q 205 -94 191 -114 q 230 -5 220 -75 l 302 475 l 149 475 l 172 633 l 326 633 l 348 802 q 413 985 366 929 q 547 1042 460 1042 q 627 1030 591 1042 q 715 985 663 1019 z "},"≈":{"ha":762,"x_min":32,"x_max":730,"o":"m 32 547 l 32 762 q 201 812 135 812 q 297 798 245 812 q 435 742 349 784 q 509 709 491 714 q 555 703 532 703 q 730 779 631 703 l 730 561 q 563 512 645 512 q 473 524 518 512 q 325 582 427 536 q 238 616 260 610 q 193 623 216 623 q 125 607 159 623 q 32 547 90 592 m 32 219 l 32 435 q 201 486 135 486 q 297 471 245 486 q 435 414 349 456 q 509 382 491 387 q 555 376 532 376 q 730 452 631 376 l 730 233 q 563 185 645 185 q 473 197 518 185 q 325 254 427 209 q 238 289 260 283 q 193 295 216 295 q 125 280 159 295 q 32 219 90 264 z "},"∆":{"ha":850,"x_min":18,"x_max":831,"o":"m 831 0 l 18 0 l 444 941 l 831 0 m 671 56 l 401 711 l 102 56 l 671 56 z "},"«":{"ha":639,"x_min":-2,"x_max":656,"o":"m 176 738 l 349 738 l 170 365 l 243 0 l 71 0 l -2 365 l 176 738 m 484 738 l 656 738 l 477 365 l 551 0 l 378 0 l 305 365 l 484 738 z "},"»":{"ha":639,"x_min":-54,"x_max":604,"o":"m 426 0 l 254 0 l 432 373 l 359 738 l 532 738 l 604 373 l 426 0 m 118 0 l -54 0 l 125 373 l 52 738 l 224 738 l 297 373 l 118 0 z "},"…":{"ha":1389,"x_min":117,"x_max":1271,"o":"m 694 209 q 774 176 741 209 q 808 95 808 142 q 774 15 808 48 q 694 -19 741 -19 q 614 15 647 -19 q 581 95 581 48 q 614 176 581 142 q 694 209 647 209 m 231 209 q 312 176 278 209 q 345 95 345 142 q 312 15 345 48 q 231 -19 278 -19 q 151 15 184 -19 q 117 95 117 48 q 151 176 117 142 q 231 209 184 209 m 1157 209 q 1238 176 1204 209 q 1271 95 1271 142 q 1238 15 1271 48 q 1157 -19 1204 -19 q 1077 15 1110 -19 q 1043 95 1043 48 q 1077 176 1043 142 q 1157 209 1110 209 z "}," ":{"ha":389,"x_min":0,"x_max":0,"o":""},"À":{"ha":1027,"x_min":-16,"x_max":928,"o":"m 522 998 l 680 998 l 928 0 l 747 0 l 694 212 l 300 212 l 185 0 l -16 0 l 522 998 m 648 389 l 568 716 l 393 389 l 648 389 m 410 1360 l 628 1360 l 751 1095 l 619 1095 l 410 1360 z "},"Ã":{"ha":1027,"x_min":-16,"x_max":928,"o":"m 522 998 l 680 998 l 928 0 l 747 0 l 694 212 l 300 212 l 185 0 l -16 0 l 522 998 m 648 389 l 568 716 l 393 389 l 648 389 m 389 1097 l 331 1209 q 433 1261 391 1248 q 517 1275 475 1275 q 600 1261 549 1275 q 713 1238 680 1238 q 834 1273 770 1238 l 890 1168 q 795 1109 821 1119 q 713 1095 754 1095 q 612 1113 671 1095 q 552 1131 564 1128 q 515 1133 536 1133 q 389 1097 449 1133 z "},"Õ":{"ha":1166,"x_min":56,"x_max":1114,"o":"m 641 1023 q 980 890 846 1023 q 1114 555 1114 758 q 1035 261 1114 399 q 824 49 956 123 q 523 -25 693 -25 q 183 101 310 -25 q 56 433 56 227 q 208 836 56 667 q 641 1023 377 1023 m 634 846 q 438 794 527 846 q 296 645 350 742 q 241 444 241 547 q 317 235 241 321 q 533 150 392 150 q 811 265 696 150 q 925 545 925 380 q 845 764 925 682 q 634 846 764 846 m 459 1097 l 401 1209 q 503 1261 461 1248 q 587 1275 545 1275 q 669 1261 618 1275 q 783 1238 750 1238 q 904 1273 840 1238 l 960 1168 q 865 1109 891 1119 q 783 1095 824 1095 q 682 1113 741 1095 q 622 1131 634 1128 q 585 1133 606 1133 q 459 1097 519 1133 z "},"Œ":{"ha":1472,"x_min":45,"x_max":1466,"o":"m 963 998 l 1466 998 l 1443 822 l 1124 822 l 1097 614 l 1417 614 l 1394 438 l 1074 438 l 1038 175 l 1362 175 l 1337 0 l 830 0 l 842 81 q 694 0 772 25 q 514 -25 616 -25 q 165 109 285 -25 q 45 437 45 243 q 122 733 45 597 q 334 946 199 869 q 627 1023 468 1023 q 802 992 726 1023 q 950 894 878 962 l 963 998 m 623 846 q 429 793 519 846 q 287 646 339 740 q 234 441 234 551 q 313 230 234 310 q 521 150 391 150 q 794 265 682 150 q 906 549 906 380 q 827 764 906 682 q 623 846 747 846 z "},"œ":{"ha":1500,"x_min":53,"x_max":1415,"o":"m 1410 317 l 821 317 q 866 200 821 253 q 1004 148 910 148 q 1183 216 1110 148 l 1343 134 q 1198 22 1286 62 q 1002 -19 1109 -19 q 839 11 909 -19 q 709 107 768 41 q 569 13 646 44 q 404 -19 493 -19 q 215 20 287 -19 q 98 142 144 60 q 53 328 53 225 q 178 630 53 503 q 470 757 302 757 q 629 723 558 757 q 754 621 701 689 q 898 723 818 688 q 1063 757 978 757 q 1243 710 1161 757 q 1370 577 1324 663 q 1415 388 1415 491 q 1410 317 1415 359 m 1230 448 q 1162 551 1211 514 q 1047 587 1113 587 q 844 448 909 587 l 1230 448 m 459 586 q 300 514 367 586 q 233 334 233 443 q 282 198 233 248 q 412 148 330 148 q 575 217 512 148 q 647 404 647 295 q 594 533 647 481 q 459 586 541 586 z "},"–":{"ha":694,"x_min":-8,"x_max":703,"o":"m -8 318 l -8 482 l 703 482 l 703 318 l -8 318 z "},"—":{"ha":1389,"x_min":-8,"x_max":1397,"o":"m -8 318 l -8 482 l 1397 482 l 1397 318 l -8 318 z "},"“":{"ha":667,"x_min":151,"x_max":636,"o":"m 597 644 l 427 644 l 438 728 q 478 878 450 818 q 578 1023 505 939 l 636 972 q 557 838 578 897 l 625 838 l 597 644 m 321 644 l 151 644 l 163 728 q 202 878 174 818 q 302 1023 229 939 l 360 972 q 281 838 302 897 l 349 838 l 321 644 z "},"”":{"ha":667,"x_min":151,"x_max":636,"o":"m 190 1023 l 360 1023 l 349 938 q 310 788 337 848 q 210 644 282 728 l 151 694 q 230 829 209 769 l 162 829 l 190 1023 m 466 1023 l 636 1023 l 625 938 q 586 788 613 848 q 486 644 558 728 l 427 694 q 506 829 485 769 l 437 829 l 466 1023 z "},"‘":{"ha":389,"x_min":149,"x_max":358,"o":"m 319 644 l 149 644 l 161 728 q 200 878 172 818 q 300 1023 227 939 l 358 972 q 279 838 300 897 l 347 838 l 319 644 z "},"’":{"ha":389,"x_min":149,"x_max":358,"o":"m 188 1023 l 358 1023 l 347 938 q 308 788 335 848 q 208 644 280 728 l 149 694 q 228 829 207 769 l 160 829 l 188 1023 z "},"÷":{"ha":762,"x_min":42,"x_max":720,"o":"m 272 899 l 490 899 l 490 682 l 272 682 l 272 899 m 42 583 l 720 583 l 720 414 l 42 414 l 42 583 m 272 316 l 490 316 l 490 98 l 272 98 l 272 316 z "},"◊":{"ha":686,"x_min":32,"x_max":656,"o":"m 372 964 l 656 481 l 372 0 l 297 0 l 32 481 l 297 964 l 372 964 m 336 899 l 105 481 l 336 64 l 579 481 l 336 899 z "},"ÿ":{"ha":806,"x_min":28,"x_max":800,"o":"m 31 738 l 208 738 l 352 300 l 604 738 l 800 738 l 220 -270 l 28 -270 l 238 100 l 31 738 m 303 1042 q 362 1018 338 1042 q 387 961 387 994 q 354 881 387 914 q 275 848 321 848 q 214 871 237 848 q 191 932 191 895 q 224 1009 191 976 q 303 1042 258 1042 m 604 1042 q 663 1018 639 1042 q 687 961 687 994 q 654 881 687 914 q 575 848 622 848 q 514 871 537 848 q 491 932 491 895 q 525 1009 491 976 q 604 1042 558 1042 z "},"Ÿ":{"ha":861,"x_min":45,"x_max":888,"o":"m 45 998 l 234 998 l 390 598 l 673 998 l 888 998 l 463 399 l 409 0 l 222 0 l 277 399 l 45 998 m 372 1265 q 431 1241 407 1265 q 455 1184 455 1217 q 422 1104 455 1137 q 343 1071 390 1071 q 282 1094 305 1071 q 259 1156 259 1118 q 293 1232 259 1199 q 372 1265 326 1265 m 672 1265 q 731 1241 707 1265 q 755 1184 755 1217 q 723 1104 755 1137 q 644 1071 690 1071 q 583 1094 606 1071 q 559 1156 559 1118 q 593 1232 559 1199 q 672 1265 627 1265 z "},"⁄":{"ha":222,"x_min":-272,"x_max":514,"o":"m -272 -25 l 398 1023 l 514 1023 l -156 -25 l -272 -25 z "},"∕":{"ha":222,"x_min":-272,"x_max":514,"o":"m -272 -25 l 398 1023 l 514 1023 l -156 -25 l -272 -25 z "},"€":{"ha":778,"x_min":7,"x_max":793,"o":"m 297 345 q 615 149 389 149 q 753 172 684 149 l 753 -8 q 612 -25 689 -25 q 98 345 200 -25 l 7 345 l 41 456 l 86 456 q 92 542 86 487 l 7 542 l 41 653 l 123 653 q 343 923 193 825 q 681 1021 494 1021 q 793 1010 747 1021 l 741 842 q 685 847 716 847 q 480 795 575 847 q 329 653 386 743 l 681 653 l 646 542 l 285 542 q 277 485 277 509 l 277 456 l 621 456 l 586 345 l 297 345 z "},"‹":{"ha":333,"x_min":-6,"x_max":345,"o":"m 172 738 l 345 738 l 166 365 l 239 0 l 66 0 l -6 365 l 172 738 z "},"›":{"ha":333,"x_min":-58,"x_max":292,"o":"m 113 0 l -58 0 l 120 373 l 47 738 l 219 738 l 292 373 l 113 0 z "},"":{"ha":722,"x_min":17,"x_max":692,"o":"m 44 738 l 120 738 q 179 912 140 854 q 286 1006 218 970 q 436 1042 355 1042 q 620 982 548 1042 q 692 820 692 923 l 511 820 q 434 876 506 876 q 348 843 382 876 q 303 738 313 809 l 414 738 l 393 581 l 281 581 l 199 0 l 17 0 l 98 581 l 22 581 l 44 738 m 503 738 l 685 738 l 581 0 l 398 0 l 503 738 z "},"ﬁ":{"ha":722,"x_min":17,"x_max":692,"o":"m 44 738 l 120 738 q 179 912 140 854 q 286 1006 218 970 q 436 1042 355 1042 q 620 982 548 1042 q 692 820 692 923 l 511 820 q 434 876 506 876 q 348 843 382 876 q 303 738 313 809 l 414 738 l 393 581 l 281 581 l 199 0 l 17 0 l 98 581 l 22 581 l 44 738 m 503 738 l 685 738 l 581 0 l 398 0 l 503 738 z "},"":{"ha":722,"x_min":17,"x_max":693,"o":"m 44 738 l 121 738 q 176 909 137 848 q 285 1006 216 970 q 437 1042 355 1042 q 572 1013 514 1042 q 662 932 631 984 q 693 823 693 881 q 682 718 693 795 l 581 0 l 399 0 l 507 770 q 511 816 511 800 q 491 861 511 845 q 435 877 472 877 q 349 844 383 877 q 303 738 314 810 l 414 738 l 393 581 l 281 581 l 199 0 l 17 0 l 98 581 l 22 581 l 44 738 z "},"ﬂ":{"ha":722,"x_min":17,"x_max":693,"o":"m 44 738 l 121 738 q 176 909 137 848 q 285 1006 216 970 q 437 1042 355 1042 q 572 1013 514 1042 q 662 932 631 984 q 693 823 693 881 q 682 718 693 795 l 581 0 l 399 0 l 507 770 q 511 816 511 800 q 491 861 511 845 q 435 877 472 877 q 349 844 383 877 q 303 738 314 810 l 414 738 l 393 581 l 281 581 l 199 0 l 17 0 l 98 581 l 22 581 l 44 738 z "},"‡":{"ha":778,"x_min":-45,"x_max":789,"o":"m 372 1023 l 555 1023 l 475 706 l 789 738 l 764 557 l 460 591 l 460 376 l 396 156 l 713 194 l 688 6 l 381 43 l 372 -270 l 187 -270 l 265 43 l -45 6 l -18 194 l 282 156 l 282 376 l 345 591 l 35 557 l 60 738 l 361 706 l 372 1023 z "},"∙":{"ha":389,"x_min":81,"x_max":309,"o":"m 195 612 q 276 579 242 612 q 309 498 309 546 q 276 418 309 452 q 195 385 242 385 q 115 418 148 385 q 81 498 81 452 q 115 579 81 546 q 195 612 148 612 z "},"‚":{"ha":389,"x_min":58,"x_max":267,"o":"m 97 194 l 267 194 l 256 109 q 217 -41 244 20 q 117 -185 189 -101 l 58 -134 q 137 0 116 -59 l 69 0 l 97 194 z "},"„":{"ha":667,"x_min":59,"x_max":544,"o":"m 98 194 l 268 194 l 256 109 q 217 -41 245 20 q 117 -185 190 -101 l 59 -134 q 138 0 117 -59 l 70 0 l 98 194 m 374 194 l 544 194 l 532 109 q 493 -41 521 20 q 393 -185 466 -101 l 335 -134 q 414 0 393 -59 l 345 0 l 374 194 z "},"‰":{"ha":1777,"x_min":47,"x_max":1691,"o":"m 996 1042 l 1133 1042 l 184 -68 l 47 -68 l 859 885 q 765 871 812 876 q 673 867 719 867 q 534 875 608 867 q 543 810 543 838 q 507 680 543 743 q 411 582 471 616 q 279 548 351 548 q 127 606 186 548 q 68 753 68 664 q 168 958 68 875 q 324 1023 243 1023 q 439 1006 353 1023 q 690 978 589 978 q 847 994 770 978 q 996 1042 924 1010 m 322 903 q 228 863 267 903 q 190 764 190 823 q 218 693 190 722 q 288 664 246 664 q 380 704 341 664 q 418 802 418 745 q 392 875 418 847 q 322 903 365 903 m 917 448 q 1064 388 1006 448 q 1123 238 1123 329 q 1087 107 1123 170 q 991 9 1052 44 q 859 -25 931 -25 q 704 37 759 -25 q 648 184 648 100 q 685 312 648 249 q 785 412 722 376 q 917 448 848 448 m 901 331 q 809 292 847 331 q 771 195 771 252 q 800 119 771 148 q 871 91 828 91 q 961 133 922 91 q 999 231 999 174 q 972 304 999 277 q 901 331 945 331 m 1485 448 q 1633 388 1574 448 q 1691 238 1691 329 q 1656 107 1691 170 q 1560 9 1621 44 q 1428 -25 1499 -25 q 1272 37 1328 -25 q 1217 184 1217 100 q 1254 312 1217 249 q 1354 412 1291 376 q 1485 448 1416 448 m 1470 331 q 1377 292 1415 331 q 1339 195 1339 252 q 1368 119 1339 148 q 1440 91 1396 91 q 1529 133 1491 91 q 1567 231 1567 174 q 1540 304 1567 277 q 1470 331 1514 331 z "},"Â":{"ha":1027,"x_min":-16,"x_max":928,"o":"m 522 998 l 680 998 l 928 0 l 747 0 l 694 212 l 300 212 l 185 0 l -16 0 l 522 998 m 648 389 l 568 716 l 393 389 l 648 389 m 566 1265 l 714 1265 l 890 1074 l 688 1074 l 627 1162 l 538 1074 l 335 1074 l 566 1265 z "},"Ê":{"ha":722,"x_min":35,"x_max":736,"o":"m 166 998 l 708 998 l 685 821 l 332 821 l 304 614 l 658 614 l 635 439 l 281 439 l 246 174 l 602 174 l 578 0 l 35 0 l 166 998 m 413 1265 l 561 1265 l 736 1074 l 534 1074 l 473 1162 l 385 1074 l 182 1074 l 413 1265 z "},"Á":{"ha":1027,"x_min":-16,"x_max":928,"o":"m 522 998 l 680 998 l 928 0 l 747 0 l 694 212 l 300 212 l 185 0 l -16 0 l 522 998 m 648 389 l 568 716 l 393 389 l 648 389 m 680 1360 l 899 1360 l 614 1095 l 481 1095 l 680 1360 z "},"Ë":{"ha":722,"x_min":35,"x_max":708,"o":"m 166 998 l 708 998 l 685 821 l 332 821 l 304 614 l 658 614 l 635 439 l 281 439 l 246 174 l 602 174 l 578 0 l 35 0 l 166 998 m 302 1265 q 362 1241 338 1265 q 386 1184 386 1217 q 353 1104 386 1137 q 274 1071 321 1071 q 213 1094 236 1071 q 190 1156 190 1118 q 223 1232 190 1199 q 302 1265 257 1265 m 603 1265 q 662 1241 638 1265 q 686 1184 686 1217 q 654 1104 686 1137 q 574 1071 621 1071 q 513 1094 536 1071 q 490 1156 490 1118 q 524 1232 490 1199 q 603 1265 557 1265 z "},"È":{"ha":722,"x_min":35,"x_max":708,"o":"m 166 998 l 708 998 l 685 821 l 332 821 l 304 614 l 658 614 l 635 439 l 281 439 l 246 174 l 602 174 l 578 0 l 35 0 l 166 998 m 256 1360 l 475 1360 l 598 1095 l 466 1095 l 256 1360 z "},"Í":{"ha":389,"x_min":39,"x_max":572,"o":"m 174 998 l 357 998 l 219 0 l 39 0 l 174 998 m 353 1360 l 572 1360 l 286 1095 l 153 1095 l 353 1360 z "},"Î":{"ha":389,"x_min":7,"x_max":562,"o":"m 174 998 l 357 998 l 219 0 l 39 0 l 174 998 m 239 1265 l 387 1265 l 562 1074 l 360 1074 l 299 1162 l 211 1074 l 7 1074 l 239 1265 z "},"Ï":{"ha":389,"x_min":31,"x_max":528,"o":"m 174 998 l 357 998 l 219 0 l 39 0 l 174 998 m 144 1265 q 203 1241 179 1265 q 227 1184 227 1217 q 195 1104 227 1137 q 115 1071 162 1071 q 54 1094 77 1071 q 31 1156 31 1118 q 65 1232 31 1199 q 144 1265 98 1265 m 444 1265 q 504 1241 479 1265 q 528 1184 528 1217 q 495 1104 528 1137 q 416 1071 463 1071 q 355 1094 378 1071 q 332 1156 332 1118 q 365 1232 332 1199 q 444 1265 399 1265 z "},"Ì":{"ha":389,"x_min":39,"x_max":424,"o":"m 174 998 l 357 998 l 219 0 l 39 0 l 174 998 m 82 1360 l 300 1360 l 424 1095 l 292 1095 l 82 1360 z "},"Ó":{"ha":1166,"x_min":56,"x_max":1114,"o":"m 641 1023 q 980 890 846 1023 q 1114 555 1114 758 q 1035 261 1114 399 q 824 49 956 123 q 523 -25 693 -25 q 183 101 310 -25 q 56 433 56 227 q 208 836 56 667 q 641 1023 377 1023 m 634 846 q 438 794 527 846 q 296 645 350 742 q 241 444 241 547 q 317 235 241 321 q 533 150 392 150 q 811 265 696 150 q 925 545 925 380 q 845 764 925 682 q 634 846 764 846 m 749 1360 l 968 1360 l 683 1095 l 550 1095 l 749 1360 z "},"Ô":{"ha":1166,"x_min":56,"x_max":1114,"o":"m 641 1023 q 980 890 846 1023 q 1114 555 1114 758 q 1035 261 1114 399 q 824 49 956 123 q 523 -25 693 -25 q 183 101 310 -25 q 56 433 56 227 q 208 836 56 667 q 641 1023 377 1023 m 634 846 q 438 794 527 846 q 296 645 350 742 q 241 444 241 547 q 317 235 241 321 q 533 150 392 150 q 811 265 696 150 q 925 545 925 380 q 845 764 925 682 q 634 846 764 846 m 636 1265 l 784 1265 l 960 1074 l 758 1074 l 696 1162 l 608 1074 l 405 1074 l 636 1265 z "},"":{"ha":1097,"x_min":0,"x_max":0,"o":""},"Ò":{"ha":1166,"x_min":56,"x_max":1114,"o":"m 641 1023 q 980 890 846 1023 q 1114 555 1114 758 q 1035 261 1114 399 q 824 49 956 123 q 523 -25 693 -25 q 183 101 310 -25 q 56 433 56 227 q 208 836 56 667 q 641 1023 377 1023 m 634 846 q 438 794 527 846 q 296 645 350 742 q 241 444 241 547 q 317 235 241 321 q 533 150 392 150 q 811 265 696 150 q 925 545 925 380 q 845 764 925 682 q 634 846 764 846 m 479 1360 l 698 1360 l 821 1095 l 689 1095 l 479 1360 z "},"Ú":{"ha":889,"x_min":85,"x_max":854,"o":"m 176 998 l 363 998 l 280 382 q 269 268 269 301 q 304 180 269 212 q 406 149 339 149 q 499 172 459 149 q 547 231 529 190 q 582 394 565 272 l 665 998 l 854 998 l 772 402 q 707 138 747 218 q 589 17 666 58 q 401 -25 512 -25 q 169 54 252 -25 q 85 271 85 134 q 102 448 85 331 l 176 998 m 611 1360 l 830 1360 l 545 1095 l 412 1095 l 611 1360 z "},"Û":{"ha":889,"x_min":85,"x_max":854,"o":"m 176 998 l 363 998 l 280 382 q 269 268 269 301 q 304 180 269 212 q 406 149 339 149 q 499 172 459 149 q 547 231 529 190 q 582 394 565 272 l 665 998 l 854 998 l 772 402 q 707 138 747 218 q 589 17 666 58 q 401 -25 512 -25 q 169 54 252 -25 q 85 271 85 134 q 102 448 85 331 l 176 998 m 497 1265 l 645 1265 l 821 1074 l 618 1074 l 557 1162 l 469 1074 l 266 1074 l 497 1265 z "},"Ù":{"ha":889,"x_min":85,"x_max":854,"o":"m 176 998 l 363 998 l 280 382 q 269 268 269 301 q 304 180 269 212 q 406 149 339 149 q 499 172 459 149 q 547 231 529 190 q 582 394 565 272 l 665 998 l 854 998 l 772 402 q 707 138 747 218 q 589 17 666 58 q 401 -25 512 -25 q 169 54 252 -25 q 85 271 85 134 q 102 448 85 331 l 176 998 m 340 1360 l 559 1360 l 682 1095 l 550 1095 l 340 1360 z "},"ı":{"ha":333,"x_min":7,"x_max":286,"o":"m 107 738 l 286 738 l 187 0 l 7 0 l 107 738 z "},"ˆ":{"ha":750,"x_min":155,"x_max":710,"o":"m 387 1042 l 534 1042 l 710 850 l 508 850 l 447 939 l 359 850 l 155 850 l 387 1042 z "},"˜":{"ha":667,"x_min":110,"x_max":669,"o":"m 168 874 l 110 986 q 212 1038 170 1025 q 296 1052 254 1052 q 378 1038 328 1052 q 492 1015 459 1015 q 613 1050 549 1015 l 669 945 q 574 886 600 896 q 492 871 533 871 q 391 890 450 871 q 331 907 343 905 q 294 910 315 910 q 168 874 228 910 z "},"ˉ":{"ha":583,"x_min":221,"x_max":628,"o":"m 221 873 l 242 1023 l 628 1023 l 607 873 l 221 873 z "},"˘":{"ha":667,"x_min":121,"x_max":674,"o":"m 122 1063 l 272 1063 q 307 1024 283 1036 q 391 1007 340 1007 q 470 1021 437 1007 q 524 1063 504 1035 l 674 1063 q 570 924 648 975 q 372 873 492 873 q 184 925 247 873 q 122 1063 121 978 z "},"˙":{"ha":389,"x_min":153,"x_max":349,"o":"m 266 1042 q 325 1018 301 1042 q 349 961 349 994 q 317 881 349 914 q 237 848 284 848 q 176 871 199 848 q 153 932 153 895 q 187 1009 153 976 q 266 1042 220 1042 z "},"˚":{"ha":500,"x_min":174,"x_max":474,"o":"m 348 1174 q 438 1138 403 1174 q 474 1043 474 1102 q 422 924 474 976 q 302 871 370 871 q 211 909 247 871 q 174 1002 174 946 q 225 1123 174 1073 q 348 1174 277 1174 m 335 1087 q 288 1067 308 1087 q 268 1019 268 1046 q 281 981 268 996 q 316 967 295 967 q 361 987 341 967 q 380 1035 380 1008 q 367 1073 380 1058 q 335 1087 354 1087 z "},"¸":{"ha":472,"x_min":26,"x_max":365,"o":"m 180 9 l 294 9 l 282 -20 q 344 -56 323 -31 q 365 -111 365 -81 q 312 -214 365 -170 q 172 -259 260 -259 q 26 -227 99 -259 l 62 -140 q 156 -156 111 -156 q 212 -140 192 -156 q 232 -102 232 -125 q 221 -77 232 -85 q 178 -69 210 -69 l 144 -71 l 180 9 z "},"˝":{"ha":972,"x_min":346,"x_max":1067,"o":"m 545 1139 l 764 1139 l 479 873 l 346 873 l 545 1139 m 848 1139 l 1067 1139 l 782 873 l 648 873 l 848 1139 z "},"˛":{"ha":472,"x_min":89,"x_max":341,"o":"m 231 0 l 329 0 q 217 -121 217 -61 q 234 -160 217 -145 q 279 -175 252 -175 q 341 -157 302 -175 l 326 -264 q 237 -275 278 -275 q 126 -243 163 -275 q 89 -163 89 -212 q 125 -74 89 -118 q 231 0 161 -30 z "},"ˇ":{"ha":750,"x_min":168,"x_max":723,"o":"m 492 850 l 344 850 l 168 1042 l 370 1042 l 431 954 l 519 1042 l 723 1042 l 492 850 z "},"Ł":{"ha":611,"x_min":-22,"x_max":569,"o":"m 323 640 l 499 728 l 483 602 l 305 511 l 259 172 l 569 172 l 547 0 l 49 0 l 104 408 l -22 345 l -5 475 l 121 538 l 184 998 l 372 998 l 323 640 z "},"ł":{"ha":444,"x_min":-1,"x_max":448,"o":"m 330 631 l 448 697 l 431 565 l 312 499 l 245 0 l 65 0 l 117 391 l -1 326 l 18 455 l 134 521 l 201 1023 l 381 1023 l 330 631 z "},"Š":{"ha":722,"x_min":-10,"x_max":749,"o":"m 690 859 l 553 738 q 397 846 469 846 q 337 825 361 846 q 313 774 313 804 q 335 712 313 746 q 467 562 357 678 q 543 475 525 500 q 607 363 587 415 q 626 258 626 311 q 541 56 626 138 q 321 -25 455 -25 q -10 168 118 -25 l 134 284 q 321 152 220 152 q 402 183 370 152 q 435 258 435 214 q 415 329 435 293 q 301 465 395 365 q 170 623 201 570 q 128 766 128 696 q 189 931 128 858 q 393 1023 264 1023 q 690 859 570 1023 m 518 1074 l 370 1074 l 195 1265 l 397 1265 l 458 1177 l 546 1265 l 749 1265 l 518 1074 z "},"š":{"ha":611,"x_min":-19,"x_max":653,"o":"m 536 635 l 450 496 q 380 569 416 546 q 311 593 343 593 q 270 579 287 593 q 253 549 253 566 q 267 516 253 532 q 345 453 279 500 q 481 325 448 378 q 514 210 514 272 q 447 54 514 127 q 251 -19 379 -19 q 116 11 177 -19 q -19 120 56 41 l 93 250 q 259 150 169 150 q 316 167 295 150 q 338 208 338 184 q 321 247 338 227 q 233 319 305 267 q 117 421 149 378 q 72 547 72 481 q 142 699 72 640 q 308 757 212 757 q 435 725 375 757 q 536 635 496 693 m 422 850 l 274 850 l 98 1042 l 300 1042 l 361 954 l 450 1042 l 653 1042 l 422 850 z "},"Ž":{"ha":694,"x_min":12,"x_max":736,"o":"m 124 998 l 688 998 l 292 174 l 606 174 l 583 0 l 12 0 l 409 822 l 100 822 l 124 998 m 505 1074 l 357 1074 l 181 1265 l 383 1265 l 444 1177 l 532 1265 l 736 1265 l 505 1074 z "},"ž":{"ha":639,"x_min":-48,"x_max":667,"o":"m 59 738 l 644 738 l 266 167 l 612 167 l 589 0 l -48 0 l 328 569 l 37 569 l 59 738 m 436 850 l 288 850 l 113 1042 l 315 1042 l 376 954 l 464 1042 l 667 1042 l 436 850 z "},"¦":{"ha":833,"x_min":364,"x_max":471,"o":"m 364 505 l 364 1023 l 471 1023 l 471 542 l 364 505 m 364 -270 l 364 347 l 471 385 l 471 -270 l 364 -270 z "},"Ð":{"ha":1031,"x_min":71,"x_max":966,"o":"m 156 441 l 71 441 l 86 554 l 171 554 l 231 998 l 389 998 q 721 945 612 998 q 898 780 829 892 q 966 520 966 667 q 894 242 966 369 q 712 58 822 116 q 406 0 602 0 l 97 0 l 156 441 m 345 441 l 309 174 l 370 174 q 577 198 513 174 q 721 314 667 232 q 775 517 775 396 q 736 683 775 616 q 628 786 698 749 q 443 822 559 822 l 395 822 l 359 554 l 578 554 l 564 441 l 345 441 z "},"ð":{"ha":889,"x_min":39,"x_max":816,"o":"m 671 1023 l 706 923 l 606 892 q 760 661 704 789 q 816 414 816 532 q 695 105 816 229 q 397 -19 574 -19 q 140 82 240 -19 q 39 337 39 183 q 157 625 39 503 q 429 747 274 747 q 532 732 475 747 q 459 846 501 792 l 326 806 l 289 905 l 387 935 q 303 1023 347 979 l 466 1023 q 520 977 494 1001 l 671 1023 m 452 585 q 286 513 353 585 q 218 335 218 442 q 269 201 218 253 q 401 149 320 149 q 570 224 505 149 q 635 404 635 300 q 583 533 635 481 q 452 585 531 585 z "},"Ý":{"ha":861,"x_min":45,"x_max":888,"o":"m 45 998 l 234 998 l 390 598 l 673 998 l 888 998 l 463 399 l 409 0 l 222 0 l 277 399 l 45 998 m 596 1360 l 815 1360 l 530 1095 l 397 1095 l 596 1360 z "},"ý":{"ha":806,"x_min":28,"x_max":800,"o":"m 31 738 l 208 738 l 352 300 l 604 738 l 800 738 l 220 -270 l 28 -270 l 238 100 l 31 738 m 528 1137 l 747 1137 l 462 872 l 329 872 l 528 1137 z "},"Þ":{"ha":778,"x_min":48,"x_max":723,"o":"m 182 998 l 370 998 l 344 787 q 532 768 477 785 q 670 677 618 742 q 723 518 723 612 q 674 354 723 428 q 542 247 625 281 q 266 210 459 214 l 236 0 l 48 0 l 182 998 m 289 387 q 489 418 442 387 q 536 512 536 450 q 517 570 536 547 q 463 604 498 594 q 321 613 427 613 l 289 387 z "},"þ":{"ha":917,"x_min":-6,"x_max":839,"o":"m 175 -270 l -6 -270 l 163 1023 l 345 1023 l 294 659 q 405 735 353 714 q 519 757 456 757 q 753 649 667 757 q 839 399 839 541 q 784 191 839 290 q 636 36 729 92 q 444 -19 544 -19 q 318 12 376 -19 q 224 103 260 43 l 175 -270 m 477 596 q 362 566 412 596 q 278 472 312 536 q 245 342 245 408 q 295 201 245 254 q 429 148 346 148 q 592 219 525 148 q 659 403 659 290 q 608 543 659 490 q 477 596 557 596 z "},"−":{"ha":833,"x_min":78,"x_max":755,"o":"m 78 583 l 755 583 l 755 414 l 78 414 l 78 583 z "},"×":{"ha":833,"x_min":102,"x_max":732,"o":"m 417 399 l 202 184 l 102 284 l 317 499 l 102 714 l 202 814 l 417 600 l 631 814 l 732 714 l 517 499 l 732 284 l 631 184 l 417 399 z "},"¹":{"ha":467,"x_min":154,"x_max":386,"o":"m 197 1010 l 386 1010 l 303 497 l 179 497 l 244 905 l 154 905 l 197 1010 z "},"²":{"ha":467,"x_min":39,"x_max":458,"o":"m 212 840 l 90 840 q 144 974 93 926 q 280 1023 195 1023 q 409 979 359 1023 q 458 875 458 936 q 424 775 458 827 q 252 601 391 724 l 435 601 l 419 497 l 39 497 l 51 577 q 305 810 260 755 q 334 875 334 846 q 318 906 334 892 q 279 919 303 919 q 236 902 252 919 q 212 840 220 886 z "},"³":{"ha":467,"x_min":51,"x_max":458,"o":"m 233 872 l 115 872 q 173 983 124 943 q 296 1023 221 1023 q 413 983 368 1023 q 458 889 458 943 q 378 772 458 820 q 447 658 447 728 q 387 537 447 589 q 236 485 327 485 q 137 508 180 485 q 73 570 94 532 q 51 667 51 608 l 170 667 q 245 589 176 589 q 301 610 279 589 q 323 663 323 631 q 299 708 323 690 q 212 728 275 726 l 229 823 q 307 841 283 823 q 332 882 332 858 q 319 908 332 898 q 286 918 307 918 q 233 872 240 918 z "},"½":{"ha":1166,"x_min":159,"x_max":1120,"o":"m 202 1010 l 391 1010 l 309 497 l 184 497 l 250 905 l 159 905 l 202 1010 m 184 -25 l 854 1023 l 970 1023 l 300 -25 l 184 -25 m 874 343 l 751 343 q 806 477 755 429 q 942 526 857 526 q 1070 482 1021 526 q 1120 378 1120 439 q 1086 278 1120 330 q 914 104 1053 227 l 1097 104 l 1081 0 l 701 0 l 713 80 q 967 313 922 258 q 996 378 996 349 q 980 409 996 395 q 941 422 965 422 q 898 405 914 422 q 874 343 882 389 z "},"¼":{"ha":1166,"x_min":159,"x_max":1131,"o":"m 202 1010 l 391 1010 l 309 497 l 184 497 l 250 905 l 159 905 l 202 1010 m 201 -25 l 871 1023 l 987 1023 l 317 -25 l 201 -25 m 1013 526 l 1127 526 l 1075 195 l 1131 195 l 1115 95 l 1059 95 l 1044 0 l 932 0 l 947 95 l 692 95 l 707 190 l 1013 526 m 985 359 l 839 195 l 962 195 l 985 359 z "},"¾":{"ha":1166,"x_min":56,"x_max":1130,"o":"m 238 872 l 120 872 q 178 983 130 943 q 301 1023 227 1023 q 418 983 373 1023 q 464 889 464 943 q 383 772 464 820 q 452 658 452 728 q 392 537 452 589 q 241 485 332 485 q 142 508 185 485 q 78 570 100 532 q 56 667 56 608 l 176 667 q 251 589 181 589 q 307 610 285 589 q 328 663 328 631 q 304 708 328 690 q 218 728 280 726 l 234 823 q 313 841 288 823 q 337 882 337 858 q 325 908 337 898 q 291 918 312 918 q 238 872 245 918 m 224 -25 l 895 1023 l 1010 1023 l 340 -25 l 224 -25 m 1013 526 l 1126 526 l 1074 195 l 1130 195 l 1114 95 l 1059 95 l 1044 0 l 931 0 l 946 95 l 691 95 l 706 190 l 1013 526 m 985 359 l 838 195 l 961 195 l 985 359 z "},"₣":{"ha":667,"x_min":0,"x_max":659,"o":"m 260 277 l 414 277 l 400 162 l 246 162 l 224 0 l 37 0 l 58 162 l 0 162 l 14 277 l 73 277 l 168 998 l 659 998 l 636 821 l 333 821 l 305 614 l 609 614 l 587 439 l 282 439 l 260 277 z "},"Ğ":{"ha":1166,"x_min":59,"x_max":1075,"o":"m 1045 812 l 889 711 q 758 818 821 788 q 615 848 695 848 q 334 709 442 848 q 248 464 248 599 q 336 241 248 331 q 554 151 425 151 q 729 197 650 151 q 859 336 808 243 l 547 336 l 570 513 l 1075 513 q 920 120 1064 266 q 553 -25 776 -25 q 171 143 310 -25 q 59 465 59 278 q 223 857 59 692 q 613 1023 387 1023 q 777 998 697 1023 q 922 930 857 974 q 1045 812 986 886 m 372 1264 l 522 1264 q 556 1225 533 1237 q 640 1208 590 1208 q 720 1222 686 1208 q 774 1264 753 1236 l 924 1264 q 820 1125 897 1177 q 622 1074 742 1074 q 434 1127 496 1074 q 372 1264 371 1179 z "},"ğ":{"ha":917,"x_min":21,"x_max":848,"o":"m 667 738 l 848 738 l 768 147 q 719 -85 744 -28 q 587 -231 680 -173 q 353 -289 494 -289 q 150 -244 237 -289 q 21 -127 64 -199 l 176 -46 q 358 -120 246 -120 q 471 -96 423 -120 q 545 -32 518 -73 q 582 87 571 8 q 359 0 484 0 q 198 44 272 0 q 83 167 125 87 q 41 343 41 246 q 96 548 41 452 q 245 701 151 644 q 443 757 340 757 q 556 732 505 757 q 656 650 607 708 l 667 738 m 452 586 q 287 517 354 586 q 219 347 219 448 q 269 215 219 264 q 404 165 319 165 q 520 196 467 165 q 605 283 574 227 q 636 406 636 340 q 585 535 636 484 q 452 586 533 586 m 247 1063 l 397 1063 q 431 1024 408 1036 q 515 1007 465 1007 q 595 1021 562 1007 q 649 1063 629 1035 l 799 1063 q 695 924 772 975 q 497 873 617 873 q 309 925 372 873 q 247 1063 246 978 z "},"İ":{"ha":389,"x_min":39,"x_max":382,"o":"m 174 998 l 357 998 l 219 0 l 39 0 l 174 998 m 299 1243 q 358 1219 334 1243 q 382 1162 382 1196 q 350 1082 382 1116 q 271 1049 317 1049 q 210 1073 233 1049 q 186 1134 186 1096 q 220 1210 186 1177 q 299 1243 254 1243 z "},"Ş":{"ha":722,"x_min":-10,"x_max":690,"o":"m 690 859 l 553 738 q 397 846 469 846 q 337 825 361 846 q 313 774 313 804 q 335 712 313 746 q 467 562 357 678 q 543 475 525 500 q 607 363 587 415 q 626 258 626 311 q 541 56 626 138 q 321 -25 455 -25 q -10 168 118 -25 l 134 284 q 321 152 220 152 q 402 183 370 152 q 435 258 435 214 q 415 329 435 293 q 301 465 395 365 q 170 623 201 570 q 128 766 128 696 q 189 931 128 858 q 393 1023 264 1023 q 690 859 570 1023 m 263 9 l 378 9 l 366 -20 q 427 -56 406 -31 q 448 -111 448 -81 q 396 -214 448 -170 q 256 -259 343 -259 q 109 -227 182 -259 l 146 -140 q 239 -156 194 -156 q 295 -140 275 -156 q 315 -102 315 -125 q 304 -77 315 -85 q 262 -69 293 -69 l 227 -71 l 263 9 z "},"ş":{"ha":611,"x_min":-19,"x_max":536,"o":"m 536 635 l 450 496 q 380 569 416 546 q 311 593 343 593 q 270 579 287 593 q 253 549 253 566 q 267 516 253 532 q 345 453 279 500 q 481 325 448 378 q 514 210 514 272 q 447 54 514 127 q 251 -19 379 -19 q 116 11 177 -19 q -19 120 56 41 l 93 250 q 259 150 169 150 q 316 167 295 150 q 338 208 338 184 q 321 247 338 227 q 233 319 305 267 q 117 421 149 378 q 72 547 72 481 q 142 699 72 640 q 308 757 212 757 q 435 725 375 757 q 536 635 496 693 m 184 9 l 298 9 l 286 -20 q 348 -56 327 -31 q 369 -111 369 -81 q 316 -214 369 -170 q 176 -259 264 -259 q 30 -227 103 -259 l 66 -140 q 160 -156 115 -156 q 216 -140 196 -156 q 236 -102 236 -125 q 225 -77 236 -85 q 182 -69 214 -69 l 148 -71 l 184 9 z "},"Ć":{"ha":1083,"x_min":59,"x_max":1034,"o":"m 1034 869 l 897 743 q 789 821 853 793 q 651 848 726 848 q 451 795 547 848 q 302 653 355 741 q 249 465 249 565 q 342 240 249 330 q 583 150 436 150 q 854 241 739 150 l 964 95 q 570 -25 794 -25 q 303 35 413 -25 q 126 210 193 94 q 59 460 59 326 q 138 738 59 605 q 352 946 217 870 q 646 1023 487 1023 q 1034 869 870 1023 m 716 1339 l 935 1339 l 650 1074 l 517 1074 l 716 1339 z "},"ć":{"ha":889,"x_min":41,"x_max":805,"o":"m 805 585 l 652 502 q 477 585 587 585 q 346 553 403 585 q 255 462 289 522 q 221 336 221 402 q 275 199 221 250 q 422 147 328 147 q 621 235 551 147 l 763 134 q 613 22 703 62 q 412 -19 523 -19 q 141 76 240 -19 q 41 327 41 171 q 164 631 41 505 q 480 757 287 757 q 805 585 698 757 m 570 1137 l 789 1137 l 503 872 l 370 872 l 570 1137 z "},"Č":{"ha":1083,"x_min":59,"x_max":1034,"o":"m 1034 869 l 897 743 q 789 821 853 793 q 651 848 726 848 q 451 795 547 848 q 302 653 355 741 q 249 465 249 565 q 342 240 249 330 q 583 150 436 150 q 854 241 739 150 l 964 95 q 570 -25 794 -25 q 303 35 413 -25 q 126 210 193 94 q 59 460 59 326 q 138 738 59 605 q 352 946 217 870 q 646 1023 487 1023 q 1034 869 870 1023 m 724 1074 l 576 1074 l 400 1265 l 602 1265 l 663 1177 l 751 1265 l 955 1265 l 724 1074 z "},"č":{"ha":889,"x_min":41,"x_max":805,"o":"m 805 585 l 652 502 q 477 585 587 585 q 346 553 403 585 q 255 462 289 522 q 221 336 221 402 q 275 199 221 250 q 422 147 328 147 q 621 235 551 147 l 763 134 q 613 22 703 62 q 412 -19 523 -19 q 141 76 240 -19 q 41 327 41 171 q 164 631 41 505 q 480 757 287 757 q 805 585 698 757 m 561 850 l 413 850 l 237 1042 l 439 1042 l 500 954 l 589 1042 l 792 1042 l 561 850 z "},"đ":{"ha":917,"x_min":39,"x_max":998,"o":"m 876 943 l 998 943 l 985 836 l 861 836 l 752 0 l 573 0 l 583 79 q 473 3 524 24 q 358 -19 422 -19 q 125 89 212 -19 q 39 340 39 197 q 94 548 39 449 q 241 702 149 646 q 435 757 334 757 q 560 726 503 757 q 654 635 617 694 l 680 836 l 448 836 l 460 943 l 694 943 l 705 1023 l 886 1023 l 876 943 m 400 142 q 516 172 467 142 q 599 266 566 202 q 633 396 633 330 q 582 537 633 484 q 449 590 532 590 q 286 519 353 590 q 218 335 218 448 q 269 195 218 248 q 400 142 320 142 z "},"¯":{"ha":694,"x_min":70,"x_max":781,"o":"m 70 1143 l 781 1143 l 781 1074 l 70 1074 l 70 1143 z "},"·":{"ha":463,"x_min":371,"x_max":567,"o":"m 484 593 q 543 569 519 593 q 567 512 567 545 q 534 432 567 465 q 455 399 502 399 q 394 422 417 399 q 371 484 371 446 q 405 560 371 527 q 484 593 438 593 z "},"":{"ha":467,"x_min":30,"x_max":469,"o":"m 351 1023 l 465 1023 l 413 692 l 469 692 l 453 592 l 397 592 l 382 497 l 270 497 l 285 592 l 30 592 l 45 687 l 351 1023 m 323 856 l 177 692 l 300 692 l 323 856 z "},"Ă":{"ha":1027,"x_min":-16,"x_max":937,"o":"m 522 998 l 680 998 l 928 0 l 747 0 l 694 212 l 300 212 l 185 0 l -16 0 l 522 998 m 648 389 l 568 716 l 393 389 l 648 389 m 385 1286 l 535 1286 q 570 1247 547 1259 q 654 1230 604 1230 q 733 1244 700 1230 q 787 1286 767 1258 l 937 1286 q 833 1147 911 1198 q 635 1096 755 1096 q 447 1148 510 1096 q 385 1286 385 1201 z "},"ă":{"ha":917,"x_min":39,"x_max":848,"o":"m 667 738 l 848 738 l 752 0 l 573 0 l 583 79 q 473 3 524 24 q 358 -19 422 -19 q 125 89 212 -19 q 39 340 39 197 q 94 548 39 449 q 241 702 149 646 q 435 757 334 757 q 560 726 503 757 q 654 635 617 694 l 667 738 m 400 142 q 516 172 467 142 q 599 266 566 202 q 633 396 633 330 q 582 537 633 484 q 449 590 532 590 q 286 519 353 590 q 218 335 218 448 q 269 195 218 248 q 400 142 320 142 m 247 1063 l 397 1063 q 431 1024 408 1036 q 515 1007 465 1007 q 595 1021 562 1007 q 649 1063 629 1035 l 799 1063 q 695 924 772 975 q 497 873 617 873 q 309 925 372 873 q 247 1063 246 978 z "},"Ą":{"ha":1027,"x_min":-16,"x_max":951,"o":"m 522 998 l 680 998 l 928 0 l 747 0 l 694 212 l 300 212 l 185 0 l -16 0 l 522 998 m 648 389 l 568 716 l 393 389 l 648 389 m 842 0 l 939 0 q 827 -121 827 -61 q 845 -160 827 -145 q 890 -175 862 -175 q 951 -157 913 -175 l 937 -264 q 848 -275 888 -275 q 736 -243 773 -275 q 699 -163 699 -212 q 735 -74 699 -118 q 842 0 771 -30 z "},"ą":{"ha":917,"x_min":39,"x_max":848,"o":"m 667 738 l 848 738 l 752 0 l 573 0 l 583 79 q 473 3 524 24 q 358 -19 422 -19 q 125 89 212 -19 q 39 340 39 197 q 94 548 39 449 q 241 702 149 646 q 435 757 334 757 q 560 726 503 757 q 654 635 617 694 l 667 738 m 400 142 q 516 172 467 142 q 599 266 566 202 q 633 396 633 330 q 582 537 633 484 q 449 590 532 590 q 286 519 353 590 q 218 335 218 448 q 269 195 218 248 q 400 142 320 142 m 638 0 l 736 0 q 624 -121 624 -61 q 641 -160 624 -145 q 686 -175 659 -175 q 748 -157 709 -175 l 733 -264 q 644 -275 685 -275 q 533 -243 570 -275 q 496 -163 496 -212 q 532 -74 496 -118 q 638 0 568 -30 z "},"Ď":{"ha":972,"x_min":47,"x_max":917,"o":"m 181 998 l 340 998 q 672 945 563 998 q 849 780 781 892 q 917 520 917 667 q 845 242 917 369 q 663 58 772 116 q 357 0 553 0 l 47 0 l 181 998 m 346 822 l 260 174 l 321 174 q 528 198 464 174 q 671 314 617 232 q 726 517 726 396 q 687 683 726 616 q 579 786 649 749 q 393 822 509 822 l 346 822 m 593 1074 l 446 1074 l 270 1265 l 472 1265 l 533 1177 l 621 1265 l 825 1265 l 593 1074 z "},"ď":{"ha":982,"x_min":39,"x_max":1081,"o":"m 705 1023 l 886 1023 l 752 0 l 573 0 l 583 79 q 358 -19 484 -19 q 125 89 211 -19 q 39 340 39 197 q 157 633 39 509 q 435 757 275 757 q 654 635 578 757 l 705 1023 m 400 142 q 571 221 509 142 q 633 396 633 300 q 584 535 633 479 q 449 590 535 590 q 286 519 353 590 q 218 335 218 448 q 267 197 218 252 q 400 142 316 142 m 937 1023 l 1081 1023 l 1072 951 q 1042 833 1063 891 q 953 701 1021 775 l 903 744 q 970 858 954 809 l 912 858 l 937 1023 z "},"Đ":{"ha":1031,"x_min":71,"x_max":966,"o":"m 156 441 l 71 441 l 86 554 l 171 554 l 231 998 l 389 998 q 721 945 612 998 q 898 780 829 892 q 966 520 966 667 q 894 242 966 369 q 712 58 822 116 q 406 0 602 0 l 97 0 l 156 441 m 345 441 l 309 174 l 370 174 q 577 198 513 174 q 721 314 667 232 q 775 517 775 396 q 736 683 775 616 q 628 786 698 749 q 443 822 559 822 l 395 822 l 359 554 l 578 554 l 564 441 l 345 441 z "},"Ę":{"ha":722,"x_min":35,"x_max":708,"o":"m 166 998 l 708 998 l 685 821 l 332 821 l 304 614 l 658 614 l 635 439 l 281 439 l 246 174 l 602 174 l 578 0 l 35 0 l 166 998 m 435 0 l 532 0 q 420 -121 420 -61 q 438 -160 420 -145 q 483 -175 455 -175 q 545 -157 506 -175 l 530 -264 q 441 -275 481 -275 q 329 -243 366 -275 q 292 -163 292 -212 q 328 -74 292 -118 q 435 0 364 -30 z "},"ę":{"ha":889,"x_min":41,"x_max":817,"o":"m 584 216 l 743 134 q 601 22 690 63 q 405 -19 513 -19 q 139 76 236 -19 q 41 328 41 171 q 163 632 41 508 q 457 757 285 757 q 642 711 561 757 q 770 579 723 666 q 817 391 817 492 q 810 316 817 359 l 221 316 q 272 194 224 239 q 404 149 319 149 q 584 216 505 149 m 630 449 q 562 552 610 517 q 448 587 515 587 q 328 551 381 587 q 246 449 274 515 l 630 449 m 435 0 l 532 0 q 420 -121 420 -61 q 438 -160 420 -145 q 483 -175 455 -175 q 545 -157 506 -175 l 530 -264 q 441 -275 481 -275 q 329 -243 366 -275 q 292 -163 292 -212 q 328 -74 292 -118 q 435 0 364 -30 z "},"Ě":{"ha":722,"x_min":35,"x_max":749,"o":"m 166 998 l 708 998 l 685 821 l 332 821 l 304 614 l 658 614 l 635 439 l 281 439 l 246 174 l 602 174 l 578 0 l 35 0 l 166 998 m 518 1074 l 370 1074 l 195 1265 l 397 1265 l 458 1177 l 546 1265 l 749 1265 l 518 1074 z "},"ě":{"ha":889,"x_min":41,"x_max":817,"o":"m 584 216 l 743 134 q 601 22 690 63 q 405 -19 513 -19 q 139 76 236 -19 q 41 328 41 171 q 163 632 41 508 q 457 757 285 757 q 642 711 561 757 q 770 579 723 666 q 817 391 817 492 q 810 316 817 359 l 221 316 q 272 194 224 239 q 404 149 319 149 q 584 216 505 149 m 630 449 q 562 552 610 517 q 448 587 515 587 q 328 551 381 587 q 246 449 274 515 l 630 449 m 561 850 l 413 850 l 237 1042 l 439 1042 l 500 954 l 589 1042 l 792 1042 l 561 850 z "},"Ĳ":{"ha":1055,"x_min":39,"x_max":1013,"o":"m 174 998 l 357 998 l 219 0 l 39 0 l 174 998 m 825 998 l 1013 998 l 918 294 q 875 105 902 170 q 789 7 848 39 q 662 -25 730 -25 q 485 31 565 -25 q 357 178 405 87 l 506 269 q 652 153 581 153 q 704 180 688 153 q 728 283 720 208 l 825 998 z "},"ĳ":{"ha":694,"x_min":7,"x_max":682,"o":"m 220 1040 q 299 1007 266 1040 q 332 928 332 975 q 299 849 332 882 q 220 816 266 816 q 140 849 173 816 q 108 928 108 882 q 141 1007 108 974 q 220 1040 174 1040 m 570 1040 q 649 1007 616 1040 q 682 928 682 975 q 649 849 682 882 q 570 816 616 816 q 490 849 523 816 q 457 928 457 882 q 490 1007 457 975 q 570 1040 524 1040 m 107 738 l 286 738 l 187 0 l 7 0 l 107 738 m 454 738 l 634 738 l 546 85 q 499 -154 523 -89 q 426 -254 475 -218 q 312 -289 377 -289 q 201 -262 262 -289 l 222 -100 q 279 -119 252 -119 q 330 -84 312 -119 q 363 61 349 -49 l 454 738 z "},"Ĺ":{"ha":611,"x_min":49,"x_max":616,"o":"m 184 998 l 372 998 l 259 172 l 569 172 l 547 0 l 49 0 l 184 998 m 397 1360 l 616 1360 l 330 1095 l 197 1095 l 397 1360 z "},"ĺ":{"ha":333,"x_min":9,"x_max":585,"o":"m 145 1023 l 326 1023 l 190 0 l 9 0 l 145 1023 m 366 1360 l 585 1360 l 300 1095 l 167 1095 l 366 1360 z "},"Ľ":{"ha":611,"x_min":49,"x_max":625,"o":"m 184 998 l 372 998 l 259 172 l 569 172 l 547 0 l 49 0 l 184 998 m 455 998 l 625 998 l 614 913 q 580 777 605 846 q 475 618 555 708 l 416 669 q 495 803 475 745 l 427 803 l 455 998 z "},"ľ":{"ha":401,"x_min":9,"x_max":520,"o":"m 144 1023 l 325 1023 l 189 0 l 9 0 l 144 1023 m 376 1023 l 520 1023 l 511 951 q 481 833 503 891 q 392 701 460 775 l 342 744 q 410 858 393 809 l 351 858 l 376 1023 z "},"Ŀ":{"ha":611,"x_min":49,"x_max":569,"o":"m 184 998 l 372 998 l 259 172 l 569 172 l 547 0 l 49 0 l 184 998 m 484 593 q 543 569 519 593 q 567 512 567 545 q 534 432 567 465 q 455 399 502 399 q 394 422 417 399 q 371 484 371 446 q 405 560 371 527 q 484 593 438 593 z "},"ŀ":{"ha":476,"x_min":9,"x_max":482,"o":"m 145 1023 l 326 1023 l 190 0 l 9 0 l 145 1023 m 399 593 q 458 569 434 593 q 482 512 482 545 q 450 432 482 465 q 370 399 417 399 q 309 422 332 399 q 286 484 286 446 q 320 560 286 527 q 399 593 353 593 z "},"Ń":{"ha":1027,"x_min":48,"x_max":980,"o":"m 180 998 l 345 998 l 706 319 l 798 998 l 980 998 l 846 0 l 686 0 l 319 686 l 228 0 l 48 0 l 180 998 m 683 1360 l 902 1360 l 616 1095 l 484 1095 l 683 1360 z "},"ń":{"ha":833,"x_min":31,"x_max":772,"o":"m 131 738 l 311 738 l 300 663 q 516 757 404 757 q 673 696 612 757 q 734 543 734 635 q 722 414 734 500 l 667 0 l 488 0 l 541 404 q 549 497 549 466 q 524 566 549 542 q 452 590 498 590 q 361 558 406 590 q 291 471 315 527 q 246 261 267 415 l 212 0 l 31 0 l 131 738 m 553 1137 l 772 1137 l 486 872 l 353 872 l 553 1137 z "},"Ň":{"ha":1027,"x_min":48,"x_max":980,"o":"m 180 998 l 345 998 l 706 319 l 798 998 l 980 998 l 846 0 l 686 0 l 319 686 l 228 0 l 48 0 l 180 998 m 669 1074 l 522 1074 l 346 1265 l 548 1265 l 609 1177 l 697 1265 l 901 1265 l 669 1074 z "},"ň":{"ha":833,"x_min":31,"x_max":791,"o":"m 131 738 l 311 738 l 300 663 q 516 757 404 757 q 673 696 612 757 q 734 543 734 635 q 722 414 734 500 l 667 0 l 488 0 l 541 404 q 549 497 549 466 q 524 566 549 542 q 452 590 498 590 q 361 558 406 590 q 291 471 315 527 q 246 261 267 415 l 212 0 l 31 0 l 131 738 m 559 850 l 412 850 l 236 1042 l 438 1042 l 499 954 l 587 1042 l 791 1042 l 559 850 z "},"ŉ":{"ha":878,"x_min":-16,"x_max":778,"o":"m 175 738 l 355 738 l 345 663 q 560 757 448 757 q 717 696 656 757 q 778 543 778 635 q 766 414 778 500 l 711 0 l 532 0 l 585 404 q 593 497 593 466 q 568 566 593 542 q 496 590 543 590 q 405 558 450 590 q 335 471 359 527 q 290 261 311 415 l 256 0 l 75 0 l 175 738 m 22 1023 l 193 1023 l 181 938 q 142 788 170 848 q 42 644 115 728 l -16 694 q 62 829 41 769 l -5 829 l 22 1023 z "},"Ő":{"ha":1166,"x_min":56,"x_max":1185,"o":"m 641 1023 q 980 890 846 1023 q 1114 555 1114 758 q 1035 261 1114 399 q 824 49 956 123 q 523 -25 693 -25 q 183 101 310 -25 q 56 433 56 227 q 208 836 56 667 q 641 1023 377 1023 m 634 846 q 438 794 527 846 q 296 645 350 742 q 241 444 241 547 q 317 235 241 321 q 533 150 392 150 q 811 265 696 150 q 925 545 925 380 q 845 764 925 682 q 634 846 764 846 m 664 1362 l 883 1362 l 597 1096 l 465 1096 l 664 1362 m 966 1362 l 1185 1362 l 901 1096 l 767 1096 l 966 1362 z "},"ő":{"ha":889,"x_min":41,"x_max":965,"o":"m 464 757 q 643 711 562 757 q 768 583 723 666 q 812 395 812 499 q 690 102 812 223 q 386 -19 567 -19 q 135 76 229 -19 q 41 326 41 172 q 168 634 41 511 q 464 757 295 757 m 451 585 q 280 506 340 585 q 221 333 221 426 q 270 200 221 250 q 399 149 318 149 q 573 226 513 149 q 633 402 633 303 q 583 534 633 484 q 451 585 532 585 m 444 1139 l 663 1139 l 377 873 l 244 873 l 444 1139 m 746 1139 l 965 1139 l 680 873 l 547 873 l 746 1139 z "},"Ŕ":{"ha":806,"x_min":58,"x_max":758,"o":"m 191 998 l 365 998 q 592 970 526 998 q 716 874 674 935 q 758 728 758 812 q 696 550 758 625 q 509 447 634 476 l 727 0 l 533 0 l 320 435 l 302 435 l 245 0 l 58 0 l 191 998 m 324 599 q 525 630 478 600 q 571 723 571 661 q 552 782 571 758 q 498 815 534 806 q 355 825 463 825 l 324 599 m 527 1360 l 746 1360 l 460 1095 l 328 1095 l 527 1360 z "},"ŕ":{"ha":444,"x_min":-11,"x_max":602,"o":"m 85 738 l 247 738 l 234 637 q 408 757 307 757 q 459 744 433 757 l 394 581 q 364 587 374 587 q 271 525 312 587 q 206 277 230 464 l 171 0 l -11 0 l 85 738 m 383 1137 l 602 1137 l 317 872 l 184 872 l 383 1137 z "},"Ř":{"ha":806,"x_min":58,"x_max":791,"o":"m 191 998 l 365 998 q 592 970 526 998 q 716 874 674 935 q 758 728 758 812 q 696 550 758 625 q 509 447 634 476 l 727 0 l 533 0 l 320 435 l 302 435 l 245 0 l 58 0 l 191 998 m 324 599 q 525 630 478 600 q 571 723 571 661 q 552 782 571 758 q 498 815 534 806 q 355 825 463 825 l 324 599 m 559 1074 l 412 1074 l 236 1265 l 438 1265 l 499 1177 l 587 1265 l 791 1265 l 559 1074 z "},"ř":{"ha":444,"x_min":-11,"x_max":614,"o":"m 85 738 l 247 738 l 234 637 q 408 757 307 757 q 459 744 433 757 l 394 581 q 364 587 374 587 q 271 525 312 587 q 206 277 230 464 l 171 0 l -11 0 l 85 738 m 383 850 l 235 850 l 60 1042 l 262 1042 l 323 954 l 411 1042 l 614 1042 l 383 850 z "},"Ś":{"ha":722,"x_min":-10,"x_max":746,"o":"m 690 859 l 553 738 q 397 846 469 846 q 337 825 361 846 q 313 774 313 804 q 335 712 313 746 q 467 562 357 678 q 543 475 525 500 q 607 363 587 415 q 626 258 626 311 q 541 56 626 138 q 321 -25 455 -25 q -10 168 118 -25 l 134 284 q 321 152 220 152 q 402 183 370 152 q 435 258 435 214 q 415 329 435 293 q 301 465 395 365 q 170 623 201 570 q 128 766 128 696 q 189 931 128 858 q 393 1023 264 1023 q 690 859 570 1023 m 527 1360 l 746 1360 l 460 1095 l 328 1095 l 527 1360 z "},"ś":{"ha":611,"x_min":-19,"x_max":619,"o":"m 536 635 l 450 496 q 380 569 416 546 q 311 593 343 593 q 270 579 287 593 q 253 549 253 566 q 267 516 253 532 q 345 453 279 500 q 481 325 448 378 q 514 210 514 272 q 447 54 514 127 q 251 -19 379 -19 q 116 11 177 -19 q -19 120 56 41 l 93 250 q 259 150 169 150 q 316 167 295 150 q 338 208 338 184 q 321 247 338 227 q 233 319 305 267 q 117 421 149 378 q 72 547 72 481 q 142 699 72 640 q 308 757 212 757 q 435 725 375 757 q 536 635 496 693 m 400 1137 l 619 1137 l 334 872 l 201 872 l 400 1137 z "},"Ţ":{"ha":583,"x_min":31,"x_max":663,"o":"m 54 998 l 663 998 l 641 820 l 429 820 l 321 0 l 135 0 l 243 820 l 31 820 l 54 998 m 162 -82 l 283 -82 l 281 -102 q 252 -221 269 -189 q 187 -290 235 -254 l 157 -254 q 206 -194 191 -228 l 146 -194 l 162 -82 z "},"ţ":{"ha":416,"x_min":21,"x_max":426,"o":"m 169 1012 l 349 1012 l 311 738 l 426 738 l 404 582 l 290 582 l 211 0 l 30 0 l 110 582 l 21 582 l 42 738 l 131 738 l 169 1012 m 56 -82 l 178 -82 l 175 -102 q 146 -221 163 -189 q 81 -290 129 -254 l 51 -254 q 100 -194 85 -228 l 40 -194 l 56 -82 z "},"Ť":{"ha":583,"x_min":31,"x_max":663,"o":"m 54 998 l 663 998 l 641 820 l 429 820 l 321 0 l 135 0 l 243 820 l 31 820 l 54 998 m 424 1074 l 276 1074 l 100 1265 l 302 1265 l 363 1177 l 452 1265 l 655 1265 l 424 1074 z "},"ť":{"ha":503,"x_min":21,"x_max":602,"o":"m 458 1023 l 602 1023 l 599 1001 q 564 870 587 924 q 486 757 541 817 l 435 800 q 497 908 481 859 l 439 908 l 458 1023 m 169 1012 l 349 1012 l 311 738 l 426 738 l 404 582 l 290 582 l 211 0 l 30 0 l 110 582 l 21 582 l 42 738 l 131 738 l 169 1012 z "},"Ů":{"ha":889,"x_min":85,"x_max":854,"o":"m 176 998 l 363 998 l 280 382 q 269 268 269 301 q 304 180 269 212 q 406 149 339 149 q 499 172 459 149 q 547 231 529 190 q 582 394 565 272 l 665 998 l 854 998 l 772 402 q 707 138 747 218 q 589 17 666 58 q 401 -25 512 -25 q 169 54 252 -25 q 85 271 85 134 q 102 448 85 331 l 176 998 m 538 1397 q 629 1361 593 1397 q 665 1266 665 1325 q 612 1147 665 1199 q 493 1095 560 1095 q 401 1132 437 1095 q 365 1225 365 1169 q 416 1347 365 1296 q 538 1397 467 1397 m 526 1310 q 478 1290 498 1310 q 458 1242 458 1270 q 472 1204 458 1219 q 507 1190 486 1190 q 551 1211 532 1190 q 571 1258 571 1231 q 558 1296 571 1281 q 526 1310 545 1310 z "},"ů":{"ha":833,"x_min":76,"x_max":768,"o":"m 132 738 l 311 738 l 262 361 q 254 267 254 298 q 288 185 254 218 q 376 152 321 152 q 483 195 446 152 q 538 368 521 237 l 589 738 l 768 738 l 715 341 q 653 133 696 207 q 539 20 610 60 q 372 -19 468 -19 q 156 59 236 -19 q 76 262 76 138 q 93 457 76 338 l 132 738 m 467 1174 q 557 1138 522 1174 q 593 1043 593 1102 q 541 924 593 976 q 421 871 488 871 q 329 909 366 871 q 293 1002 293 946 q 344 1123 293 1073 q 467 1174 395 1174 m 454 1087 q 407 1067 427 1087 q 387 1019 387 1046 q 400 981 387 996 q 435 967 414 967 q 479 987 460 967 q 499 1035 499 1008 q 486 1073 499 1058 q 454 1087 473 1087 z "},"Ű":{"ha":889,"x_min":85,"x_max":1067,"o":"m 176 998 l 363 998 l 280 382 q 269 268 269 301 q 304 180 269 212 q 406 149 339 149 q 499 172 459 149 q 547 231 529 190 q 582 394 565 272 l 665 998 l 854 998 l 772 402 q 707 138 747 218 q 589 17 666 58 q 401 -25 512 -25 q 169 54 252 -25 q 85 271 85 134 q 102 448 85 331 l 176 998 m 545 1362 l 764 1362 l 479 1096 l 346 1096 l 545 1362 m 848 1362 l 1067 1362 l 782 1096 l 648 1096 l 848 1362 z "},"ű":{"ha":833,"x_min":76,"x_max":982,"o":"m 132 738 l 311 738 l 262 361 q 254 267 254 298 q 288 185 254 218 q 376 152 321 152 q 483 195 446 152 q 538 368 521 237 l 589 738 l 768 738 l 715 341 q 653 133 696 207 q 539 20 610 60 q 372 -19 468 -19 q 156 59 236 -19 q 76 262 76 138 q 93 457 76 338 l 132 738 m 460 1139 l 680 1139 l 394 873 l 261 873 l 460 1139 m 763 1139 l 982 1139 l 697 873 l 564 873 l 763 1139 z "},"Ź":{"ha":694,"x_min":12,"x_max":721,"o":"m 124 998 l 688 998 l 292 174 l 606 174 l 583 0 l 12 0 l 409 822 l 100 822 l 124 998 m 502 1360 l 721 1360 l 435 1095 l 302 1095 l 502 1360 z "},"ź":{"ha":639,"x_min":-48,"x_max":644,"o":"m 59 738 l 644 738 l 266 167 l 612 167 l 589 0 l -48 0 l 328 569 l 37 569 l 59 738 m 417 1137 l 636 1137 l 351 872 l 218 872 l 417 1137 z "},"Ż":{"ha":694,"x_min":12,"x_max":688,"o":"m 124 998 l 688 998 l 292 174 l 606 174 l 583 0 l 12 0 l 409 822 l 100 822 l 124 998 m 401 1265 q 461 1241 437 1265 q 485 1184 485 1217 q 452 1104 485 1137 q 373 1071 420 1071 q 312 1094 335 1071 q 289 1156 289 1118 q 322 1232 289 1199 q 401 1265 356 1265 z "},"ż":{"ha":639,"x_min":-48,"x_max":644,"o":"m 59 738 l 644 738 l 266 167 l 612 167 l 589 0 l -48 0 l 328 569 l 37 569 l 59 738 m 334 1042 q 393 1018 369 1042 q 417 961 417 994 q 385 881 417 914 q 305 848 352 848 q 244 871 267 848 q 221 932 221 895 q 255 1009 221 976 q 334 1042 288 1042 z "},"":{"ha":747,"x_min":113,"x_max":724,"o":"m 113 995 l 724 995 l 724 840 l 317 840 l 317 0 l 113 0 l 113 995 z "},"":{"ha":1109,"x_min":65,"x_max":1043,"o":"m 562 1019 q 913 887 783 1019 q 1043 505 1043 755 q 912 106 1043 240 q 566 -28 782 -28 q 192 112 318 -28 q 65 498 65 252 q 188 876 65 732 q 562 1019 311 1019 m 562 875 q 351 787 425 875 q 277 490 277 699 q 353 206 277 294 q 554 119 429 119 q 704 160 639 119 q 802 284 770 202 q 833 495 833 367 q 753 795 833 715 q 562 875 673 875 m 379 587 l 732 587 l 732 430 l 379 430 l 379 587 z "},"":{"ha":1286,"x_min":65,"x_max":1221,"o":"m 538 1019 l 744 1019 l 744 905 q 1221 495 1221 882 q 1093 186 1221 290 q 745 77 964 81 l 745 -119 l 538 -119 l 538 77 q 179 195 293 87 q 65 488 65 304 q 103 685 65 597 q 243 834 141 772 q 538 907 345 896 l 538 1019 m 538 763 q 382 715 443 758 q 298 614 321 673 q 275 492 275 556 q 298 372 275 432 q 380 268 320 311 q 538 220 441 224 l 538 763 m 744 762 l 744 220 q 881 255 825 229 q 973 346 937 282 q 1008 492 1008 409 q 938 685 1008 612 q 744 762 868 757 z "},"":{"ha":917,"x_min":58,"x_max":876,"o":"m 646 155 q 369 -19 553 -19 q 142 76 227 -19 q 58 343 58 172 q 145 619 58 505 q 383 732 232 732 q 642 576 545 732 q 672 713 649 635 l 865 713 q 817 380 817 562 q 876 0 817 178 l 682 0 q 646 155 656 80 m 444 606 q 306 539 353 606 q 259 351 259 472 q 310 170 259 227 q 438 113 361 113 q 576 180 525 113 q 628 369 628 248 q 580 541 628 475 q 444 606 532 606 z "},"":{"ha":913,"x_min":58,"x_max":856,"o":"m 424 650 q 267 878 267 769 q 338 1005 267 956 q 550 1055 410 1055 q 729 1031 614 1055 l 729 901 q 591 920 648 920 q 465 856 465 920 q 489 802 465 829 q 584 723 513 775 q 792 532 728 618 q 856 329 856 447 q 752 78 856 175 q 466 -19 648 -19 q 160 82 263 -19 q 58 328 58 182 q 155 563 58 473 q 424 650 252 653 m 459 553 q 260 323 260 553 q 310 166 260 226 q 456 107 361 107 q 603 169 552 107 q 654 338 654 230 q 603 496 654 438 q 459 553 551 553 z "},"":{"ha":755,"x_min":58,"x_max":696,"o":"m 696 -2 q 515 -19 620 -19 q 268 26 370 -19 q 111 158 165 71 q 58 355 58 245 q 171 626 58 519 q 510 732 284 732 q 684 714 602 732 l 684 579 q 515 598 602 598 q 343 552 412 598 q 264 428 275 507 l 680 428 l 680 301 l 264 301 q 535 115 291 115 q 696 132 614 115 l 696 -2 z "},"":{"ha":1023,"x_min":58,"x_max":1000,"o":"m 777 584 q 854 363 854 496 q 746 89 854 196 q 456 -19 637 -19 q 166 90 274 -19 q 58 365 58 198 q 171 631 58 530 q 435 732 284 732 q 524 728 467 732 q 638 721 597 721 l 1000 721 l 1000 584 l 777 584 m 452 618 q 309 553 360 618 q 258 358 258 488 q 310 171 258 235 q 459 107 362 107 q 600 174 546 107 q 654 374 654 240 q 600 554 654 490 q 452 618 545 618 z "},"":{"ha":753,"x_min":23,"x_max":730,"o":"m 23 721 l 730 721 l 730 583 l 475 583 l 475 0 l 278 0 l 278 583 l 23 583 l 23 721 z "},"":{"ha":1125,"x_min":58,"x_max":1067,"o":"m 463 903 l 660 903 l 660 730 q 972 617 876 720 q 1067 357 1067 514 q 976 110 1067 214 q 663 -9 884 6 l 663 -264 l 462 -264 l 462 -10 q 155 101 253 3 q 58 360 58 200 q 114 566 58 480 q 246 682 170 651 q 463 732 322 713 l 463 903 m 464 606 q 259 355 259 597 q 315 174 259 235 q 464 113 372 113 l 464 606 m 661 606 l 661 113 q 866 365 866 124 q 814 538 866 472 q 661 606 763 605 z "},"‗":{"ha":694,"x_min":-8,"x_max":703,"o":"m -8 -77 l 703 -77 l 703 -146 l -8 -146 l -8 -77 m -8 -197 l 703 -197 l 703 -266 l -8 -266 l -8 -197 z "},"′":{"ha":306,"x_min":134,"x_max":326,"o":"m 240 681 l 134 681 l 145 1023 l 326 1023 l 240 681 z "},"″":{"ha":500,"x_min":92,"x_max":562,"o":"m 476 681 l 370 681 l 381 1023 l 562 1023 l 476 681 m 197 681 l 92 681 l 102 1023 l 283 1023 l 197 681 z "},"‼":{"ha":790,"x_min":31,"x_max":764,"o":"m 176 1023 l 363 1023 l 260 294 l 74 294 l 176 1023 m 577 1023 l 764 1023 l 661 294 l 475 294 l 577 1023 m 145 209 q 225 176 191 209 q 259 95 259 144 q 226 15 259 48 q 145 -19 193 -19 q 64 15 98 -19 q 31 95 31 48 q 65 176 31 144 q 145 209 99 209 m 546 209 q 626 176 593 209 q 660 95 660 142 q 626 15 660 48 q 546 -19 593 -19 q 466 15 499 -19 q 432 95 432 48 q 466 176 432 142 q 546 209 499 209 z "},"ⁿ":{"ha":464,"x_min":35,"x_max":460,"o":"m 103 852 l 237 852 l 231 819 q 336 863 281 863 q 426 821 392 863 q 460 708 460 778 q 454 635 460 680 l 421 390 l 286 390 l 319 635 q 325 695 325 677 q 287 744 325 744 q 242 724 263 744 q 214 676 221 703 q 193 555 207 649 l 169 390 l 35 390 l 103 852 z "},"₧":{"ha":1617,"x_min":48,"x_max":1542,"o":"m 749 738 l 819 738 l 857 1012 l 1036 1012 l 999 738 l 1215 738 q 1314 757 1268 757 q 1542 635 1458 757 l 1456 496 q 1318 593 1392 593 q 1277 580 1295 593 q 1259 549 1259 567 q 1274 514 1259 531 q 1350 453 1289 498 q 1488 325 1455 378 q 1520 210 1520 272 q 1449 52 1520 122 q 1257 -19 1377 -19 q 1117 14 1177 -19 q 987 120 1056 47 l 1099 250 q 1266 150 1175 150 q 1321 166 1299 150 q 1343 208 1343 183 q 1324 251 1343 231 q 1239 319 1305 272 q 1117 430 1155 378 q 1078 547 1078 481 q 1081 582 1078 564 l 978 582 l 899 0 l 718 0 l 798 582 l 711 582 q 584 464 667 505 q 293 421 500 422 l 236 0 l 48 0 l 182 998 l 358 998 q 566 977 495 998 q 691 894 637 956 q 749 738 746 832 m 315 597 q 524 635 486 597 q 562 722 562 672 q 554 763 562 745 q 530 794 546 782 q 488 814 514 807 q 420 823 461 822 q 347 823 380 823 l 315 597 z "},"℅":{"ha":1286,"x_min":65,"x_max":1213,"o":"m 517 907 l 403 849 q 319 901 373 901 q 233 860 267 901 q 198 759 198 819 q 221 686 198 715 q 286 657 244 657 q 383 711 349 657 l 491 642 q 279 538 412 538 q 120 601 175 538 q 65 755 65 663 q 137 944 65 866 q 323 1023 210 1023 q 517 907 451 1023 m 252 -25 l 922 1023 l 1038 1023 l 368 -25 l 252 -25 m 1009 473 q 1155 411 1098 473 q 1213 247 1213 348 q 1143 66 1213 143 q 966 -12 1074 -12 q 818 51 870 -12 q 765 205 765 113 q 838 396 765 318 q 1009 473 910 473 m 1000 351 q 925 307 951 351 q 898 210 898 262 q 919 136 898 163 q 975 109 940 109 q 1053 151 1025 109 q 1080 251 1080 193 q 1058 323 1080 295 q 1000 351 1036 351 z "},"ℓ":{"ha":667,"x_min":10,"x_max":667,"o":"m 31 277 l 10 446 q 125 489 71 467 q 234 900 151 789 q 439 1011 316 1011 q 599 947 530 1011 q 667 782 667 883 q 585 577 667 677 q 307 386 503 477 q 291 215 291 279 q 357 128 291 128 q 574 211 441 128 l 551 36 q 361 -17 460 -17 q 170 57 237 -17 q 103 235 103 132 q 106 302 103 256 l 31 277 m 334 589 q 505 796 505 691 q 491 843 505 824 q 456 861 477 861 q 391 820 420 861 q 334 589 361 779 z "},"←":{"ha":1389,"x_min":54,"x_max":1335,"o":"m 334 594 l 385 594 q 253 385 330 479 l 1335 385 l 1335 316 l 253 316 q 387 106 322 247 l 334 106 q 54 338 183 278 l 54 368 q 334 594 174 416 z "},"↑":{"ha":694,"x_min":104,"x_max":591,"o":"m 104 712 q 330 992 281 872 l 361 992 q 591 711 420 862 l 591 659 q 382 792 451 724 l 382 -291 l 313 -291 l 313 792 q 104 660 219 715 l 104 712 z "},"→":{"ha":1389,"x_min":54,"x_max":1335,"o":"m 1055 594 q 1335 368 1215 416 l 1335 338 q 1054 106 1205 278 l 1002 106 q 1135 316 1066 247 l 54 316 l 54 385 l 1135 385 q 1003 594 1058 479 l 1055 594 z "},"↓":{"ha":694,"x_min":104,"x_max":591,"o":"m 104 -11 l 104 41 q 313 -92 219 -14 l 313 992 l 382 992 l 382 -92 q 591 42 451 -22 l 591 -10 q 361 -291 420 -161 l 330 -291 q 104 -11 281 -172 z "},"↔":{"ha":1389,"x_min":54,"x_max":1335,"o":"m 1335 366 l 1335 336 q 1059 107 1212 282 l 1005 107 q 1137 318 1052 224 l 252 318 q 383 107 336 224 l 329 107 q 54 336 177 282 l 54 366 q 329 595 177 420 l 383 595 q 252 385 336 479 l 1137 385 q 1005 595 1052 479 l 1059 595 q 1335 366 1212 420 z "},"↕":{"ha":694,"x_min":103,"x_max":591,"o":"m 332 992 l 362 992 q 591 716 416 869 l 591 662 q 380 794 475 709 l 380 -92 q 591 40 475 -6 l 591 -14 q 362 -290 416 -166 l 332 -290 q 103 -14 278 -166 l 103 40 q 314 -92 219 -6 l 314 794 q 103 662 219 709 l 103 716 q 332 992 278 869 z "},"↨":{"ha":694,"x_min":103,"x_max":591,"o":"m 332 992 l 362 992 q 591 716 416 869 l 591 662 q 380 794 475 709 l 380 -92 q 591 40 475 -6 l 591 -14 q 362 -290 416 -166 l 332 -290 q 103 -14 278 -166 l 103 40 q 314 -92 219 -6 l 314 794 q 103 662 219 709 l 103 716 q 332 992 278 869 m 104 -354 l 591 -354 l 591 -420 l 104 -420 l 104 -354 z "},"∟":{"ha":1360,"x_min":245,"x_max":1114,"o":"m 245 867 l 313 867 l 313 68 l 1114 68 l 1114 0 l 245 0 l 245 867 z "},"∩":{"ha":818,"x_min":87,"x_max":731,"o":"m 162 0 l 87 0 l 87 421 l 89 583 q 101 724 90 661 q 141 839 113 787 q 213 931 169 890 q 308 991 257 971 q 409 1012 358 1012 q 562 965 489 1012 q 673 847 634 919 q 722 695 713 776 q 731 421 731 615 l 731 0 l 656 0 l 656 426 q 650 662 656 591 q 614 791 643 734 q 528 886 586 848 q 409 923 470 923 q 291 886 348 923 q 205 793 233 848 q 170 664 177 737 q 162 426 162 591 l 162 0 z "},"≡":{"ha":833,"x_min":78,"x_max":755,"o":"m 78 873 l 755 873 l 755 704 l 78 704 l 78 873 m 78 583 l 755 583 l 755 414 l 78 414 l 78 583 m 78 293 l 755 293 l 755 123 l 78 123 l 78 293 z "},"□":{"ha":839,"x_min":99,"x_max":739,"o":"m 99 640 l 739 640 l 739 0 l 99 0 l 99 640 m 151 589 l 151 52 l 688 52 l 688 589 l 151 589 z "},"▪":{"ha":492,"x_min":89,"x_max":403,"o":"m 403 616 l 403 302 l 89 302 l 89 616 l 403 616 z "},"▫":{"ha":492,"x_min":89,"x_max":403,"o":"m 403 616 l 403 302 l 89 302 l 89 616 l 403 616 m 351 565 l 140 564 l 140 353 l 351 353 l 351 565 z "},"●":{"ha":839,"x_min":121,"x_max":718,"o":"m 420 690 q 630 603 543 690 q 718 392 718 515 q 631 181 718 269 q 420 93 543 93 q 209 181 296 93 q 121 392 121 269 q 210 605 121 520 q 420 690 299 690 z "},"◦":{"ha":492,"x_min":76,"x_max":416,"o":"m 246 629 q 366 581 315 629 q 416 459 416 532 q 367 339 416 389 q 246 289 317 289 q 126 339 176 289 q 76 459 76 389 q 126 579 76 530 q 246 629 176 629 m 246 578 q 163 544 198 578 q 127 459 127 510 q 162 375 127 410 q 246 340 197 340 q 330 375 295 340 q 365 459 365 410 q 330 544 365 509 q 246 578 294 578 z "},"":{"ha":463,"x_min":2,"x_max":249,"o":"m 123 -75 l 249 -149 l 81 -369 l 2 -321 l 123 -75 z "},"Ā":{"ha":1027,"x_min":-16,"x_max":928,"o":"m 522 998 l 680 998 l 928 0 l 747 0 l 694 212 l 300 212 l 185 0 l -16 0 l 522 998 m 648 389 l 568 716 l 393 389 l 648 389 m 406 1096 l 427 1246 l 812 1246 l 791 1096 l 406 1096 z "},"ā":{"ha":917,"x_min":39,"x_max":848,"o":"m 667 738 l 848 738 l 752 0 l 573 0 l 583 79 q 473 3 524 24 q 358 -19 422 -19 q 125 89 212 -19 q 39 340 39 197 q 94 548 39 449 q 241 702 149 646 q 435 757 334 757 q 560 726 503 757 q 654 635 617 694 l 667 738 m 400 142 q 516 172 467 142 q 599 266 566 202 q 633 396 633 330 q 582 537 633 484 q 449 590 532 590 q 286 519 353 590 q 218 335 218 448 q 269 195 218 248 q 400 142 320 142 m 301 873 l 322 1023 l 708 1023 l 687 873 l 301 873 z "},"Ĉ":{"ha":1083,"x_min":59,"x_max":1034,"o":"m 1034 869 l 897 743 q 789 821 853 793 q 651 848 726 848 q 451 795 547 848 q 302 653 355 741 q 249 465 249 565 q 342 240 249 330 q 583 150 436 150 q 854 241 739 150 l 964 95 q 570 -25 794 -25 q 303 35 413 -25 q 126 210 193 94 q 59 460 59 326 q 138 738 59 605 q 352 946 217 870 q 646 1023 487 1023 q 1034 869 870 1023 m 573 1265 l 721 1265 l 897 1074 l 694 1074 l 633 1162 l 545 1074 l 342 1074 l 573 1265 z "},"ĉ":{"ha":889,"x_min":41,"x_max":805,"o":"m 805 585 l 652 502 q 477 585 587 585 q 346 553 403 585 q 255 462 289 522 q 221 336 221 402 q 275 199 221 250 q 422 147 328 147 q 621 235 551 147 l 763 134 q 613 22 703 62 q 412 -19 523 -19 q 141 76 240 -19 q 41 327 41 171 q 164 631 41 505 q 480 757 287 757 q 805 585 698 757 m 428 1042 l 576 1042 l 751 850 l 549 850 l 488 939 l 400 850 l 197 850 l 428 1042 z "},"Ċ":{"ha":1083,"x_min":59,"x_max":1034,"o":"m 1034 869 l 897 743 q 789 821 853 793 q 651 848 726 848 q 451 795 547 848 q 302 653 355 741 q 249 465 249 565 q 342 240 249 330 q 583 150 436 150 q 854 241 739 150 l 964 95 q 570 -25 794 -25 q 303 35 413 -25 q 126 210 193 94 q 59 460 59 326 q 138 738 59 605 q 352 946 217 870 q 646 1023 487 1023 q 1034 869 870 1023 m 667 1265 q 727 1241 703 1265 q 751 1184 751 1217 q 718 1104 751 1137 q 639 1071 686 1071 q 578 1094 601 1071 q 555 1156 555 1118 q 588 1232 555 1199 q 667 1265 622 1265 z "},"ċ":{"ha":889,"x_min":41,"x_max":805,"o":"m 805 585 l 652 502 q 477 585 587 585 q 346 553 403 585 q 255 462 289 522 q 221 336 221 402 q 275 199 221 250 q 422 147 328 147 q 621 235 551 147 l 763 134 q 613 22 703 62 q 412 -19 523 -19 q 141 76 240 -19 q 41 327 41 171 q 164 631 41 505 q 480 757 287 757 q 805 585 698 757 m 495 1042 q 554 1018 530 1042 q 578 961 578 994 q 546 881 578 914 q 467 848 513 848 q 406 871 429 848 q 382 932 382 895 q 416 1009 382 976 q 495 1042 450 1042 z "},"Ē":{"ha":722,"x_min":35,"x_max":708,"o":"m 166 998 l 708 998 l 685 821 l 332 821 l 304 614 l 658 614 l 635 439 l 281 439 l 246 174 l 602 174 l 578 0 l 35 0 l 166 998 m 245 1096 l 266 1246 l 652 1246 l 631 1096 l 245 1096 z "},"ē":{"ha":889,"x_min":41,"x_max":817,"o":"m 584 216 l 743 134 q 601 22 690 63 q 405 -19 513 -19 q 139 76 236 -19 q 41 328 41 171 q 163 632 41 508 q 457 757 285 757 q 642 711 561 757 q 770 579 723 666 q 817 391 817 492 q 810 316 817 359 l 221 316 q 272 194 224 239 q 404 149 319 149 q 584 216 505 149 m 630 449 q 562 552 610 517 q 448 587 515 587 q 328 551 381 587 q 246 449 274 515 l 630 449 m 287 873 l 308 1023 l 694 1023 l 673 873 l 287 873 z "},"Ĕ":{"ha":722,"x_min":35,"x_max":736,"o":"m 166 998 l 708 998 l 685 821 l 332 821 l 304 614 l 658 614 l 635 439 l 281 439 l 246 174 l 602 174 l 578 0 l 35 0 l 166 998 m 184 1286 l 334 1286 q 368 1247 345 1259 q 452 1230 402 1230 q 532 1244 498 1230 q 586 1286 566 1258 l 736 1286 q 632 1147 709 1198 q 434 1096 554 1096 q 246 1148 309 1096 q 184 1286 183 1201 z "},"ĕ":{"ha":889,"x_min":41,"x_max":817,"o":"m 584 216 l 743 134 q 601 22 690 63 q 405 -19 513 -19 q 139 76 236 -19 q 41 328 41 171 q 163 632 41 508 q 457 757 285 757 q 642 711 561 757 q 770 579 723 666 q 817 391 817 492 q 810 316 817 359 l 221 316 q 272 194 224 239 q 404 149 319 149 q 584 216 505 149 m 630 449 q 562 552 610 517 q 448 587 515 587 q 328 551 381 587 q 246 449 274 515 l 630 449 m 229 1063 l 379 1063 q 414 1024 391 1036 q 498 1007 448 1007 q 577 1021 544 1007 q 631 1063 611 1035 l 781 1063 q 677 924 755 975 q 479 873 600 873 q 291 925 354 873 q 229 1063 229 978 z "},"Ė":{"ha":722,"x_min":35,"x_max":708,"o":"m 166 998 l 708 998 l 685 821 l 332 821 l 304 614 l 658 614 l 635 439 l 281 439 l 246 174 l 602 174 l 578 0 l 35 0 l 166 998 m 467 1265 q 527 1241 503 1265 q 551 1184 551 1217 q 518 1104 551 1137 q 439 1071 486 1071 q 378 1094 401 1071 q 355 1156 355 1118 q 388 1232 355 1199 q 467 1265 422 1265 z "},"ė":{"ha":889,"x_min":41,"x_max":817,"o":"m 584 216 l 743 134 q 601 22 690 63 q 405 -19 513 -19 q 139 76 236 -19 q 41 328 41 171 q 163 632 41 508 q 457 757 285 757 q 642 711 561 757 q 770 579 723 666 q 817 391 817 492 q 810 316 817 359 l 221 316 q 272 194 224 239 q 404 149 319 149 q 584 216 505 149 m 630 449 q 562 552 610 517 q 448 587 515 587 q 328 551 381 587 q 246 449 274 515 l 630 449 m 500 1042 q 560 1018 536 1042 q 584 961 584 994 q 551 881 584 914 q 472 848 519 848 q 411 871 434 848 q 388 932 388 895 q 421 1009 388 976 q 500 1042 455 1042 z "},"Ĝ":{"ha":1166,"x_min":59,"x_max":1075,"o":"m 1045 812 l 889 711 q 758 818 821 788 q 615 848 695 848 q 334 709 442 848 q 248 464 248 599 q 336 241 248 331 q 554 151 425 151 q 729 197 650 151 q 859 336 808 243 l 547 336 l 570 513 l 1075 513 q 920 120 1064 266 q 553 -25 776 -25 q 171 143 310 -25 q 59 465 59 278 q 223 857 59 692 q 613 1023 387 1023 q 777 998 697 1023 q 922 930 857 974 q 1045 812 986 886 m 585 1265 l 733 1265 l 909 1074 l 707 1074 l 646 1162 l 557 1074 l 354 1074 l 585 1265 z "},"ĝ":{"ha":917,"x_min":21,"x_max":848,"o":"m 667 738 l 848 738 l 768 147 q 719 -85 744 -28 q 587 -231 680 -173 q 353 -289 494 -289 q 150 -244 237 -289 q 21 -127 64 -199 l 176 -46 q 358 -120 246 -120 q 471 -96 423 -120 q 545 -32 518 -73 q 582 87 571 8 q 359 0 484 0 q 198 44 272 0 q 83 167 125 87 q 41 343 41 246 q 96 548 41 452 q 245 701 151 644 q 443 757 340 757 q 556 732 505 757 q 656 650 607 708 l 667 738 m 452 586 q 287 517 354 586 q 219 347 219 448 q 269 215 219 264 q 404 165 319 165 q 520 196 467 165 q 605 283 574 227 q 636 406 636 340 q 585 535 636 484 q 452 586 533 586 m 439 1042 l 587 1042 l 763 850 l 561 850 l 500 939 l 412 850 l 208 850 l 439 1042 z "},"Ġ":{"ha":1166,"x_min":59,"x_max":1075,"o":"m 1045 812 l 889 711 q 758 818 821 788 q 615 848 695 848 q 334 709 442 848 q 248 464 248 599 q 336 241 248 331 q 554 151 425 151 q 729 197 650 151 q 859 336 808 243 l 547 336 l 570 513 l 1075 513 q 920 120 1064 266 q 553 -25 776 -25 q 171 143 310 -25 q 59 465 59 278 q 223 857 59 692 q 613 1023 387 1023 q 777 998 697 1023 q 922 930 857 974 q 1045 812 986 886 m 663 1265 q 722 1241 698 1265 q 746 1184 746 1217 q 713 1104 746 1137 q 634 1071 681 1071 q 573 1094 596 1071 q 550 1156 550 1118 q 584 1232 550 1199 q 663 1265 617 1265 z "},"ġ":{"ha":917,"x_min":21,"x_max":848,"o":"m 667 738 l 848 738 l 768 147 q 719 -85 744 -28 q 587 -231 680 -173 q 353 -289 494 -289 q 150 -244 237 -289 q 21 -127 64 -199 l 176 -46 q 358 -120 246 -120 q 471 -96 423 -120 q 545 -32 518 -73 q 582 87 571 8 q 359 0 484 0 q 198 44 272 0 q 83 167 125 87 q 41 343 41 246 q 96 548 41 452 q 245 701 151 644 q 443 757 340 757 q 556 732 505 757 q 656 650 607 708 l 667 738 m 452 586 q 287 517 354 586 q 219 347 219 448 q 269 215 219 264 q 404 165 319 165 q 520 196 467 165 q 605 283 574 227 q 636 406 636 340 q 585 535 636 484 q 452 586 533 586 m 506 1042 q 565 1018 541 1042 q 589 961 589 994 q 557 881 589 914 q 477 848 524 848 q 416 871 439 848 q 393 932 393 895 q 427 1009 393 976 q 506 1042 460 1042 z "},"Ģ":{"ha":1166,"x_min":59,"x_max":1075,"o":"m 1045 812 l 889 711 q 758 818 821 788 q 615 848 695 848 q 334 709 442 848 q 248 464 248 599 q 336 241 248 331 q 554 151 425 151 q 729 197 650 151 q 859 336 808 243 l 547 336 l 570 513 l 1075 513 q 920 120 1064 266 q 553 -25 776 -25 q 171 143 310 -25 q 59 465 59 278 q 223 857 59 692 q 613 1023 387 1023 q 777 998 697 1023 q 922 930 857 974 q 1045 812 986 886 m 510 9 l 625 9 l 612 -20 q 674 -56 653 -31 q 695 -111 695 -81 q 643 -214 695 -170 q 503 -259 590 -259 q 356 -227 429 -259 l 393 -140 q 486 -156 441 -156 q 542 -140 522 -156 q 562 -102 562 -125 q 551 -77 562 -85 q 509 -69 540 -69 l 474 -71 l 510 9 z "},"ģ":{"ha":917,"x_min":21,"x_max":848,"o":"m 667 738 l 848 738 l 768 147 q 719 -85 744 -28 q 587 -231 680 -173 q 353 -289 494 -289 q 150 -244 237 -289 q 21 -127 64 -199 l 176 -46 q 358 -120 246 -120 q 471 -96 423 -120 q 545 -32 518 -73 q 582 87 571 8 q 359 0 484 0 q 198 44 272 0 q 83 167 125 87 q 41 343 41 246 q 96 548 41 452 q 245 701 151 644 q 443 757 340 757 q 556 732 505 757 q 656 650 607 708 l 667 738 m 452 586 q 287 517 354 586 q 219 347 219 448 q 269 215 219 264 q 404 165 319 165 q 520 196 467 165 q 605 283 574 227 q 636 406 636 340 q 585 535 636 484 q 452 586 533 586 m 557 847 l 387 847 l 398 931 q 437 1082 410 1021 q 537 1226 465 1142 l 595 1175 q 517 1041 538 1100 l 585 1041 l 557 847 z "},"Ĥ":{"ha":945,"x_min":46,"x_max":899,"o":"m 180 998 l 368 998 l 318 621 l 659 621 l 710 998 l 899 998 l 763 0 l 576 0 l 637 453 l 294 453 l 233 0 l 46 0 l 180 998 m 499 1265 l 647 1265 l 823 1074 l 621 1074 l 559 1162 l 471 1074 l 268 1074 l 499 1265 z "},"ĥ":{"ha":833,"x_min":31,"x_max":779,"o":"m 170 1023 l 349 1023 l 300 663 q 516 757 404 757 q 673 696 612 757 q 734 543 734 635 q 722 414 734 500 l 667 0 l 488 0 l 541 404 q 549 497 549 466 q 524 566 549 542 q 452 590 498 590 q 361 558 406 590 q 291 471 315 527 q 246 261 267 415 l 212 0 l 31 0 l 170 1023 m 455 1265 l 603 1265 l 779 1074 l 576 1074 l 515 1162 l 427 1074 l 224 1074 l 455 1265 z "},"Ħ":{"ha":945,"x_min":46,"x_max":972,"o":"m 352 876 l 694 876 l 710 998 l 899 998 l 882 876 l 972 876 l 957 766 l 867 766 l 763 0 l 576 0 l 637 453 l 294 453 l 233 0 l 46 0 l 149 766 l 60 766 l 75 876 l 164 876 l 180 998 l 368 998 l 352 876 m 337 766 l 318 621 l 659 621 l 679 766 l 337 766 z "},"ħ":{"ha":833,"x_min":31,"x_max":734,"o":"m 338 935 l 554 935 l 542 828 l 323 828 l 300 663 q 516 757 400 757 q 674 695 614 757 q 734 543 734 633 q 722 414 734 500 l 667 0 l 488 0 l 541 404 q 549 496 549 465 q 520 568 549 546 q 452 590 492 590 q 356 555 403 590 q 288 463 309 519 q 246 261 266 406 l 212 0 l 31 0 l 143 828 l 50 828 l 62 935 l 157 935 l 170 1023 l 349 1023 l 338 935 z "},"Ĩ":{"ha":389,"x_min":-11,"x_max":549,"o":"m 174 998 l 357 998 l 219 0 l 39 0 l 174 998 m 47 1097 l -11 1209 q 91 1261 50 1248 q 175 1275 133 1275 q 258 1261 207 1275 q 371 1238 338 1238 q 492 1273 429 1238 l 549 1168 q 454 1109 479 1119 q 371 1095 412 1095 q 271 1113 330 1095 q 210 1131 222 1128 q 174 1133 194 1133 q 47 1097 107 1133 z "},"ĩ":{"ha":333,"x_min":-61,"x_max":498,"o":"m 107 738 l 286 738 l 187 0 l 7 0 l 107 738 m -3 874 l -61 986 q 41 1038 -1 1025 q 125 1052 83 1052 q 208 1038 157 1052 q 321 1015 288 1015 q 442 1050 378 1015 l 498 945 q 404 886 429 896 q 321 871 362 871 q 220 890 279 871 q 160 907 172 905 q 123 910 144 910 q -3 874 57 910 z "},"Ī":{"ha":389,"x_min":39,"x_max":486,"o":"m 174 998 l 357 998 l 219 0 l 39 0 l 174 998 m 79 1096 l 100 1246 l 486 1246 l 465 1096 l 79 1096 z "},"ī":{"ha":333,"x_min":7,"x_max":421,"o":"m 107 738 l 286 738 l 187 0 l 7 0 l 107 738 m 14 873 l 35 1023 l 421 1023 l 400 873 l 14 873 z "},"Ĭ":{"ha":389,"x_min":10,"x_max":563,"o":"m 174 998 l 357 998 l 219 0 l 39 0 l 174 998 m 11 1286 l 161 1286 q 195 1247 172 1259 q 279 1230 229 1230 q 359 1244 326 1230 q 413 1286 393 1258 l 563 1286 q 459 1147 536 1198 q 261 1096 381 1096 q 73 1148 136 1096 q 11 1286 10 1201 z "},"ĭ":{"ha":333,"x_min":-30,"x_max":523,"o":"m 107 738 l 286 738 l 187 0 l 7 0 l 107 738 m -29 1063 l 121 1063 q 155 1024 132 1036 q 239 1007 189 1007 q 319 1021 286 1007 q 373 1063 353 1035 l 523 1063 q 419 924 496 975 q 221 873 341 873 q 33 925 96 873 q -29 1063 -30 978 z "},"Į":{"ha":389,"x_min":-21,"x_max":357,"o":"m 174 998 l 357 998 l 219 0 l 39 0 l 174 998 m 121 0 l 219 0 q 107 -121 107 -61 q 124 -160 107 -145 q 170 -175 142 -175 q 231 -157 193 -175 l 216 -264 q 127 -275 168 -275 q 16 -243 53 -275 q -21 -163 -21 -212 q 15 -74 -21 -118 q 121 0 51 -30 z "},"į":{"ha":333,"x_min":-53,"x_max":332,"o":"m 220 1040 q 299 1007 266 1040 q 332 928 332 974 q 299 849 332 882 q 220 816 266 816 q 141 849 174 816 q 108 928 108 882 q 141 1007 108 974 q 220 1040 174 1040 m 107 738 l 286 738 l 187 0 l 7 0 l 107 738 m 90 0 l 187 0 q 75 -121 75 -61 q 93 -160 75 -145 q 138 -175 110 -175 q 199 -157 161 -175 l 184 -264 q 96 -275 136 -275 q -16 -243 21 -275 q -53 -163 -53 -212 q -17 -74 -53 -118 q 90 0 19 -30 z "},"Ĵ":{"ha":667,"x_min":-32,"x_max":722,"o":"m 436 998 l 623 998 l 530 294 q 482 96 511 154 q 399 6 454 38 q 273 -25 345 -25 q 101 28 182 -25 q -32 178 19 81 l 117 269 q 195 180 156 208 q 263 153 233 153 q 313 177 295 153 q 339 283 330 201 l 436 998 m 399 1265 l 547 1265 l 722 1074 l 520 1074 l 459 1162 l 371 1074 l 168 1074 l 399 1265 z "},"ĵ":{"ha":361,"x_min":-132,"x_max":497,"o":"m 173 1042 l 321 1042 l 497 850 l 295 850 l 234 939 l 146 850 l -58 850 l 173 1042 m 121 738 l 301 738 l 213 85 q 166 -153 189 -88 q 93 -253 142 -218 q -21 -289 44 -289 q -132 -262 -71 -289 l -111 -100 q -54 -119 -81 -119 q 4 -66 -12 -119 q 30 61 20 -14 l 121 738 z "},"Ķ":{"ha":861,"x_min":50,"x_max":878,"o":"m 183 998 l 371 998 l 325 659 l 646 998 l 878 998 l 444 541 l 787 0 l 578 0 l 296 444 l 236 0 l 50 0 l 183 998 m 290 -9 q 354 -7 332 -7 q 466 -38 433 -7 q 499 -112 499 -70 q 448 -213 499 -166 q 306 -259 397 -259 q 178 -235 250 -259 l 214 -146 q 287 -157 260 -157 q 365 -102 365 -157 q 315 -70 365 -70 q 264 -73 298 -70 l 290 -9 m 495 -20 z "},"ķ":{"ha":806,"x_min":31,"x_max":812,"o":"m 167 1023 l 345 1023 l 273 481 l 564 738 l 812 738 l 439 409 l 766 0 l 549 0 l 257 363 l 209 0 l 31 0 l 167 1023 m 261 -9 q 326 -7 303 -7 q 438 -38 405 -7 q 471 -112 471 -70 q 419 -213 471 -166 q 277 -259 368 -259 q 149 -235 221 -259 l 185 -146 q 258 -157 231 -157 q 336 -102 336 -157 q 287 -70 336 -70 q 235 -73 270 -70 l 261 -9 m 467 -20 z "},"ĸ":{"ha":806,"x_min":31,"x_max":812,"o":"m 129 738 l 307 738 l 273 481 l 564 738 l 812 738 l 439 409 l 766 0 l 549 0 l 257 363 l 209 0 l 31 0 l 129 738 z "},"Ļ":{"ha":611,"x_min":49,"x_max":569,"o":"m 184 998 l 372 998 l 259 172 l 569 172 l 547 0 l 49 0 l 184 998 m 181 -9 q 245 -7 223 -7 q 358 -38 325 -7 q 391 -112 391 -70 q 339 -213 391 -166 q 197 -259 288 -259 q 69 -235 141 -259 l 105 -146 q 178 -157 151 -157 q 256 -102 256 -157 q 207 -70 256 -70 q 155 -73 190 -70 l 181 -9 m 387 -20 z "},"ļ":{"ha":333,"x_min":-100,"x_max":326,"o":"m 145 1023 l 326 1023 l 190 0 l 9 0 l 145 1023 m 12 -9 q 76 -7 54 -7 q 188 -38 155 -7 q 221 -112 221 -70 q 170 -213 221 -166 q 28 -259 119 -259 q -100 -235 -28 -259 l -64 -146 q 9 -157 -18 -157 q 87 -102 87 -157 q 37 -70 87 -70 q -14 -73 20 -70 l 12 -9 m 217 -20 z "},"Ņ":{"ha":1027,"x_min":48,"x_max":980,"o":"m 180 998 l 345 998 l 706 319 l 798 998 l 980 998 l 846 0 l 686 0 l 319 686 l 228 0 l 48 0 l 180 998 m 359 -9 q 423 -7 401 -7 q 535 -38 503 -7 q 568 -112 568 -70 q 517 -213 568 -166 q 375 -259 466 -259 q 247 -235 319 -259 l 283 -146 q 356 -157 329 -157 q 434 -102 434 -157 q 385 -70 434 -70 q 333 -73 368 -70 l 359 -9 m 564 -20 z "},"ņ":{"ha":833,"x_min":31,"x_max":734,"o":"m 131 738 l 311 738 l 300 663 q 516 757 404 757 q 673 696 612 757 q 734 543 734 635 q 722 414 734 500 l 667 0 l 488 0 l 541 404 q 549 497 549 466 q 524 566 549 542 q 452 590 498 590 q 361 558 406 590 q 291 471 315 527 q 246 261 267 415 l 212 0 l 31 0 l 131 738 m 275 -9 q 340 -7 317 -7 q 452 -38 419 -7 q 485 -112 485 -70 q 434 -213 485 -166 q 292 -259 382 -259 q 163 -235 235 -259 l 199 -146 q 273 -157 245 -157 q 351 -102 351 -157 q 301 -70 351 -70 q 250 -73 284 -70 l 275 -9 m 481 -20 z "},"Ŋ":{"ha":1084,"x_min":46,"x_max":1029,"o":"m 353 883 q 658 1023 490 1023 q 919 911 808 1023 q 1029 591 1029 800 q 913 160 1029 346 q 585 -25 797 -25 q 443 8 500 -25 q 338 127 387 42 l 481 232 q 604 150 536 150 q 771 274 701 150 q 841 560 841 398 q 778 773 841 701 q 614 846 714 846 q 323 661 471 846 l 233 0 l 46 0 l 180 998 l 368 998 l 353 883 z "},"ŋ":{"ha":833,"x_min":31,"x_max":734,"o":"m 332 -262 l 354 -100 q 410 -119 383 -119 q 465 -78 449 -119 q 495 61 481 -36 l 541 404 q 549 496 549 464 q 520 568 549 547 q 452 590 492 590 q 354 554 401 590 q 286 459 307 517 q 246 261 265 401 l 212 0 l 31 0 l 131 738 l 311 738 l 300 663 q 516 757 400 757 q 673 695 613 757 q 734 543 734 633 q 722 414 734 500 l 668 9 q 585 -231 644 -172 q 444 -289 526 -289 q 332 -262 394 -289 z "},"Ō":{"ha":1166,"x_min":56,"x_max":1114,"o":"m 641 1023 q 980 890 846 1023 q 1114 555 1114 758 q 1035 261 1114 399 q 824 49 956 123 q 523 -25 693 -25 q 183 101 310 -25 q 56 433 56 227 q 208 836 56 667 q 641 1023 377 1023 m 634 846 q 438 794 527 846 q 296 645 350 742 q 241 444 241 547 q 317 235 241 321 q 533 150 392 150 q 811 265 696 150 q 925 545 925 380 q 845 764 925 682 q 634 846 764 846 m 466 1096 l 487 1246 l 873 1246 l 852 1096 l 466 1096 z "},"ō":{"ha":889,"x_min":41,"x_max":812,"o":"m 464 757 q 643 711 562 757 q 768 583 723 666 q 812 395 812 499 q 690 102 812 223 q 386 -19 567 -19 q 135 76 229 -19 q 41 326 41 172 q 168 634 41 511 q 464 757 295 757 m 451 585 q 280 506 340 585 q 221 333 221 426 q 270 200 221 250 q 399 149 318 149 q 573 226 513 149 q 633 402 633 303 q 583 534 633 484 q 451 585 532 585 m 285 873 l 306 1023 l 692 1023 l 671 873 l 285 873 z "},"Ŏ":{"ha":1166,"x_min":56,"x_max":1114,"o":"m 641 1023 q 980 890 846 1023 q 1114 555 1114 758 q 1035 261 1114 399 q 824 49 956 123 q 523 -25 693 -25 q 183 101 310 -25 q 56 433 56 227 q 208 836 56 667 q 641 1023 377 1023 m 634 846 q 438 794 527 846 q 296 645 350 742 q 241 444 241 547 q 317 235 241 321 q 533 150 392 150 q 811 265 696 150 q 925 545 925 380 q 845 764 925 682 q 634 846 764 846 m 397 1286 l 547 1286 q 581 1247 558 1259 q 665 1230 615 1230 q 745 1244 711 1230 q 799 1286 779 1258 l 949 1286 q 845 1147 922 1198 q 647 1096 767 1096 q 459 1148 522 1096 q 397 1286 396 1201 z "},"ŏ":{"ha":889,"x_min":41,"x_max":812,"o":"m 464 757 q 643 711 562 757 q 768 583 723 666 q 812 395 812 499 q 690 102 812 223 q 386 -19 567 -19 q 135 76 229 -19 q 41 326 41 172 q 168 634 41 511 q 464 757 295 757 m 451 585 q 280 506 340 585 q 221 333 221 426 q 270 200 221 250 q 399 149 318 149 q 573 226 513 149 q 633 402 633 303 q 583 534 633 484 q 451 585 532 585 m 228 1063 l 378 1063 q 412 1024 389 1036 q 496 1007 446 1007 q 576 1021 543 1007 q 630 1063 610 1035 l 780 1063 q 676 924 753 975 q 478 873 598 873 q 290 925 353 873 q 228 1063 227 978 z "},"Ŗ":{"ha":806,"x_min":58,"x_max":758,"o":"m 191 998 l 365 998 q 592 970 526 998 q 716 874 674 935 q 758 728 758 812 q 696 550 758 625 q 509 447 634 476 l 727 0 l 533 0 l 320 435 l 302 435 l 245 0 l 58 0 l 191 998 m 324 599 q 525 630 478 600 q 571 723 571 661 q 552 782 571 758 q 498 815 534 806 q 355 825 463 825 l 324 599 m 281 -9 q 346 -7 323 -7 q 458 -38 425 -7 q 491 -112 491 -70 q 440 -213 491 -166 q 298 -259 389 -259 q 170 -235 241 -259 l 205 -146 q 279 -157 252 -157 q 357 -102 357 -157 q 307 -70 357 -70 q 256 -73 290 -70 l 281 -9 m 487 -20 z "},"ŗ":{"ha":444,"x_min":-53,"x_max":459,"o":"m 85 738 l 247 738 l 234 637 q 408 757 307 757 q 459 744 433 757 l 394 581 q 364 587 374 587 q 271 525 312 587 q 206 277 230 464 l 171 0 l -11 0 l 85 738 m 59 -9 q 123 -7 101 -7 q 236 -38 203 -7 q 269 -112 269 -70 q 217 -213 269 -166 q 75 -259 166 -259 q -53 -235 19 -259 l -17 -146 q 56 -157 29 -157 q 134 -102 134 -157 q 85 -70 134 -70 q 33 -73 68 -70 l 59 -9 m 264 -20 z "},"Ŝ":{"ha":722,"x_min":-10,"x_max":690,"o":"m 690 859 l 553 738 q 397 846 469 846 q 337 825 361 846 q 313 774 313 804 q 335 712 313 746 q 467 562 357 678 q 543 475 525 500 q 607 363 587 415 q 626 258 626 311 q 541 56 626 138 q 321 -25 455 -25 q -10 168 118 -25 l 134 284 q 321 152 220 152 q 402 183 370 152 q 435 258 435 214 q 415 329 435 293 q 301 465 395 365 q 170 623 201 570 q 128 766 128 696 q 189 931 128 858 q 393 1023 264 1023 q 690 859 570 1023 m 367 1265 l 515 1265 l 690 1074 l 488 1074 l 427 1162 l 339 1074 l 136 1074 l 367 1265 z "},"ŝ":{"ha":611,"x_min":-19,"x_max":587,"o":"m 536 635 l 450 496 q 380 569 416 546 q 311 593 343 593 q 270 579 287 593 q 253 549 253 566 q 267 516 253 532 q 345 453 279 500 q 481 325 448 378 q 514 210 514 272 q 447 54 514 127 q 251 -19 379 -19 q 116 11 177 -19 q -19 120 56 41 l 93 250 q 259 150 169 150 q 316 167 295 150 q 338 208 338 184 q 321 247 338 227 q 233 319 305 267 q 117 421 149 378 q 72 547 72 481 q 142 699 72 640 q 308 757 212 757 q 435 725 375 757 q 536 635 496 693 m 263 1042 l 411 1042 l 587 850 l 385 850 l 323 939 l 235 850 l 32 850 l 263 1042 z "},"Ŧ":{"ha":583,"x_min":27,"x_max":663,"o":"m 391 537 l 555 537 l 541 427 l 377 427 l 321 0 l 136 0 l 191 427 l 27 427 l 42 537 l 205 537 l 243 820 l 31 820 l 54 998 l 663 998 l 641 820 l 429 820 l 391 537 z "},"ŧ":{"ha":416,"x_min":-33,"x_max":426,"o":"m 267 414 l 397 414 l 382 307 l 253 307 l 211 0 l 30 0 l 72 307 l -33 307 l -18 414 l 87 414 l 110 582 l 21 582 l 42 738 l 131 738 l 169 1012 l 349 1012 l 311 738 l 426 738 l 404 582 l 290 582 l 267 414 z "},"Ũ":{"ha":889,"x_min":85,"x_max":854,"o":"m 176 998 l 363 998 l 280 382 q 269 268 269 301 q 304 180 269 212 q 406 149 339 149 q 499 172 459 149 q 547 231 529 190 q 582 394 565 272 l 665 998 l 854 998 l 772 402 q 707 138 747 218 q 589 17 666 58 q 401 -25 512 -25 q 169 54 252 -25 q 85 271 85 134 q 102 448 85 331 l 176 998 m 311 1097 l 253 1209 q 355 1261 313 1248 q 439 1275 397 1275 q 522 1261 471 1275 q 635 1238 602 1238 q 756 1273 692 1238 l 812 1168 q 718 1109 743 1119 q 635 1095 676 1095 q 534 1113 593 1095 q 474 1131 486 1128 q 437 1133 458 1133 q 311 1097 371 1133 z "},"ũ":{"ha":833,"x_min":76,"x_max":768,"o":"m 132 738 l 311 738 l 262 361 q 254 267 254 298 q 288 185 254 218 q 376 152 321 152 q 483 195 446 152 q 538 368 521 237 l 589 738 l 768 738 l 715 341 q 653 133 696 207 q 539 20 610 60 q 372 -19 468 -19 q 156 59 236 -19 q 76 262 76 138 q 93 457 76 338 l 132 738 m 250 874 l 192 986 q 294 1038 252 1025 q 378 1052 336 1052 q 460 1038 410 1052 q 574 1015 541 1015 q 695 1050 631 1015 l 751 945 q 656 886 682 896 q 574 871 615 871 q 473 890 532 871 q 413 907 425 905 q 376 910 397 910 q 250 874 310 910 z "},"Ū":{"ha":889,"x_min":85,"x_max":854,"o":"m 176 998 l 363 998 l 280 382 q 269 268 269 301 q 304 180 269 212 q 406 149 339 149 q 499 172 459 149 q 547 231 529 190 q 582 394 565 272 l 665 998 l 854 998 l 772 402 q 707 138 747 218 q 589 17 666 58 q 401 -25 512 -25 q 169 54 252 -25 q 85 271 85 134 q 102 448 85 331 l 176 998 m 334 1096 l 355 1246 l 741 1246 l 720 1096 l 334 1096 z "},"ū":{"ha":833,"x_min":76,"x_max":768,"o":"m 132 738 l 311 738 l 262 361 q 254 267 254 298 q 288 185 254 218 q 376 152 321 152 q 483 195 446 152 q 538 368 521 237 l 589 738 l 768 738 l 715 341 q 653 133 696 207 q 539 20 610 60 q 372 -19 468 -19 q 156 59 236 -19 q 76 262 76 138 q 93 457 76 338 l 132 738 m 271 873 l 292 1023 l 678 1023 l 657 873 l 271 873 z "},"Ŭ":{"ha":889,"x_min":85,"x_max":854,"o":"m 176 998 l 363 998 l 280 382 q 269 268 269 301 q 304 180 269 212 q 406 149 339 149 q 499 172 459 149 q 547 231 529 190 q 582 394 565 272 l 665 998 l 854 998 l 772 402 q 707 138 747 218 q 589 17 666 58 q 401 -25 512 -25 q 169 54 252 -25 q 85 271 85 134 q 102 448 85 331 l 176 998 m 281 1286 l 431 1286 q 466 1247 443 1259 q 550 1230 500 1230 q 630 1244 596 1230 q 684 1286 663 1258 l 833 1286 q 729 1147 807 1198 q 532 1096 652 1096 q 343 1148 406 1096 q 281 1286 281 1201 z "},"ŭ":{"ha":833,"x_min":76,"x_max":768,"o":"m 132 738 l 311 738 l 262 361 q 254 267 254 298 q 288 185 254 218 q 376 152 321 152 q 483 195 446 152 q 538 368 521 237 l 589 738 l 768 738 l 715 341 q 653 133 696 207 q 539 20 610 60 q 372 -19 468 -19 q 156 59 236 -19 q 76 262 76 138 q 93 457 76 338 l 132 738 m 214 1063 l 364 1063 q 399 1024 376 1036 q 483 1007 433 1007 q 563 1021 529 1007 q 616 1063 596 1035 l 766 1063 q 662 924 740 975 q 465 873 585 873 q 276 925 339 873 q 214 1063 214 978 z "},"Ų":{"ha":889,"x_min":85,"x_max":854,"o":"m 176 998 l 363 998 l 280 382 q 269 268 269 301 q 304 180 269 212 q 406 149 339 149 q 499 172 459 149 q 547 231 529 190 q 582 394 565 272 l 665 998 l 854 998 l 772 402 q 707 138 747 218 q 589 17 666 58 q 401 -25 512 -25 q 169 54 252 -25 q 85 271 85 134 q 102 448 85 331 l 176 998 m 397 0 l 494 0 q 382 -121 382 -61 q 400 -160 382 -145 q 445 -175 417 -175 q 507 -157 468 -175 l 492 -264 q 403 -275 444 -275 q 291 -243 328 -275 q 254 -163 254 -212 q 290 -74 254 -118 q 397 0 326 -30 z "},"ų":{"ha":833,"x_min":76,"x_max":768,"o":"m 132 738 l 311 738 l 262 361 q 254 267 254 298 q 288 185 254 218 q 376 152 321 152 q 483 195 446 152 q 538 368 521 237 l 589 738 l 768 738 l 715 341 q 653 133 696 207 q 539 20 610 60 q 372 -19 468 -19 q 156 59 236 -19 q 76 262 76 138 q 93 457 76 338 l 132 738 m 380 0 l 478 0 q 366 -121 366 -61 q 384 -160 366 -145 q 429 -175 401 -175 q 490 -157 452 -175 l 475 -264 q 387 -275 427 -275 q 275 -243 312 -275 q 238 -163 238 -212 q 274 -74 238 -118 q 380 0 310 -30 z "},"Ŵ":{"ha":1250,"x_min":90,"x_max":1286,"o":"m 90 998 l 260 998 l 317 351 l 623 998 l 764 998 l 883 368 l 1105 998 l 1286 998 l 933 0 l 780 0 l 654 661 l 342 0 l 178 0 l 90 998 m 655 1265 l 803 1265 l 979 1074 l 777 1074 l 715 1162 l 627 1074 l 424 1074 l 655 1265 z "},"ŵ":{"ha":1111,"x_min":35,"x_max":1107,"o":"m 35 738 l 210 738 l 311 342 l 526 738 l 597 738 l 701 342 l 914 738 l 1107 738 l 706 0 l 618 0 l 518 390 l 308 0 l 222 0 l 35 738 m 526 1042 l 673 1042 l 849 850 l 647 850 l 586 939 l 498 850 l 294 850 l 526 1042 z "},"Ŷ":{"ha":861,"x_min":45,"x_max":888,"o":"m 45 998 l 234 998 l 390 598 l 673 998 l 888 998 l 463 399 l 409 0 l 222 0 l 277 399 l 45 998 m 409 1265 l 557 1265 l 732 1074 l 530 1074 l 469 1162 l 381 1074 l 178 1074 l 409 1265 z "},"ŷ":{"ha":806,"x_min":28,"x_max":800,"o":"m 31 738 l 208 738 l 352 300 l 604 738 l 800 738 l 220 -270 l 28 -270 l 238 100 l 31 738 m 378 1042 l 526 1042 l 701 850 l 499 850 l 438 939 l 350 850 l 146 850 l 378 1042 z "},"ſ":{"ha":333,"x_min":9,"x_max":455,"o":"m 455 998 l 435 850 q 359 883 400 883 q 314 855 326 883 q 286 713 302 827 l 189 0 l 9 0 l 108 730 q 144 919 126 865 q 204 1008 161 974 q 313 1042 248 1042 q 455 998 395 1042 z "},"Ǻ":{"ha":1027,"x_min":-16,"x_max":928,"o":"m 522 998 l 680 998 l 928 0 l 747 0 l 694 212 l 300 212 l 185 0 l -16 0 l 522 998 m 648 389 l 568 716 l 393 389 l 648 389 m 643 1261 q 733 1225 698 1261 q 769 1130 769 1189 q 717 1010 769 1063 q 597 958 665 958 q 506 996 542 958 q 469 1089 469 1033 q 520 1210 469 1160 q 643 1261 572 1261 m 630 1174 q 583 1154 603 1174 q 563 1105 563 1133 q 576 1068 563 1082 q 611 1054 590 1054 q 656 1074 636 1054 q 675 1122 675 1095 q 662 1159 675 1145 q 630 1174 649 1174 m 673 1558 l 892 1558 l 606 1293 l 473 1293 l 673 1558 z "},"ǻ":{"ha":917,"x_min":39,"x_max":848,"o":"m 667 738 l 848 738 l 752 0 l 573 0 l 583 79 q 473 3 524 24 q 358 -19 422 -19 q 125 89 212 -19 q 39 340 39 197 q 94 548 39 449 q 241 702 149 646 q 435 757 334 757 q 560 726 503 757 q 654 635 617 694 l 667 738 m 400 142 q 516 172 467 142 q 599 266 566 202 q 633 396 633 330 q 582 537 633 484 q 449 590 532 590 q 286 519 353 590 q 218 335 218 448 q 269 195 218 248 q 400 142 320 142 m 528 1141 q 619 1105 583 1141 q 654 1010 654 1069 q 602 891 654 943 q 483 839 550 839 q 391 876 427 839 q 355 970 355 913 q 406 1091 355 1040 q 528 1141 457 1141 m 515 1055 q 468 1034 488 1055 q 448 986 448 1014 q 462 949 448 963 q 496 935 475 935 q 541 955 522 935 q 561 1002 561 975 q 548 1040 561 1025 q 515 1055 534 1055 m 589 1468 l 808 1468 l 522 1203 l 389 1203 l 589 1468 z "},"Ǽ":{"ha":1250,"x_min":-24,"x_max":1204,"o":"m 516 998 l 1204 998 l 1181 821 l 826 821 l 798 613 l 1155 613 l 1131 438 l 776 438 l 739 174 l 1097 174 l 1074 0 l 534 0 l 563 213 l 292 213 l 176 0 l -24 0 l 516 998 m 587 388 l 650 880 l 385 388 l 587 388 m 858 1360 l 1077 1360 l 791 1095 l 659 1095 l 858 1360 z "},"ǽ":{"ha":1500,"x_min":51,"x_max":1418,"o":"m 1411 314 l 810 314 q 1002 146 839 146 q 1185 214 1108 146 l 1345 132 q 1205 24 1296 66 q 1008 -19 1114 -19 q 879 0 935 -19 q 760 64 822 18 l 751 0 l 586 0 l 596 77 q 371 -19 508 -19 q 210 23 278 -19 q 97 153 142 65 q 51 339 51 240 q 106 546 51 448 q 255 701 161 645 q 448 757 349 757 q 572 725 514 757 q 667 633 630 692 l 682 757 l 847 757 l 836 675 q 1077 757 952 757 q 1317 651 1217 757 q 1418 393 1418 545 q 1411 314 1418 360 m 461 588 q 298 516 365 588 q 231 334 231 444 q 281 193 231 245 q 412 140 332 140 q 530 171 477 140 q 613 263 582 201 q 645 393 645 325 q 593 534 645 480 q 461 588 542 588 m 1232 447 q 1165 550 1212 514 q 1053 585 1118 585 q 931 552 986 585 q 835 447 876 519 l 1232 447 m 859 1137 l 1078 1137 l 793 872 l 660 872 l 859 1137 z "},"Ǿ":{"ha":1166,"x_min":56,"x_max":1114,"o":"m 998 871 q 1114 555 1114 739 q 1035 261 1114 399 q 825 49 956 123 q 524 -25 693 -25 q 265 37 372 -25 l 174 -68 l 92 0 l 181 102 q 56 433 56 231 q 133 732 56 595 q 343 945 210 868 q 635 1023 476 1023 q 916 943 800 1023 l 1002 1043 l 1084 972 l 998 871 m 307 247 l 794 804 q 631 846 723 846 q 438 793 526 846 q 295 644 349 741 q 241 444 241 547 q 307 247 241 330 m 872 730 l 391 180 q 535 150 452 150 q 811 266 697 150 q 925 545 925 381 q 872 730 925 651 m 751 1360 l 970 1360 l 684 1095 l 551 1095 l 751 1360 z "},"ǿ":{"ha":917,"x_min":31,"x_max":858,"o":"m 747 635 q 827 395 827 534 q 704 102 827 223 q 401 -19 581 -19 q 213 25 290 -19 l 109 -94 l 31 -23 l 133 94 q 55 325 55 191 q 111 542 55 443 q 266 699 168 640 q 474 757 365 757 q 667 706 583 757 l 777 833 l 858 762 l 747 635 m 257 237 l 547 569 q 462 585 509 585 q 294 505 353 585 q 235 334 235 425 q 257 237 235 280 m 625 496 l 334 163 q 413 149 370 149 q 587 225 526 149 q 648 401 648 302 q 625 496 648 456 m 584 1137 l 803 1137 l 517 872 l 385 872 l 584 1137 z "},"΄":{"ha":583,"x_min":272,"x_max":469,"o":"m 469 1112 l 405 852 l 272 852 l 277 1112 l 469 1112 z "},"΅":{"ha":583,"x_min":55,"x_max":638,"o":"m 465 1112 l 401 852 l 268 852 l 273 1112 l 465 1112 m 232 954 q 202 883 232 913 q 131 853 172 853 q 76 875 97 853 q 55 928 55 897 q 85 999 55 968 q 155 1028 115 1029 q 211 1006 189 1028 q 232 954 232 984 m 638 954 q 608 883 638 913 q 537 853 578 853 q 482 875 504 853 q 460 928 460 897 q 491 998 460 968 q 561 1028 522 1028 q 617 1006 595 1028 q 638 954 638 984 z "},"Ά":{"ha":1027,"x_min":-16,"x_max":928,"o":"m 522 998 l 680 998 l 928 0 l 747 0 l 694 212 l 300 212 l 185 0 l -16 0 l 522 998 m 648 389 l 568 716 l 393 389 l 648 389 m 330 1023 l 266 764 l 133 764 l 138 1023 l 330 1023 z "},"·":{"ha":389,"x_min":102,"x_max":330,"o":"m 330 644 q 297 563 330 596 q 216 530 264 530 q 136 563 169 530 q 102 644 102 596 q 135 724 102 692 q 216 757 168 757 q 297 724 264 757 q 330 644 330 691 z "},"Έ":{"ha":833,"x_min":-3,"x_max":819,"o":"m 277 998 l 819 998 l 795 821 l 443 821 l 414 614 l 768 614 l 746 439 l 392 439 l 357 174 l 713 174 l 689 0 l 146 0 l 277 998 m 194 1023 l 130 764 l -3 764 l 2 1023 l 194 1023 z "},"Ή":{"ha":1055,"x_min":-3,"x_max":1009,"o":"m 291 998 l 479 998 l 429 621 l 770 621 l 821 998 l 1009 998 l 873 0 l 686 0 l 748 453 l 404 453 l 343 0 l 157 0 l 291 998 m 194 1023 l 130 764 l -3 764 l 2 1023 l 194 1023 z "},"Ί":{"ha":499,"x_min":-3,"x_max":467,"o":"m 284 998 l 467 998 l 330 0 l 150 0 l 284 998 m 194 1023 l 130 764 l -3 764 l 2 1023 l 194 1023 z "},"Ό":{"ha":1216,"x_min":-3,"x_max":1163,"o":"m 690 1023 q 1029 890 896 1023 q 1163 555 1163 758 q 1084 261 1163 399 q 874 49 1005 123 q 572 -25 743 -25 q 232 101 359 -25 q 105 433 105 227 q 257 836 105 667 q 690 1023 427 1023 m 684 846 q 488 794 576 846 q 345 645 399 742 q 291 444 291 547 q 366 235 291 321 q 583 150 441 150 q 860 265 746 150 q 975 545 975 380 q 894 764 975 682 q 684 846 814 846 m 194 1023 l 130 764 l -3 764 l 2 1023 l 194 1023 z "},"Ύ":{"ha":1022,"x_min":-3,"x_max":1072,"o":"m 228 998 l 417 998 l 573 598 l 857 998 l 1072 998 l 646 399 l 592 0 l 405 0 l 460 399 l 228 998 m 194 1023 l 130 764 l -3 764 l 2 1023 l 194 1023 z "},"Ώ":{"ha":1237,"x_min":-3,"x_max":1158,"o":"m 864 174 l 1124 174 l 1100 0 l 637 0 l 665 212 q 975 608 975 353 q 898 782 975 716 q 690 847 822 847 q 431 752 534 847 q 327 508 327 656 q 532 212 327 328 l 503 0 l 48 0 l 72 174 l 332 174 q 144 521 144 306 q 308 881 145 741 q 703 1022 470 1022 q 1034 908 909 1022 q 1158 619 1158 795 q 864 174 1158 345 m 194 1023 l 130 764 l -3 764 l 2 1023 l 194 1023 z "},"ΐ":{"ha":333,"x_min":-70,"x_max":513,"o":"m 107 738 l 286 738 l 187 0 l 7 0 l 107 738 m 340 1112 l 276 852 l 143 852 l 149 1112 l 340 1112 m 107 954 q 77 883 107 913 q 6 853 47 853 q -49 875 -28 853 q -70 928 -70 897 q -40 999 -70 968 q 30 1028 -9 1029 q 86 1006 64 1028 q 107 954 107 984 m 513 954 q 483 883 513 913 q 412 853 453 853 q 357 875 379 853 q 336 928 336 897 q 366 998 336 968 q 436 1028 397 1028 q 492 1006 471 1028 q 513 954 513 984 z "},"Α":{"ha":1027,"x_min":-16,"x_max":928,"o":"m 522 998 l 680 998 l 928 0 l 747 0 l 694 212 l 300 212 l 185 0 l -16 0 l 522 998 m 648 389 l 568 716 l 393 389 l 648 389 z "},"Β":{"ha":806,"x_min":47,"x_max":720,"o":"m 180 998 l 336 998 q 548 967 479 998 q 660 872 617 937 q 702 733 702 808 q 672 615 702 671 q 586 523 642 560 q 720 276 720 430 q 677 130 720 196 q 572 32 635 63 q 392 0 510 0 l 47 0 l 180 998 m 315 602 l 349 602 q 452 613 425 602 q 498 654 479 624 q 517 722 517 685 q 500 782 517 757 q 456 816 484 807 q 345 825 429 825 l 315 602 m 260 177 l 372 173 q 496 206 457 173 q 534 297 534 239 q 510 372 534 339 q 446 419 486 406 q 293 433 406 433 l 260 177 z "},"Γ":{"ha":643,"x_min":44,"x_max":675,"o":"m 180 998 l 675 998 l 651 821 l 342 821 l 231 0 l 44 0 l 180 998 z "},"Δ":{"ha":1027,"x_min":-15,"x_max":929,"o":"m 907 0 l -15 0 l 7 159 l 498 998 l 663 998 l 929 159 l 907 0 m 730 174 l 554 745 l 225 174 l 730 174 z "},"Ε":{"ha":722,"x_min":35,"x_max":708,"o":"m 166 998 l 708 998 l 685 821 l 332 821 l 304 614 l 658 614 l 635 439 l 281 439 l 246 174 l 602 174 l 578 0 l 35 0 l 166 998 z "},"Ζ":{"ha":694,"x_min":12,"x_max":688,"o":"m 124 998 l 688 998 l 292 174 l 606 174 l 583 0 l 12 0 l 409 822 l 100 822 l 124 998 z "},"Η":{"ha":945,"x_min":46,"x_max":899,"o":"m 180 998 l 368 998 l 318 621 l 659 621 l 710 998 l 899 998 l 763 0 l 576 0 l 637 453 l 294 453 l 233 0 l 46 0 l 180 998 z "},"Θ":{"ha":1166,"x_min":56,"x_max":1114,"o":"m 1114 555 q 951 149 1114 323 q 523 -25 789 -25 q 183 100 310 -25 q 56 433 56 226 q 221 850 56 678 q 641 1023 387 1023 q 980 891 847 1023 q 1114 555 1114 760 m 241 444 q 321 230 241 311 q 533 150 400 150 q 812 265 699 150 q 925 545 925 380 q 845 763 925 681 q 634 846 766 846 q 347 718 452 846 q 241 444 241 591 m 416 594 l 772 594 l 748 412 l 392 412 l 416 594 z "},"Ι":{"ha":389,"x_min":39,"x_max":357,"o":"m 174 998 l 357 998 l 219 0 l 39 0 l 174 998 z "},"Κ":{"ha":861,"x_min":50,"x_max":878,"o":"m 183 998 l 371 998 l 325 659 l 646 998 l 878 998 l 444 541 l 787 0 l 578 0 l 296 444 l 236 0 l 50 0 l 183 998 z "},"Λ":{"ha":972,"x_min":-63,"x_max":886,"o":"m 886 0 l 703 0 l 524 720 l 138 0 l -63 0 l 471 998 l 638 998 l 886 0 z "},"Μ":{"ha":1250,"x_min":1,"x_max":1113,"o":"m 255 998 l 425 998 l 593 302 l 938 998 l 1099 998 l 1113 0 l 938 0 l 930 597 l 634 0 l 491 0 l 339 627 l 180 0 l 1 0 l 255 998 z "},"Ν":{"ha":1027,"x_min":48,"x_max":980,"o":"m 180 998 l 345 998 l 706 319 l 798 998 l 980 998 l 846 0 l 686 0 l 319 686 l 228 0 l 48 0 l 180 998 z "},"Ξ":{"ha":734,"x_min":5,"x_max":724,"o":"m 701 821 l 115 821 l 139 998 l 724 998 l 701 821 m 651 448 l 66 448 l 89 625 l 674 625 l 651 448 m 591 0 l 5 0 l 29 176 l 614 176 l 591 0 z "},"Ο":{"ha":1166,"x_min":56,"x_max":1114,"o":"m 641 1023 q 980 890 846 1023 q 1114 555 1114 758 q 1035 261 1114 399 q 824 49 956 123 q 523 -25 693 -25 q 183 101 310 -25 q 56 433 56 227 q 208 836 56 667 q 641 1023 377 1023 m 634 846 q 438 794 527 846 q 296 645 350 742 q 241 444 241 547 q 317 235 241 321 q 533 150 392 150 q 811 265 696 150 q 925 545 925 380 q 845 764 925 682 q 634 846 764 846 z "},"Π":{"ha":945,"x_min":44,"x_max":898,"o":"m 180 998 l 898 998 l 762 0 l 576 0 l 688 821 l 342 821 l 231 0 l 44 0 l 180 998 z "},"Ρ":{"ha":778,"x_min":48,"x_max":749,"o":"m 182 998 l 358 998 q 584 970 518 998 q 707 873 665 935 q 749 729 749 812 q 700 565 749 638 q 568 457 651 491 q 293 421 486 424 l 236 0 l 48 0 l 182 998 m 315 597 q 515 629 469 598 q 562 722 562 661 q 544 781 562 757 q 490 814 526 804 q 347 823 454 823 l 315 597 z "},"Σ":{"ha":696,"x_min":-52,"x_max":700,"o":"m -52 0 l 279 498 l 88 998 l 700 998 l 676 821 l 351 821 l 484 479 l 280 176 l 597 176 l 573 0 l -52 0 z "},"Τ":{"ha":583,"x_min":31,"x_max":663,"o":"m 54 998 l 663 998 l 641 820 l 429 820 l 321 0 l 135 0 l 243 820 l 31 820 l 54 998 z "},"Υ":{"ha":861,"x_min":67,"x_max":911,"o":"m 67 998 l 256 998 l 412 598 l 696 998 l 911 998 l 485 399 l 431 0 l 244 0 l 299 399 l 67 998 z "},"Φ":{"ha":1194,"x_min":49,"x_max":1144,"o":"m 632 100 l 618 0 l 433 0 l 446 100 q 155 212 261 119 q 49 456 49 305 q 190 774 50 653 q 556 909 330 895 l 568 998 l 754 998 l 742 909 q 1027 812 909 897 q 1144 556 1144 728 q 1006 232 1144 353 q 632 100 869 112 m 534 742 q 314 660 397 735 q 231 460 231 585 q 469 268 231 292 l 534 742 m 720 742 l 655 268 q 959 547 959 286 q 720 742 959 719 z "},"Χ":{"ha":945,"x_min":11,"x_max":937,"o":"m 170 998 l 362 998 l 503 689 l 720 998 l 937 998 l 586 504 l 815 0 l 621 0 l 469 338 l 229 0 l 11 0 l 385 524 l 170 998 z "},"Ψ":{"ha":1141,"x_min":105,"x_max":1119,"o":"m 1119 998 l 1070 639 q 628 250 1022 283 l 594 0 l 408 0 l 441 250 q 105 595 105 297 q 111 672 105 632 l 155 998 l 341 998 l 297 674 q 291 597 291 629 q 331 475 292 515 q 465 420 370 434 l 543 998 l 730 998 l 651 419 q 818 494 765 437 q 889 681 871 550 l 932 998 l 1119 998 z "},"Ω":{"ha":1187,"x_min":-1,"x_max":1109,"o":"m 814 174 l 1074 174 l 1050 0 l 587 0 l 616 212 q 925 608 925 353 q 849 782 925 716 q 640 847 772 847 q 381 752 485 847 q 277 508 277 656 q 482 212 277 328 l 454 0 l -1 0 l 22 174 l 282 174 q 95 521 95 306 q 258 881 96 741 q 654 1022 420 1022 q 984 908 860 1022 q 1109 619 1109 795 q 814 174 1109 345 z "},"Ϊ":{"ha":389,"x_min":31,"x_max":528,"o":"m 174 998 l 357 998 l 219 0 l 39 0 l 174 998 m 144 1265 q 203 1241 179 1265 q 227 1184 227 1217 q 195 1104 227 1137 q 115 1071 162 1071 q 54 1094 77 1071 q 31 1156 31 1118 q 65 1232 31 1199 q 144 1265 98 1265 m 444 1265 q 504 1241 479 1265 q 528 1184 528 1217 q 495 1104 528 1137 q 416 1071 463 1071 q 355 1094 378 1071 q 332 1156 332 1118 q 365 1232 332 1199 q 444 1265 399 1265 z "},"Ϋ":{"ha":861,"x_min":66,"x_max":910,"o":"m 66 998 l 256 998 l 412 598 l 695 998 l 910 998 l 484 399 l 431 0 l 243 0 l 298 399 l 66 998 m 393 1265 q 453 1241 429 1265 q 477 1184 477 1217 q 444 1104 477 1137 q 365 1071 412 1071 q 304 1094 327 1071 q 281 1156 281 1118 q 314 1232 281 1199 q 393 1265 348 1265 m 694 1265 q 753 1241 729 1265 q 777 1184 777 1217 q 745 1104 777 1137 q 665 1071 712 1071 q 604 1094 627 1071 q 581 1156 581 1118 q 615 1232 581 1199 q 694 1265 648 1265 z "},"ά":{"ha":917,"x_min":39,"x_max":848,"o":"m 667 738 l 848 738 l 752 0 l 573 0 l 583 79 q 473 3 524 24 q 358 -19 422 -19 q 125 89 212 -19 q 39 340 39 197 q 94 548 39 449 q 241 702 149 646 q 435 757 334 757 q 560 726 503 757 q 654 635 617 694 l 667 738 m 400 142 q 516 172 467 142 q 599 266 566 202 q 633 396 633 330 q 582 537 633 484 q 449 590 532 590 q 286 519 353 590 q 218 335 218 448 q 269 195 218 248 q 400 142 320 142 m 633 1112 l 568 852 l 435 852 l 441 1112 l 633 1112 z "},"έ":{"ha":608,"x_min":16,"x_max":576,"o":"m 536 65 q 277 -19 427 -19 q 95 32 175 -19 q 16 184 16 82 q 179 394 16 336 q 96 534 96 446 q 176 696 96 635 q 374 757 256 757 q 576 681 491 757 l 486 553 q 372 597 424 597 q 299 575 330 597 q 269 517 269 553 q 298 465 269 485 q 366 445 326 445 l 402 445 l 385 313 l 336 313 q 253 289 292 313 q 214 222 214 266 q 243 167 214 189 q 313 145 273 145 q 472 207 386 145 l 536 65 m 479 1112 l 414 852 l 281 852 l 287 1112 l 479 1112 z "},"ή":{"ha":833,"x_min":31,"x_max":734,"o":"m 634 -270 l 451 -270 l 541 404 q 549 497 549 465 q 452 590 549 590 q 359 557 404 590 q 290 469 313 525 q 246 261 266 412 l 212 0 l 31 0 l 131 738 l 311 738 l 300 663 q 516 757 404 757 q 672 697 611 757 q 734 543 734 637 q 722 414 734 503 l 634 -270 m 591 1112 l 527 852 l 394 852 l 399 1112 l 591 1112 z "},"ί":{"ha":333,"x_min":7,"x_max":341,"o":"m 107 738 l 286 738 l 187 0 l 7 0 l 107 738 m 341 1112 l 277 852 l 144 852 l 149 1112 l 341 1112 z "},"ΰ":{"ha":833,"x_min":49,"x_max":764,"o":"m 103 739 l 283 739 l 236 378 q 229 296 229 329 q 372 153 229 153 q 521 222 465 153 q 577 391 577 290 q 426 612 577 515 l 541 760 q 756 401 756 631 q 643 100 756 218 q 349 -19 529 -19 q 49 280 49 -19 q 57 388 49 330 l 103 739 m 591 1112 l 527 852 l 394 852 l 399 1112 l 591 1112 m 358 954 q 328 883 358 913 q 257 853 298 853 q 202 875 223 853 q 181 928 181 897 q 211 999 181 968 q 281 1028 241 1029 q 337 1006 315 1028 q 358 954 358 984 m 764 954 q 734 883 764 913 q 663 853 704 853 q 608 875 630 853 q 587 928 587 897 q 617 998 587 968 q 687 1028 648 1028 q 743 1006 722 1028 q 764 954 764 984 z "},"α":{"ha":917,"x_min":39,"x_max":848,"o":"m 667 738 l 848 738 l 752 0 l 573 0 l 583 79 q 473 3 524 24 q 358 -19 422 -19 q 125 89 212 -19 q 39 340 39 197 q 94 548 39 449 q 241 702 149 646 q 435 757 334 757 q 560 726 503 757 q 654 635 617 694 l 667 738 m 400 142 q 516 172 467 142 q 599 266 566 202 q 633 396 633 330 q 582 537 633 484 q 449 590 532 590 q 286 519 353 590 q 218 335 218 448 q 269 195 218 248 q 400 142 320 142 z "},"β":{"ha":859,"x_min":-17,"x_max":776,"o":"m 208 69 l 163 -270 l -17 -270 l 117 741 q 229 962 136 882 q 464 1042 322 1042 q 648 978 577 1042 q 720 814 720 915 q 585 607 720 680 q 776 351 776 538 q 669 84 776 188 q 395 -19 562 -19 q 208 69 282 -19 m 353 486 l 374 642 q 536 787 536 661 q 513 849 537 825 q 448 872 489 872 q 291 692 315 872 l 245 350 q 242 302 242 325 q 394 151 242 151 q 538 200 483 151 q 594 332 594 250 q 358 486 594 486 l 353 486 z "},"γ":{"ha":778,"x_min":37,"x_max":764,"o":"m 397 106 l 347 -270 l 166 -270 l 218 106 l 37 738 l 215 738 l 330 328 l 567 738 l 764 738 l 397 106 z "},"δ":{"ha":833,"x_min":29,"x_max":752,"o":"m 279 609 q 206 769 206 673 q 304 967 206 893 q 547 1042 403 1042 q 752 1013 635 1042 l 683 849 q 532 872 595 872 q 386 776 386 872 q 417 719 386 743 q 543 656 449 694 q 748 366 748 572 q 634 88 748 195 q 347 -19 521 -19 q 120 69 210 -19 q 29 283 30 157 q 279 609 29 511 m 210 296 q 254 190 210 232 q 366 149 298 149 q 508 208 448 149 q 568 349 568 267 q 525 458 568 415 q 412 501 481 501 q 272 439 333 501 q 210 296 211 376 m 412 669 z "},"ε":{"ha":608,"x_min":16,"x_max":576,"o":"m 536 65 q 277 -19 427 -19 q 95 32 175 -19 q 16 184 16 82 q 179 394 16 336 q 96 534 96 446 q 176 696 96 635 q 374 757 256 757 q 576 681 491 757 l 486 553 q 372 597 424 597 q 299 575 330 597 q 269 517 269 553 q 298 465 269 485 q 366 445 326 445 l 402 445 l 385 313 l 336 313 q 253 289 292 313 q 214 222 214 266 q 243 167 214 189 q 313 145 273 145 q 472 207 386 145 l 536 65 z "},"ζ":{"ha":661,"x_min":27,"x_max":711,"o":"m 126 -267 l 187 -103 q 302 -124 236 -124 q 403 -57 403 -124 q 363 -6 403 -19 q 195 44 270 16 q 74 138 120 71 q 27 307 27 204 q 118 577 27 448 q 434 853 208 707 l 157 853 l 179 1023 l 711 1023 l 691 869 q 314 567 416 692 q 212 328 212 442 q 240 241 212 275 q 372 179 269 208 q 585 -26 585 120 q 505 -221 586 -153 q 279 -289 424 -289 q 126 -267 214 -289 z "},"η":{"ha":833,"x_min":31,"x_max":734,"o":"m 634 -270 l 451 -270 l 541 404 q 549 497 549 465 q 452 590 549 590 q 359 557 404 590 q 290 469 313 525 q 246 261 266 412 l 212 0 l 31 0 l 131 738 l 311 738 l 300 663 q 516 757 404 757 q 672 697 611 757 q 734 543 734 637 q 722 414 734 503 l 634 -270 z "},"θ":{"ha":909,"x_min":51,"x_max":856,"o":"m 379 -19 q 130 98 208 -19 q 51 393 51 215 q 175 850 51 658 q 522 1042 300 1042 q 769 932 683 1042 q 855 629 856 823 q 737 174 855 366 q 379 -19 618 -19 m 249 597 l 680 597 q 631 819 681 764 q 500 874 581 874 q 249 597 316 874 m 656 424 l 227 424 q 274 207 227 265 q 403 149 321 149 q 656 424 589 149 z "},"ι":{"ha":333,"x_min":7,"x_max":286,"o":"m 107 738 l 286 738 l 187 0 l 7 0 l 107 738 z "},"κ":{"ha":806,"x_min":31,"x_max":812,"o":"m 129 739 l 307 739 l 273 481 l 564 738 l 812 738 l 439 409 l 766 0 l 549 0 l 257 363 l 209 0 l 31 0 l 129 739 z "},"λ":{"ha":806,"x_min":-58,"x_max":725,"o":"m 725 0 l 537 0 l 392 458 l 145 0 l -58 0 l 317 688 l 204 1023 l 391 1023 l 725 0 z "},"μ":{"ha":833,"x_min":-7,"x_max":764,"o":"m 664 0 l 484 0 l 494 75 q 304 -12 398 -12 q 215 32 250 -12 l 174 -270 l -7 -270 l 127 738 l 308 738 l 248 283 q 245 241 245 266 q 343 148 245 148 q 436 180 391 148 q 505 269 481 213 q 549 477 529 326 l 583 738 l 764 738 l 664 0 z "},"ν":{"ha":778,"x_min":37,"x_max":764,"o":"m 37 738 l 215 738 l 330 328 l 567 738 l 764 738 l 336 0 l 248 0 l 37 738 z "},"ξ":{"ha":661,"x_min":24,"x_max":701,"o":"m 126 -266 l 187 -103 q 302 -124 243 -124 q 402 -62 402 -124 q 381 -23 402 -35 q 266 14 361 -11 q 24 279 24 73 q 231 591 24 485 q 139 766 139 652 q 234 970 139 898 q 488 1042 329 1042 q 701 1010 595 1042 l 630 849 q 460 872 547 872 q 358 839 401 872 q 316 751 316 805 q 499 655 316 655 l 599 655 l 576 486 l 444 486 q 261 431 317 486 q 206 301 206 375 q 239 227 206 252 q 388 169 272 201 q 585 -26 585 114 q 505 -221 585 -154 q 276 -289 424 -289 q 126 -266 208 -289 z "},"ο":{"ha":889,"x_min":41,"x_max":812,"o":"m 464 757 q 643 711 562 757 q 768 583 723 666 q 812 395 812 499 q 690 102 812 223 q 386 -19 567 -19 q 135 76 229 -19 q 41 326 41 172 q 168 634 41 511 q 464 757 295 757 m 451 585 q 280 506 340 585 q 221 333 221 426 q 270 200 221 250 q 399 149 318 149 q 573 226 513 149 q 633 402 633 303 q 583 534 633 484 q 451 585 532 585 z "},"π":{"ha":937,"x_min":47,"x_max":925,"o":"m 903 568 l 779 568 l 703 0 l 523 0 l 598 568 l 345 568 l 269 0 l 89 0 l 164 568 l 47 568 l 69 738 l 925 738 l 903 568 z "},"ρ":{"ha":906,"x_min":-27,"x_max":827,"o":"m 205 100 l 153 -270 l -27 -270 l 57 363 q 203 653 82 550 q 478 757 325 757 q 735 651 643 757 q 827 395 827 545 q 706 100 827 218 q 410 -19 585 -19 q 205 100 282 -19 m 235 333 q 284 199 235 250 q 413 149 332 149 q 582 219 516 149 q 648 402 648 289 q 597 534 648 484 q 465 585 547 585 q 300 512 364 585 q 235 333 235 439 z "},"ς":{"ha":813,"x_min":39,"x_max":803,"o":"m 803 589 l 637 504 q 463 587 562 587 q 291 522 361 587 q 221 357 222 457 q 265 252 221 294 q 424 176 309 210 q 638 -30 638 111 q 555 -221 638 -153 q 332 -289 473 -289 q 179 -267 267 -289 l 240 -103 q 355 -124 288 -124 q 455 -60 455 -124 q 362 3 455 -20 q 39 330 39 80 q 164 642 39 526 q 492 757 288 757 q 674 712 589 757 q 803 589 760 667 z "},"σ":{"ha":996,"x_min":41,"x_max":983,"o":"m 583 738 l 983 738 l 961 568 l 768 568 q 812 389 812 494 q 692 95 812 209 q 386 -19 571 -19 q 135 75 229 -19 q 41 326 41 169 q 164 631 41 505 q 464 757 286 757 q 583 738 527 757 m 221 333 q 270 199 221 250 q 399 149 318 149 q 568 219 502 149 q 633 402 633 289 q 583 534 633 484 q 451 585 532 585 q 286 512 350 585 q 221 333 221 439 z "},"τ":{"ha":578,"x_min":47,"x_max":566,"o":"m 543 568 l 385 568 l 310 0 l 130 0 l 205 568 l 47 568 l 69 738 l 566 738 l 543 568 z "},"υ":{"ha":833,"x_min":49,"x_max":756,"o":"m 103 739 l 283 739 l 236 378 q 229 296 229 329 q 372 153 229 153 q 521 222 465 153 q 577 391 577 290 q 426 612 577 515 l 541 760 q 756 401 756 631 q 643 100 756 218 q 349 -19 529 -19 q 49 280 49 -19 q 57 388 49 330 l 103 739 z "},"φ":{"ha":1107,"x_min":37,"x_max":1029,"o":"m 569 -16 l 535 -270 l 355 -270 l 389 -15 q 129 90 222 1 q 37 326 37 179 q 366 751 37 604 l 393 572 q 216 328 216 479 q 412 157 216 180 l 490 752 q 583 757 543 757 q 909 664 789 757 q 1029 410 1029 571 q 569 -16 1029 24 m 648 581 l 592 157 q 848 400 848 180 q 648 581 848 573 z "},"χ":{"ha":778,"x_min":-104,"x_max":774,"o":"m 774 738 l 453 249 l 672 -270 l 481 -270 l 338 85 l 111 -270 l -104 -270 l 252 272 l 56 738 l 247 738 l 367 436 l 558 738 l 774 738 z "},"ψ":{"ha":1058,"x_min":56,"x_max":1013,"o":"m 551 -15 l 517 -270 l 336 -270 l 370 -15 q 56 311 56 22 q 62 391 56 349 l 108 738 l 288 738 l 245 412 q 237 315 237 349 q 274 209 237 242 q 394 164 311 176 l 470 738 l 650 738 l 574 163 q 716 226 662 175 q 792 439 771 277 l 832 738 l 1013 738 l 962 357 q 842 95 939 184 q 551 -15 745 7 z "},"ω":{"ha":1191,"x_min":31,"x_max":1112,"o":"m 538 90 q 320 -19 456 -19 q 107 60 184 -19 q 31 281 31 138 q 158 612 31 488 q 516 759 286 736 l 508 589 q 210 283 210 553 q 335 148 210 148 q 482 335 458 148 l 494 424 l 671 424 l 659 335 q 655 276 655 304 q 757 148 655 148 q 930 372 930 148 q 701 589 930 557 l 737 759 q 1014 642 917 739 q 1112 391 1112 545 q 1014 89 1112 197 q 734 -19 916 -19 q 538 90 593 -19 z "},"ϊ":{"ha":333,"x_min":-45,"x_max":451,"o":"m 107 738 l 286 738 l 187 0 l 7 0 l 107 738 m 67 1042 q 126 1018 102 1042 q 151 961 151 994 q 118 881 151 914 q 39 848 85 848 q -22 871 1 848 q -45 932 -45 895 q -12 1009 -45 976 q 67 1042 22 1042 m 368 1042 q 427 1018 403 1042 q 451 961 451 994 q 418 881 451 914 q 339 848 386 848 q 278 871 301 848 q 255 932 255 895 q 289 1009 255 976 q 368 1042 322 1042 z "},"ϋ":{"ha":833,"x_min":49,"x_max":756,"o":"m 103 739 l 283 739 l 236 378 q 229 296 229 329 q 372 153 229 153 q 521 222 465 153 q 577 391 577 290 q 426 612 577 515 l 541 760 q 756 401 756 631 q 643 100 756 218 q 349 -19 529 -19 q 49 280 49 -19 q 57 388 49 330 l 103 739 m 338 1042 q 398 1018 374 1042 q 422 961 422 994 q 389 881 422 914 q 310 848 357 848 q 249 871 272 848 q 226 932 226 895 q 259 1009 226 976 q 338 1042 293 1042 m 639 1042 q 698 1018 674 1042 q 722 961 722 994 q 690 881 722 914 q 610 848 657 848 q 549 871 572 848 q 526 932 526 895 q 560 1009 526 976 q 639 1042 593 1042 z "},"ό":{"ha":889,"x_min":41,"x_max":812,"o":"m 464 757 q 643 711 562 757 q 768 583 723 666 q 812 395 812 499 q 690 102 812 223 q 386 -19 567 -19 q 135 76 229 -19 q 41 326 41 172 q 168 634 41 511 q 464 757 295 757 m 451 585 q 280 506 340 585 q 221 333 221 426 q 270 200 221 250 q 399 149 318 149 q 573 226 513 149 q 633 402 633 303 q 583 534 633 484 q 451 585 532 585 m 619 1112 l 555 852 l 422 852 l 427 1112 l 619 1112 z "},"ύ":{"ha":833,"x_min":49,"x_max":756,"o":"m 103 739 l 283 739 l 236 378 q 229 296 229 329 q 372 153 229 153 q 521 222 465 153 q 577 391 577 290 q 426 612 577 515 l 541 760 q 756 401 756 631 q 643 100 756 218 q 349 -19 529 -19 q 49 280 49 -19 q 57 388 49 330 l 103 739 m 591 1112 l 527 852 l 394 852 l 399 1112 l 591 1112 z "},"ώ":{"ha":1191,"x_min":31,"x_max":1112,"o":"m 538 90 q 320 -19 456 -19 q 107 60 184 -19 q 31 281 31 138 q 158 612 31 488 q 516 759 286 736 l 508 589 q 210 283 210 553 q 335 148 210 148 q 482 335 458 148 l 494 424 l 671 424 l 659 335 q 655 276 655 304 q 757 148 655 148 q 930 372 930 148 q 701 589 930 557 l 737 759 q 1014 642 917 739 q 1112 391 1112 545 q 1014 89 1112 197 q 734 -19 916 -19 q 538 90 593 -19 m 770 1112 l 705 852 l 572 852 l 578 1112 l 770 1112 z "},"Ё":{"ha":722,"x_min":35,"x_max":708,"o":"m 166 998 l 708 998 l 685 821 l 332 821 l 304 614 l 658 614 l 635 439 l 281 439 l 246 174 l 602 174 l 578 0 l 35 0 l 166 998 m 302 1265 q 362 1241 338 1265 q 386 1184 386 1217 q 353 1104 386 1137 q 274 1071 321 1071 q 213 1094 236 1071 q 190 1156 190 1118 q 223 1232 190 1199 q 302 1265 257 1265 m 603 1265 q 662 1241 638 1265 q 686 1184 686 1217 q 654 1104 686 1137 q 574 1071 621 1071 q 513 1094 536 1071 q 490 1156 490 1118 q 524 1232 490 1199 q 603 1265 557 1265 z "},"Ђ":{"ha":926,"x_min":31,"x_max":850,"o":"m 291 0 l 98 0 l 208 810 l 31 810 l 56 998 l 608 998 l 582 810 l 400 810 l 375 621 l 438 621 q 671 598 594 621 q 799 506 749 575 q 850 323 850 437 q 775 72 850 168 q 574 -24 701 -24 q 407 16 500 -24 l 489 169 q 551 155 522 155 q 652 302 652 155 q 610 410 652 380 q 430 439 568 439 l 350 439 l 291 0 z "},"Ѓ":{"ha":644,"x_min":47,"x_max":687,"o":"m 182 998 l 677 998 l 652 812 l 345 812 l 235 0 l 47 0 l 182 998 m 468 1340 l 687 1340 l 401 1075 l 269 1075 l 468 1340 z "},"Є":{"ha":1080,"x_min":55,"x_max":1070,"o":"m 867 300 l 978 166 q 738 13 844 50 q 518 -25 631 -25 q 181 98 307 -25 q 55 420 55 220 q 239 850 55 677 q 667 1023 422 1023 q 1070 822 916 1023 l 920 695 q 634 838 806 838 q 412 767 517 838 q 271 577 307 696 l 652 577 l 629 404 l 247 404 q 349 219 263 281 q 546 157 434 157 q 704 190 631 157 q 867 300 778 222 m 241 488 z "},"Ѕ":{"ha":722,"x_min":-10,"x_max":690,"o":"m 690 859 l 553 738 q 397 846 469 846 q 337 825 361 846 q 313 774 313 804 q 335 712 313 746 q 467 562 357 678 q 543 475 525 500 q 607 363 587 415 q 626 258 626 311 q 541 56 626 138 q 321 -25 455 -25 q -10 168 118 -25 l 134 284 q 321 152 220 152 q 402 183 370 152 q 435 258 435 214 q 415 329 435 293 q 301 465 395 365 q 170 623 201 570 q 128 766 128 696 q 189 931 128 858 q 393 1023 264 1023 q 690 859 570 1023 z "},"І":{"ha":389,"x_min":39,"x_max":357,"o":"m 174 998 l 357 998 l 219 0 l 39 0 l 174 998 z "},"Ї":{"ha":389,"x_min":31,"x_max":528,"o":"m 174 998 l 357 998 l 219 0 l 39 0 l 174 998 m 144 1265 q 203 1241 179 1265 q 227 1184 227 1217 q 195 1104 227 1137 q 115 1071 162 1071 q 54 1094 77 1071 q 31 1156 31 1118 q 65 1232 31 1199 q 144 1265 98 1265 m 444 1265 q 504 1241 479 1265 q 528 1184 528 1217 q 495 1104 528 1137 q 416 1071 463 1071 q 355 1094 378 1071 q 332 1156 332 1118 q 365 1232 332 1199 q 444 1265 399 1265 z "},"Ј":{"ha":667,"x_min":-32,"x_max":623,"o":"m 436 998 l 623 998 l 530 294 q 482 96 511 154 q 399 6 454 38 q 273 -25 345 -25 q 101 28 182 -25 q -32 178 19 81 l 117 269 q 195 180 156 208 q 263 153 233 153 q 313 177 295 153 q 339 283 330 201 l 436 998 z "},"Љ":{"ha":1390,"x_min":-58,"x_max":1314,"o":"m 762 621 l 960 621 q 1216 538 1118 621 q 1314 304 1314 455 q 1258 120 1314 194 q 1127 23 1201 47 q 903 0 1053 0 l 701 0 l 524 733 l 144 0 l -58 0 l 462 998 l 654 998 l 762 621 m 806 451 l 877 181 l 907 181 q 1034 189 998 181 q 1095 225 1070 196 q 1120 303 1120 254 q 935 451 1120 451 l 806 451 z "},"Њ":{"ha":1314,"x_min":46,"x_max":1240,"o":"m 572 0 l 631 439 l 298 439 l 239 0 l 46 0 l 181 998 l 373 998 l 322 621 l 656 621 l 707 998 l 899 998 l 848 621 l 901 621 q 1144 546 1048 621 q 1240 332 1240 471 q 1224 215 1240 281 q 1156 95 1209 149 q 1040 20 1102 40 q 854 0 978 0 l 572 0 m 823 439 l 789 181 l 837 181 q 959 191 917 181 q 1026 232 1000 201 q 1051 311 1051 262 q 895 439 1051 439 l 863 439 l 823 439 z "},"Ћ":{"ha":909,"x_min":31,"x_max":833,"o":"m 400 810 l 375 621 l 438 621 q 668 599 597 621 q 787 515 740 576 q 833 353 833 454 q 826 258 833 314 l 791 0 l 598 0 l 634 253 q 640 307 640 288 q 617 390 640 361 q 556 429 595 418 q 431 439 516 439 l 350 439 l 291 0 l 98 0 l 208 810 l 31 810 l 56 998 l 608 998 l 582 810 l 400 810 z "},"Ќ":{"ha":859,"x_min":50,"x_max":876,"o":"m 184 998 l 376 998 l 330 654 l 647 998 l 876 998 l 479 564 l 762 0 l 549 0 l 325 465 l 301 443 l 241 0 l 50 0 l 184 998 m 558 1340 l 777 1340 l 492 1075 l 359 1075 l 558 1340 z "},"Ў":{"ha":928,"x_min":-5,"x_max":972,"o":"m 383 231 l 136 998 l 349 998 l 509 441 l 776 998 l 972 998 l 609 284 q 434 34 511 92 q 254 -23 357 -23 q -5 122 99 -23 l 136 248 q 206 177 176 194 q 279 160 237 160 q 383 231 334 160 m 300 1263 l 450 1263 q 485 1225 462 1236 q 569 1208 519 1208 q 649 1222 615 1208 q 703 1263 682 1236 l 852 1263 q 748 1125 826 1176 q 551 1074 671 1074 q 362 1126 425 1074 q 300 1263 300 1179 z "},"Џ":{"ha":945,"x_min":46,"x_max":899,"o":"m 46 0 l 181 998 l 373 998 l 262 171 l 595 171 l 707 998 l 899 998 l 764 0 l 494 0 l 473 -149 l 296 -149 l 316 0 l 46 0 z "},"А":{"ha":1027,"x_min":-16,"x_max":928,"o":"m 522 998 l 680 998 l 928 0 l 747 0 l 694 212 l 300 212 l 185 0 l -16 0 l 522 998 m 648 389 l 568 716 l 393 389 l 648 389 z "},"Б":{"ha":799,"x_min":48,"x_max":715,"o":"m 48 0 l 183 998 l 704 998 l 680 812 l 347 812 l 319 606 l 361 606 q 625 522 536 606 q 715 309 715 437 q 670 138 715 212 q 555 32 625 63 q 328 0 486 0 l 48 0 m 297 437 l 262 181 l 310 181 q 423 183 402 181 q 471 201 444 186 q 511 242 498 216 q 525 305 525 269 q 486 400 525 363 q 336 437 447 437 l 297 437 z "},"В":{"ha":806,"x_min":47,"x_max":720,"o":"m 180 998 l 336 998 q 548 967 479 998 q 660 872 617 937 q 702 733 702 808 q 672 615 702 671 q 586 523 642 560 q 720 276 720 430 q 677 130 720 196 q 572 32 635 63 q 392 0 510 0 l 47 0 l 180 998 m 315 602 l 349 602 q 452 613 425 602 q 498 654 479 624 q 517 722 517 685 q 500 782 517 757 q 456 816 484 807 q 345 825 429 825 l 315 602 m 260 177 l 372 173 q 496 206 457 173 q 534 297 534 239 q 510 372 534 339 q 446 419 486 406 q 293 433 406 433 l 260 177 z "},"Г":{"ha":644,"x_min":47,"x_max":677,"o":"m 182 998 l 677 998 l 652 812 l 345 812 l 235 0 l 47 0 l 182 998 z "},"Д":{"ha":1082,"x_min":-74,"x_max":1025,"o":"m 511 998 l 703 998 l 913 178 l 1025 178 l 980 -149 l 795 -149 l 816 0 l 130 0 l 110 -149 l -74 -149 l -29 178 l 81 178 l 511 998 m 570 738 l 279 178 l 713 178 l 570 738 z "},"Е":{"ha":722,"x_min":35,"x_max":708,"o":"m 166 998 l 708 998 l 685 821 l 332 821 l 304 614 l 658 614 l 635 439 l 281 439 l 246 174 l 602 174 l 578 0 l 35 0 l 166 998 z "},"Ж":{"ha":1292,"x_min":-51,"x_max":1308,"o":"m 542 425 l 511 461 l 176 0 l -51 0 l 399 579 l 128 998 l 351 998 l 568 629 l 618 998 l 810 998 l 760 629 l 1065 998 l 1308 998 l 902 554 l 1192 0 l 983 0 l 764 456 l 734 427 l 675 0 l 483 0 l 542 425 z "},"З":{"ha":714,"x_min":-69,"x_max":632,"o":"m 88 256 q 179 174 142 193 q 263 156 216 156 q 378 192 334 156 q 423 289 423 227 q 387 388 423 340 q 237 437 351 437 l 197 437 l 220 606 l 262 606 q 396 650 357 606 q 435 750 435 694 q 406 825 435 795 q 328 855 376 855 q 191 787 269 855 l 96 911 q 238 1002 180 981 q 357 1023 296 1023 q 563 958 494 1023 q 632 793 632 893 q 456 550 632 618 q 616 295 616 467 q 524 62 616 151 q 276 -26 432 -26 q 97 5 180 -26 q -69 153 14 36 l 88 256 z "},"И":{"ha":945,"x_min":42,"x_max":902,"o":"m 902 998 l 766 0 l 580 0 l 679 662 l 208 0 l 42 0 l 177 998 l 367 998 l 257 308 l 745 998 l 902 998 z "},"Й":{"ha":945,"x_min":42,"x_max":902,"o":"m 902 998 l 766 0 l 580 0 l 679 662 l 208 0 l 42 0 l 177 998 l 367 998 l 257 308 l 745 998 l 902 998 m 313 1263 l 463 1263 q 498 1225 475 1236 q 582 1208 532 1208 q 662 1222 628 1208 q 715 1263 695 1236 l 865 1263 q 761 1125 839 1176 q 564 1074 684 1074 q 375 1126 438 1074 q 313 1263 313 1179 z "},"К":{"ha":859,"x_min":50,"x_max":876,"o":"m 184 998 l 376 998 l 330 654 l 647 998 l 876 998 l 479 564 l 762 0 l 549 0 l 325 465 l 301 443 l 241 0 l 50 0 l 184 998 z "},"Л":{"ha":977,"x_min":-58,"x_max":903,"o":"m 701 0 l 524 733 l 144 0 l -58 0 l 462 998 l 654 998 l 903 0 l 701 0 z "},"М":{"ha":1250,"x_min":1,"x_max":1113,"o":"m 255 998 l 425 998 l 593 302 l 938 998 l 1099 998 l 1113 0 l 938 0 l 930 597 l 634 0 l 491 0 l 339 627 l 180 0 l 1 0 l 255 998 z "},"Н":{"ha":945,"x_min":46,"x_max":899,"o":"m 180 998 l 368 998 l 318 621 l 659 621 l 710 998 l 899 998 l 763 0 l 576 0 l 637 453 l 294 453 l 233 0 l 46 0 l 180 998 z "},"О":{"ha":1166,"x_min":56,"x_max":1114,"o":"m 641 1023 q 980 890 846 1023 q 1114 555 1114 758 q 1035 261 1114 399 q 824 49 956 123 q 523 -25 693 -25 q 183 101 310 -25 q 56 433 56 227 q 208 836 56 667 q 641 1023 377 1023 m 634 846 q 438 794 527 846 q 296 645 350 742 q 241 444 241 547 q 317 235 241 321 q 533 150 392 150 q 811 265 696 150 q 925 545 925 380 q 845 764 925 682 q 634 846 764 846 z "},"П":{"ha":945,"x_min":42,"x_max":902,"o":"m 177 998 l 902 998 l 767 0 l 576 0 l 686 820 l 345 820 l 235 0 l 42 0 l 177 998 z "},"Р":{"ha":778,"x_min":48,"x_max":749,"o":"m 182 998 l 358 998 q 584 970 518 998 q 707 873 665 935 q 749 729 749 812 q 700 565 749 638 q 568 457 651 491 q 293 421 486 424 l 236 0 l 48 0 l 182 998 m 315 597 q 515 629 469 598 q 562 722 562 661 q 544 781 562 757 q 490 814 526 804 q 347 823 454 823 l 315 597 z "},"С":{"ha":1083,"x_min":59,"x_max":1034,"o":"m 1034 869 l 897 743 q 789 821 853 793 q 651 848 726 848 q 451 795 547 848 q 302 653 355 741 q 249 465 249 565 q 342 240 249 330 q 583 150 436 150 q 854 241 739 150 l 964 95 q 570 -25 794 -25 q 303 35 413 -25 q 126 210 193 94 q 59 460 59 326 q 138 738 59 605 q 352 946 217 870 q 646 1023 487 1023 q 1034 869 870 1023 z "},"Т":{"ha":583,"x_min":31,"x_max":663,"o":"m 54 998 l 663 998 l 641 820 l 429 820 l 321 0 l 135 0 l 243 820 l 31 820 l 54 998 z "},"У":{"ha":928,"x_min":-5,"x_max":972,"o":"m 383 231 l 136 998 l 349 998 l 509 441 l 776 998 l 972 998 l 609 284 q 434 34 511 92 q 254 -23 357 -23 q -5 122 99 -23 l 136 248 q 206 177 176 194 q 279 160 237 160 q 383 231 334 160 z "},"Ф":{"ha":1021,"x_min":25,"x_max":998,"o":"m 662 998 l 644 869 q 922 788 847 869 q 998 595 998 708 q 938 409 998 492 q 791 299 879 326 q 563 271 704 271 l 526 0 l 338 0 l 376 271 q 161 309 232 272 q 57 411 90 346 q 25 547 25 477 q 63 699 25 622 q 182 822 102 777 q 456 869 263 868 l 473 998 l 662 998 m 399 444 l 432 696 l 384 696 q 241 652 276 696 q 207 559 207 607 q 358 444 207 444 l 399 444 m 621 696 l 585 444 l 634 444 q 722 453 686 444 q 785 499 759 463 q 810 581 810 535 q 660 696 810 696 l 621 696 z "},"Х":{"ha":945,"x_min":11,"x_max":937,"o":"m 170 998 l 362 998 l 503 689 l 720 998 l 937 998 l 586 504 l 815 0 l 621 0 l 469 338 l 229 0 l 11 0 l 385 524 l 170 998 z "},"Ц":{"ha":1007,"x_min":47,"x_max":991,"o":"m 47 0 l 182 998 l 374 998 l 262 171 l 596 171 l 708 998 l 899 998 l 789 171 l 991 171 l 947 -149 l 770 -149 l 789 0 l 47 0 z "},"Ч":{"ha":838,"x_min":66,"x_max":792,"o":"m 524 437 l 461 437 q 207 468 275 437 q 102 551 138 498 q 66 704 66 603 q 73 800 66 745 l 100 998 l 292 998 l 265 803 q 260 749 260 768 q 277 674 260 703 q 322 633 294 646 q 418 621 350 621 l 549 621 l 600 998 l 792 998 l 657 0 l 465 0 l 524 437 z "},"Ш":{"ha":1346,"x_min":47,"x_max":1300,"o":"m 533 171 l 645 998 l 837 998 l 725 171 l 996 171 l 1108 998 l 1300 998 l 1165 0 l 47 0 l 182 998 l 374 998 l 262 171 l 533 171 z "},"Щ":{"ha":1407,"x_min":46,"x_max":1391,"o":"m 996 171 l 1107 998 l 1299 998 l 1189 171 l 1391 171 l 1348 -149 l 1170 -149 l 1189 0 l 46 0 l 181 998 l 373 998 l 262 171 l 532 171 l 644 998 l 836 998 l 724 171 l 996 171 m 1346 0 z "},"Ъ":{"ha":852,"x_min":0,"x_max":777,"o":"m 113 0 l 223 819 l 0 819 l 24 998 l 436 998 l 386 621 l 427 621 q 583 596 505 621 q 719 498 661 571 q 777 313 777 425 q 728 132 777 206 q 608 29 680 58 q 392 0 537 0 l 113 0 m 363 451 l 326 181 l 374 181 q 492 190 452 181 q 561 233 533 199 q 589 315 589 267 q 540 415 589 379 q 402 451 491 451 l 363 451 z "},"Ы":{"ha":1175,"x_min":47,"x_max":1129,"o":"m 941 998 l 1129 998 l 995 0 l 806 0 l 941 998 m 320 621 l 362 621 q 617 537 523 621 q 712 313 712 454 q 663 132 712 206 q 543 29 614 58 q 326 0 471 0 l 47 0 l 182 998 l 370 998 l 320 621 m 297 451 l 260 181 l 309 181 q 427 190 386 181 q 495 233 468 199 q 523 315 523 267 q 477 413 523 376 q 336 451 431 451 l 297 451 z "},"Ь":{"ha":786,"x_min":47,"x_max":711,"o":"m 319 621 l 361 621 q 616 537 522 621 q 711 313 711 454 q 662 132 711 206 q 542 29 613 58 q 326 0 471 0 l 47 0 l 182 998 l 370 998 l 319 621 m 296 451 l 260 181 l 308 181 q 426 190 385 181 q 495 233 467 199 q 522 315 522 267 q 476 413 522 376 q 336 451 430 451 l 296 451 z "},"Э":{"ha":1053,"x_min":-8,"x_max":1004,"o":"m 408 404 l 431 577 l 814 577 q 724 767 804 695 q 521 838 644 838 q 192 695 344 838 l 77 822 q 294 970 170 918 q 538 1023 418 1023 q 865 904 726 1023 q 1004 579 1004 785 q 838 146 1004 319 q 420 -26 672 -26 q 211 5 316 -26 q -8 166 105 37 l 139 300 q 421 157 257 157 q 642 218 542 157 q 787 404 742 279 l 408 404 m 816 511 z "},"Ю":{"ha":1514,"x_min":46,"x_max":1466,"o":"m 318 621 l 448 621 q 1010 1023 644 1023 q 1335 894 1205 1023 q 1466 574 1466 766 q 1290 150 1466 325 q 876 -25 1115 -25 q 670 18 764 -25 q 516 133 575 61 q 440 265 457 205 q 422 437 422 325 l 294 437 l 235 0 l 46 0 l 181 998 l 369 998 l 318 621 m 1274 547 q 1199 748 1274 659 q 989 837 1125 837 q 729 722 846 837 q 612 437 612 607 q 696 237 612 315 q 900 159 780 159 q 1162 275 1050 159 q 1274 547 1274 391 z "},"Я":{"ha":819,"x_min":-16,"x_max":774,"o":"m 774 998 l 640 0 l 450 0 l 504 401 l 446 401 l 191 0 l -16 0 l 271 439 q 119 677 119 506 q 181 868 119 785 q 328 975 243 952 q 572 998 413 998 l 774 998 m 529 587 l 559 812 l 497 812 q 392 805 424 812 q 334 765 360 798 q 309 688 309 732 q 459 587 309 587 l 529 587 z "},"а":{"ha":917,"x_min":39,"x_max":848,"o":"m 667 738 l 848 738 l 752 0 l 573 0 l 583 79 q 473 3 524 24 q 358 -19 422 -19 q 125 89 212 -19 q 39 340 39 197 q 94 548 39 449 q 241 702 149 646 q 435 757 334 757 q 560 726 503 757 q 654 635 617 694 l 667 738 m 400 142 q 516 172 467 142 q 599 266 566 202 q 633 396 633 330 q 582 537 633 484 q 449 590 532 590 q 286 519 353 590 q 218 335 218 448 q 269 195 218 248 q 400 142 320 142 z "},"б":{"ha":922,"x_min":71,"x_max":894,"o":"m 894 1038 l 870 867 q 673 856 795 856 q 490 845 550 856 q 377 796 431 834 q 298 709 323 758 q 251 562 272 660 q 548 753 359 753 q 764 670 671 753 q 857 436 857 587 q 727 114 857 248 q 409 -19 597 -19 q 225 33 302 -19 q 110 160 149 84 q 71 373 71 235 q 115 684 71 553 q 229 891 159 814 q 414 1000 299 968 q 767 1031 528 1031 q 894 1038 836 1031 m 667 409 q 621 533 667 483 q 492 583 574 583 q 328 509 395 583 q 260 339 260 436 q 309 203 260 253 q 433 154 358 154 q 596 227 526 154 q 667 409 667 300 z "},"в":{"ha":760,"x_min":51,"x_max":673,"o":"m 51 0 l 151 738 l 437 738 q 605 685 547 738 q 663 559 663 632 q 526 398 663 439 q 673 208 673 340 q 379 0 673 0 l 51 0 m 297 443 l 379 443 q 447 467 417 443 q 477 528 477 492 q 379 604 477 604 l 319 604 l 297 443 m 254 136 l 346 136 q 473 220 473 136 q 352 315 473 315 l 279 315 l 254 136 z "},"г":{"ha":546,"x_min":31,"x_max":562,"o":"m 131 738 l 562 738 l 538 562 l 293 562 l 217 0 l 31 0 l 131 738 z "},"д":{"ha":878,"x_min":-75,"x_max":819,"o":"m 119 0 l 99 -128 l -75 -128 l -36 157 l 75 157 l 408 738 l 528 738 l 707 157 l 819 157 l 781 -128 l 604 -128 l 621 0 l 119 0 m 513 157 l 441 506 l 430 506 l 264 157 l 513 157 z "},"е":{"ha":889,"x_min":41,"x_max":817,"o":"m 584 216 l 743 134 q 601 22 690 63 q 405 -19 513 -19 q 139 76 236 -19 q 41 328 41 171 q 163 632 41 508 q 457 757 285 757 q 642 711 561 757 q 770 579 723 666 q 817 391 817 492 q 810 316 817 359 l 221 316 q 272 194 224 239 q 404 149 319 149 q 584 216 505 149 m 630 449 q 562 552 610 517 q 448 587 515 587 q 328 551 381 587 q 246 449 274 515 l 630 449 z "},"ж":{"ha":1161,"x_min":-82,"x_max":1190,"o":"m 463 252 l 435 289 l 168 0 l -82 0 l 338 406 l 72 738 l 279 738 l 490 452 l 528 738 l 713 738 l 675 452 l 963 738 l 1190 738 l 816 393 l 1110 0 l 882 0 l 692 294 l 648 252 l 614 0 l 429 0 l 463 252 z "},"з":{"ha":654,"x_min":-5,"x_max":565,"o":"m 119 681 q 335 757 218 757 q 502 707 439 757 q 565 571 565 656 q 541 478 565 519 q 440 402 517 437 q 550 219 550 334 q 476 49 550 114 q 254 -16 401 -16 q -5 68 82 -16 l 115 197 q 235 149 173 149 q 315 174 284 149 q 347 228 347 199 q 324 284 347 255 q 260 313 301 313 l 212 313 l 230 445 l 267 445 q 342 469 314 445 q 370 528 370 493 q 349 578 370 559 q 295 597 328 597 q 174 553 248 597 l 119 681 z "},"и":{"ha":833,"x_min":31,"x_max":767,"o":"m 130 0 l 31 0 l 130 738 l 311 738 l 256 307 l 671 738 l 767 738 l 667 0 l 483 0 l 543 422 l 130 0 z "},"й":{"ha":833,"x_min":31,"x_max":772,"o":"m 130 0 l 31 0 l 130 738 l 311 738 l 256 307 l 671 738 l 767 738 l 667 0 l 483 0 l 543 422 l 130 0 m 220 1063 l 370 1063 q 404 1024 381 1036 q 488 1007 438 1007 q 568 1021 534 1007 q 622 1063 602 1035 l 772 1063 q 668 924 745 975 q 470 873 590 873 q 282 925 345 873 q 220 1063 219 978 z "},"к":{"ha":802,"x_min":31,"x_max":808,"o":"m 131 738 l 316 738 l 277 446 l 578 738 l 808 738 l 439 385 l 740 0 l 505 0 l 298 268 l 247 224 l 216 0 l 31 0 l 131 738 z "},"л":{"ha":761,"x_min":-57,"x_max":692,"o":"m 692 0 l 498 0 l 379 452 l 136 0 l -57 0 l 357 738 l 477 738 l 692 0 z "},"м":{"ha":1118,"x_min":-41,"x_max":1028,"o":"m 532 273 l 822 738 l 943 738 l 1028 0 l 847 0 l 807 433 l 529 0 l 453 0 l 296 433 l 139 0 l -41 0 l 243 738 l 365 738 l 532 273 z "},"н":{"ha":833,"x_min":31,"x_max":767,"o":"m 216 0 l 31 0 l 131 738 l 316 738 l 280 472 l 545 472 l 581 738 l 767 738 l 667 0 l 481 0 l 523 306 l 258 306 l 216 0 z "},"о":{"ha":889,"x_min":41,"x_max":812,"o":"m 464 757 q 643 711 562 757 q 768 583 723 666 q 812 395 812 499 q 690 102 812 223 q 386 -19 567 -19 q 135 76 229 -19 q 41 326 41 172 q 168 634 41 511 q 464 757 295 757 m 451 585 q 280 506 340 585 q 221 333 221 426 q 270 200 221 250 q 399 149 318 149 q 573 226 513 149 q 633 402 633 303 q 583 534 633 484 q 451 585 532 585 z "},"п":{"ha":833,"x_min":31,"x_max":767,"o":"m 216 0 l 31 0 l 131 738 l 767 738 l 667 0 l 481 0 l 557 559 l 292 559 l 216 0 z "},"р":{"ha":917,"x_min":-6,"x_max":839,"o":"m 175 -270 l -6 -270 l 126 738 l 304 738 l 294 659 q 405 735 353 714 q 519 757 456 757 q 753 649 667 757 q 839 399 839 541 q 784 191 839 290 q 636 36 729 92 q 444 -19 544 -19 q 318 12 376 -19 q 224 103 260 43 l 175 -270 m 477 596 q 362 566 412 596 q 278 472 312 536 q 245 342 245 408 q 295 201 245 254 q 429 148 346 148 q 592 219 525 148 q 659 403 659 290 q 608 543 659 490 q 477 596 557 596 z "},"с":{"ha":889,"x_min":41,"x_max":805,"o":"m 805 585 l 652 502 q 477 585 587 585 q 346 553 403 585 q 255 462 289 522 q 221 336 221 402 q 275 199 221 250 q 422 147 328 147 q 621 235 551 147 l 763 134 q 613 22 703 62 q 412 -19 523 -19 q 141 76 240 -19 q 41 327 41 171 q 164 631 41 505 q 480 757 287 757 q 805 585 698 757 z "},"т":{"ha":745,"x_min":37,"x_max":749,"o":"m 61 738 l 749 738 l 725 562 l 480 562 l 404 0 l 218 0 l 293 562 l 37 562 l 61 738 z "},"у":{"ha":778,"x_min":28,"x_max":800,"o":"m 31 738 l 208 738 l 352 300 l 604 738 l 800 738 l 220 -270 l 28 -270 l 238 100 l 31 738 z "},"ф":{"ha":1413,"x_min":41,"x_max":1345,"o":"m 562 75 q 344 -22 475 -22 q 125 72 210 -22 q 41 296 41 165 q 157 622 41 489 q 437 754 273 754 q 642 661 570 754 l 690 1023 l 874 1023 l 825 661 q 1050 757 914 757 q 1263 668 1180 757 q 1345 438 1345 580 q 1223 111 1345 241 q 945 -19 1101 -19 q 747 79 813 -19 l 700 -270 l 515 -270 l 562 75 m 1158 412 q 1113 537 1158 489 q 993 585 1068 585 q 833 506 896 585 q 770 321 770 427 q 815 192 770 235 q 932 149 861 149 q 1092 228 1025 149 q 1158 412 1158 307 m 616 410 q 572 537 616 491 q 453 583 528 583 q 295 505 360 583 q 229 329 229 427 q 274 200 229 252 q 396 148 319 148 q 554 221 492 148 q 616 410 616 294 z "},"х":{"ha":778,"x_min":-20,"x_max":733,"o":"m 41 738 l 240 738 l 369 528 l 522 738 l 733 738 l 465 371 l 692 0 l 493 0 l 356 223 l 191 0 l -20 0 l 260 380 l 41 738 z "},"ц":{"ha":899,"x_min":31,"x_max":867,"o":"m 691 178 l 867 178 l 825 -130 l 649 -130 l 666 0 l 31 0 l 131 738 l 317 738 l 241 178 l 505 178 l 582 738 l 767 738 l 691 178 z "},"ч":{"ha":772,"x_min":49,"x_max":705,"o":"m 460 293 l 332 293 q 158 321 222 293 q 71 390 94 349 q 49 492 49 431 q 52 542 49 515 l 79 738 l 265 738 l 245 593 q 241 537 241 559 q 256 485 241 502 q 303 464 271 469 q 429 460 334 460 l 482 460 l 520 738 l 705 738 l 606 0 l 420 0 l 460 293 z "},"ш":{"ha":1263,"x_min":31,"x_max":1196,"o":"m 1095 0 l 31 0 l 131 738 l 317 738 l 241 177 l 494 177 l 570 738 l 756 738 l 680 177 l 934 177 l 1010 738 l 1196 738 l 1095 0 z "},"щ":{"ha":1328,"x_min":31,"x_max":1297,"o":"m 1118 178 l 1297 178 l 1255 -130 l 1079 -130 l 1096 0 l 31 0 l 130 738 l 316 738 l 240 177 l 494 177 l 570 738 l 755 738 l 680 177 l 933 177 l 1009 738 l 1195 738 l 1118 178 m 1263 0 z "},"ъ":{"ha":798,"x_min":14,"x_max":720,"o":"m 201 573 l 14 573 l 36 738 l 408 738 l 372 472 l 427 472 q 658 409 596 472 q 720 250 720 345 q 691 125 720 182 q 623 42 663 68 q 537 8 583 16 q 383 0 492 0 l 123 0 l 201 573 m 328 142 l 384 142 q 495 168 465 142 q 526 243 526 193 q 428 321 526 321 l 351 321 l 328 142 z "},"ы":{"ha":1090,"x_min":31,"x_max":1023,"o":"m 838 738 l 1023 738 l 924 0 l 739 0 l 838 738 m 316 738 l 280 472 l 335 472 q 566 409 505 472 q 628 250 628 345 q 600 125 628 182 q 531 42 572 68 q 445 8 491 16 q 292 0 399 0 l 31 0 l 131 738 l 316 738 m 235 142 l 292 142 q 404 168 373 142 q 434 243 434 193 q 336 321 434 321 l 260 321 l 235 142 z "},"ь":{"ha":705,"x_min":31,"x_max":628,"o":"m 316 738 l 280 472 l 335 472 q 566 409 505 472 q 628 250 628 345 q 600 125 628 182 q 531 42 572 68 q 445 8 491 16 q 292 0 399 0 l 31 0 l 131 738 l 316 738 m 235 142 l 292 142 q 404 168 373 142 q 434 243 434 193 q 336 321 434 321 l 260 321 l 235 142 z "},"э":{"ha":842,"x_min":-16,"x_max":768,"o":"m 559 292 l 311 292 l 333 452 l 579 452 q 530 548 579 509 q 391 588 480 588 q 180 504 274 588 l 37 589 q 404 757 190 757 q 666 668 564 757 q 768 420 768 578 q 645 107 768 233 q 318 -19 522 -19 q 137 10 220 -19 q -16 135 54 39 l 143 235 q 334 146 195 146 q 559 292 496 146 z "},"ю":{"ha":1208,"x_min":31,"x_max":1135,"o":"m 217 0 l 31 0 l 131 738 l 317 738 l 276 446 l 375 446 q 545 679 427 600 q 795 757 663 757 q 1033 673 930 757 q 1135 428 1135 589 q 1010 109 1135 237 q 689 -19 885 -19 q 460 59 552 -19 q 357 276 369 137 l 254 276 l 217 0 m 947 406 q 901 532 947 482 q 772 583 855 583 q 608 507 676 583 q 540 336 540 431 q 587 202 540 251 q 713 154 634 154 q 879 227 810 154 q 947 406 947 299 z "},"я":{"ha":733,"x_min":-50,"x_max":667,"o":"m 193 305 q 85 488 85 367 q 119 609 85 549 q 200 697 154 669 q 295 732 247 726 q 481 738 344 738 l 667 738 l 567 0 l 381 0 l 417 267 l 361 267 l 159 0 l -50 0 l 193 305 m 435 406 l 459 583 l 404 583 q 285 487 285 583 q 312 425 285 443 q 391 406 339 406 l 435 406 z "},"ё":{"ha":889,"x_min":41,"x_max":817,"o":"m 584 216 l 743 134 q 601 22 690 63 q 405 -19 513 -19 q 139 76 236 -19 q 41 328 41 171 q 163 632 41 508 q 457 757 285 757 q 642 711 561 757 q 770 579 723 666 q 817 391 817 492 q 810 316 817 359 l 221 316 q 272 194 224 239 q 404 149 319 149 q 584 216 505 149 m 630 449 q 562 552 610 517 q 448 587 515 587 q 328 551 381 587 q 246 449 274 515 l 630 449 m 345 1042 q 405 1018 380 1042 q 429 961 429 994 q 396 881 429 914 q 317 848 363 848 q 256 871 279 848 q 233 932 233 895 q 266 1009 233 976 q 345 1042 300 1042 m 646 1042 q 705 1018 681 1042 q 729 961 729 994 q 696 881 729 914 q 617 848 664 848 q 556 871 579 848 q 533 932 533 895 q 567 1009 533 976 q 646 1042 600 1042 z "},"ђ":{"ha":838,"x_min":31,"x_max":738,"o":"m 305 663 q 524 757 422 757 q 678 699 618 757 q 738 547 738 642 q 720 389 738 515 l 667 0 q 632 -155 655 -87 q 552 -256 610 -223 q 433 -289 494 -289 q 298 -261 374 -289 l 318 -115 q 392 -136 357 -136 q 454 -109 434 -136 q 484 -14 474 -81 l 528 323 q 543 471 543 433 q 437 587 543 587 q 348 553 389 587 q 290 466 308 519 q 256 296 271 414 l 215 0 l 31 0 l 144 831 l 39 831 l 55 949 l 160 949 l 170 1023 l 353 1023 l 344 949 l 580 949 l 564 831 l 328 831 l 305 663 z "},"ѓ":{"ha":546,"x_min":31,"x_max":684,"o":"m 131 738 l 562 738 l 538 562 l 293 562 l 217 0 l 31 0 l 131 738 m 465 1138 l 684 1138 l 399 873 l 266 873 l 465 1138 z "},"є":{"ha":905,"x_min":41,"x_max":832,"o":"m 631 235 l 763 135 q 408 -19 627 -19 q 140 74 239 -19 q 41 312 41 167 q 181 627 41 496 q 514 757 322 757 q 832 589 740 757 l 667 504 q 494 585 605 585 q 256 452 327 585 l 506 452 l 484 292 l 235 292 q 426 150 263 150 q 631 235 550 150 m 229 339 z "},"ѕ":{"ha":611,"x_min":-19,"x_max":536,"o":"m 536 635 l 450 496 q 380 569 416 546 q 311 593 343 593 q 270 579 287 593 q 253 549 253 566 q 267 516 253 532 q 345 453 279 500 q 481 325 448 378 q 514 210 514 272 q 447 54 514 127 q 251 -19 379 -19 q 116 11 177 -19 q -19 120 56 41 l 93 250 q 259 150 169 150 q 316 167 295 150 q 338 208 338 184 q 321 247 338 227 q 233 319 305 267 q 117 421 149 378 q 72 547 72 481 q 142 699 72 640 q 308 757 212 757 q 435 725 375 757 q 536 635 496 693 z "},"і":{"ha":333,"x_min":7,"x_max":332,"o":"m 220 1040 q 299 1007 266 1040 q 332 928 332 974 q 299 849 332 882 q 220 816 266 816 q 141 849 174 816 q 108 928 108 882 q 141 1007 108 974 q 220 1040 174 1040 m 107 738 l 286 738 l 187 0 l 7 0 l 107 738 z "},"ї":{"ha":333,"x_min":-45,"x_max":451,"o":"m 107 738 l 286 738 l 187 0 l 7 0 l 107 738 m 67 1042 q 126 1018 102 1042 q 151 961 151 994 q 118 881 151 914 q 39 848 85 848 q -22 871 1 848 q -45 932 -45 895 q -12 1009 -45 976 q 67 1042 22 1042 m 368 1042 q 427 1018 403 1042 q 451 961 451 994 q 418 881 451 914 q 339 848 386 848 q 278 871 301 848 q 255 932 255 895 q 289 1009 255 976 q 368 1042 322 1042 z "},"ј":{"ha":361,"x_min":-132,"x_max":348,"o":"m 236 1040 q 315 1007 283 1040 q 348 928 348 974 q 315 849 348 882 q 236 816 283 816 q 157 849 190 816 q 124 928 124 882 q 157 1007 124 974 q 236 1040 190 1040 m 121 738 l 301 738 l 213 85 q 162 -162 188 -100 q 88 -257 136 -224 q -21 -289 41 -289 q -132 -262 -68 -289 l -111 -100 q -54 -119 -80 -119 q -8 -94 -24 -119 q 30 61 14 -56 l 121 738 z "},"љ":{"ha":1092,"x_min":-58,"x_max":1014,"o":"m 503 0 l 380 466 l 130 0 l -58 0 l 357 738 l 476 738 l 552 472 l 685 472 q 939 412 865 472 q 1014 241 1014 353 q 954 71 1014 142 q 751 0 895 0 l 503 0 m 597 321 l 645 142 l 677 142 q 789 176 766 142 q 812 243 812 210 q 714 321 812 321 l 597 321 z "},"њ":{"ha":1162,"x_min":31,"x_max":1084,"o":"m 773 738 l 737 472 l 792 472 q 1023 408 961 472 q 1084 250 1084 345 q 1057 125 1084 182 q 988 42 1029 68 q 902 8 948 16 q 749 0 857 0 l 488 0 l 529 306 l 257 306 l 216 0 l 31 0 l 130 738 l 315 738 l 279 472 l 551 472 l 587 738 l 773 738 m 717 321 l 692 142 l 749 142 q 861 168 830 142 q 891 243 891 193 q 793 321 891 321 l 717 321 z "},"ћ":{"ha":833,"x_min":31,"x_max":734,"o":"m 340 949 l 579 949 l 564 831 l 323 831 l 300 663 q 516 757 400 757 q 674 695 614 757 q 734 543 734 633 q 722 414 734 500 l 667 0 l 488 0 l 541 404 q 549 496 549 465 q 520 568 549 546 q 452 590 492 590 q 356 555 403 590 q 288 463 309 519 q 246 261 266 406 l 212 0 l 31 0 l 144 831 l 38 831 l 54 949 l 159 949 l 170 1023 l 349 1023 l 340 949 z "},"ќ":{"ha":802,"x_min":31,"x_max":808,"o":"m 131 738 l 316 738 l 277 446 l 578 738 l 808 738 l 439 385 l 740 0 l 505 0 l 298 268 l 247 224 l 216 0 l 31 0 l 131 738 m 567 1138 l 786 1138 l 500 873 l 368 873 l 567 1138 z "},"ў":{"ha":778,"x_min":28,"x_max":800,"o":"m 31 738 l 208 738 l 352 300 l 604 738 l 800 738 l 220 -270 l 28 -270 l 238 100 l 31 738 m 176 1063 l 326 1063 q 361 1024 338 1036 q 445 1007 395 1007 q 525 1021 491 1007 q 578 1063 558 1035 l 728 1063 q 624 924 702 975 q 427 873 547 873 q 238 925 301 873 q 176 1063 176 978 z "},"џ":{"ha":833,"x_min":31,"x_max":767,"o":"m 448 0 l 431 -130 l 258 -130 l 274 0 l 31 0 l 131 738 l 317 738 l 241 178 l 505 178 l 582 738 l 767 738 l 667 0 l 448 0 z "},"Ґ":{"ha":640,"x_min":45,"x_max":694,"o":"m 180 998 l 493 998 l 515 1143 l 694 1143 l 650 812 l 342 812 l 233 0 l 45 0 l 180 998 z "},"ґ":{"ha":567,"x_min":31,"x_max":591,"o":"m 131 738 l 404 738 l 421 847 l 591 847 l 555 562 l 293 562 l 217 0 l 31 0 l 131 738 z "},"Ẁ":{"ha":1250,"x_min":90,"x_max":1286,"o":"m 90 998 l 260 998 l 317 351 l 623 998 l 764 998 l 883 368 l 1105 998 l 1286 998 l 933 0 l 780 0 l 654 661 l 342 0 l 178 0 l 90 998 m 498 1360 l 717 1360 l 840 1095 l 708 1095 l 498 1360 z "},"ẁ":{"ha":1111,"x_min":35,"x_max":1107,"o":"m 35 738 l 210 738 l 311 342 l 526 738 l 597 738 l 701 342 l 914 738 l 1107 738 l 706 0 l 618 0 l 518 390 l 308 0 l 222 0 l 35 738 m 358 1137 l 576 1137 l 700 871 l 568 871 l 358 1137 z "},"Ẃ":{"ha":1250,"x_min":90,"x_max":1286,"o":"m 90 998 l 260 998 l 317 351 l 623 998 l 764 998 l 883 368 l 1105 998 l 1286 998 l 933 0 l 780 0 l 654 661 l 342 0 l 178 0 l 90 998 m 820 1360 l 1039 1360 l 753 1095 l 621 1095 l 820 1360 z "},"ẃ":{"ha":1111,"x_min":35,"x_max":1107,"o":"m 35 738 l 210 738 l 311 342 l 526 738 l 597 738 l 701 342 l 914 738 l 1107 738 l 706 0 l 618 0 l 518 390 l 308 0 l 222 0 l 35 738 m 696 1137 l 916 1137 l 630 872 l 497 872 l 696 1137 z "},"Ẅ":{"ha":1250,"x_min":90,"x_max":1286,"o":"m 90 998 l 260 998 l 317 351 l 623 998 l 764 998 l 883 368 l 1105 998 l 1286 998 l 933 0 l 780 0 l 654 661 l 342 0 l 178 0 l 90 998 m 587 1265 q 646 1241 622 1265 q 670 1184 670 1217 q 637 1104 670 1137 q 558 1071 605 1071 q 497 1094 520 1071 q 474 1156 474 1118 q 508 1232 474 1199 q 587 1265 541 1265 m 887 1265 q 946 1241 922 1265 q 970 1184 970 1217 q 938 1104 970 1137 q 859 1071 905 1071 q 798 1094 821 1071 q 774 1156 774 1118 q 808 1232 774 1199 q 887 1265 842 1265 z "},"ẅ":{"ha":1111,"x_min":35,"x_max":1107,"o":"m 35 738 l 210 738 l 311 342 l 526 738 l 597 738 l 701 342 l 914 738 l 1107 738 l 706 0 l 618 0 l 518 390 l 308 0 l 222 0 l 35 738 m 454 1034 q 514 1010 490 1034 q 538 953 538 986 q 505 873 538 906 q 426 840 473 840 q 365 863 388 840 q 342 924 342 886 q 375 1001 342 968 q 454 1034 409 1034 m 755 1034 q 814 1010 790 1034 q 838 953 838 986 q 806 873 838 906 q 726 840 773 840 q 665 863 688 840 q 642 924 642 886 q 676 1001 642 968 q 755 1034 709 1034 z "},"Ỳ":{"ha":861,"x_min":45,"x_max":888,"o":"m 45 998 l 234 998 l 390 598 l 673 998 l 888 998 l 463 399 l 409 0 l 222 0 l 277 399 l 45 998 m 227 1360 l 445 1360 l 568 1095 l 436 1095 l 227 1360 z "},"ỳ":{"ha":806,"x_min":28,"x_max":800,"o":"m 31 738 l 208 738 l 352 300 l 604 738 l 800 738 l 220 -270 l 28 -270 l 238 100 l 31 738 m 185 1137 l 404 1137 l 527 871 l 395 871 l 185 1137 z "},"―":{"ha":1042,"x_min":-22,"x_max":1036,"o":"m -22 318 l -22 482 l 1036 482 l 1036 318 l -22 318 z "},"‛":{"ha":389,"x_min":156,"x_max":346,"o":"m 346 1023 l 319 829 l 251 829 q 291 694 254 769 l 218 644 q 167 751 178 710 q 156 850 156 791 q 163 938 156 890 l 176 1023 l 346 1023 z "},"‾":{"ha":778,"x_min":-28,"x_max":806,"o":"m -28 1267 l 806 1267 l 806 1217 l -28 1217 l -28 1267 z "},"₤":{"ha":778,"x_min":-18,"x_max":729,"o":"m 359 638 l 595 638 l 580 521 l 374 521 q 378 454 377 489 l 572 454 l 556 336 l 368 336 q 299 165 353 262 q 376 156 313 165 q 436 152 410 152 q 532 226 504 152 l 713 226 q 606 42 684 109 q 427 -25 529 -25 q 275 -12 379 -25 q 142 0 176 0 q -18 -28 75 0 l 5 142 q 101 165 53 159 q 178 336 166 287 l 32 336 l 47 454 l 191 454 q 186 521 191 491 l 55 521 l 71 638 l 163 638 q 155 723 155 684 q 244 936 155 850 q 482 1023 334 1023 q 666 957 604 1023 q 729 802 729 890 q 723 738 729 774 l 541 738 q 543 774 543 760 q 522 829 543 808 q 460 850 500 850 q 382 816 412 850 q 351 722 351 782 q 359 638 351 692 z "},"№":{"ha":1532,"x_min":47,"x_max":1474,"o":"m 179 998 l 343 998 l 705 319 l 796 998 l 979 998 l 844 0 l 684 0 l 318 686 l 227 0 l 47 0 l 179 998 m 1474 472 q 1399 288 1474 368 q 1211 209 1324 209 q 1055 271 1110 209 q 1000 418 1000 334 q 1079 601 1000 520 q 1268 682 1158 682 q 1416 621 1358 682 q 1474 472 1474 561 m 1350 465 q 1323 538 1350 511 q 1253 566 1296 566 q 1160 525 1197 566 q 1122 429 1122 484 q 1151 353 1122 382 q 1223 325 1180 325 q 1313 369 1276 325 q 1350 465 1350 412 m 973 119 l 1438 119 l 1422 0 l 957 0 l 973 119 z "},"℮":{"ha":833,"x_min":52,"x_max":770,"o":"m 209 360 l 209 109 q 411 26 290 26 q 679 193 583 26 l 728 164 q 571 13 648 49 q 411 -23 494 -23 q 153 84 254 -23 q 52 360 52 192 q 154 637 52 531 q 411 743 255 743 q 659 647 556 743 q 770 360 762 551 l 209 360 m 613 410 l 613 612 q 410 694 529 694 q 209 611 291 694 l 209 410 l 613 410 z "},"⅛":{"ha":1166,"x_min":164,"x_max":1097,"o":"m 175 -25 l 845 1023 l 961 1023 l 291 -25 l 175 -25 m 207 1010 l 396 1010 l 313 497 l 189 497 l 254 905 l 164 905 l 207 1010 m 996 276 q 1084 157 1084 243 q 1022 34 1084 81 q 868 -12 961 -12 q 727 33 779 -12 q 674 135 674 79 q 798 286 674 234 q 736 383 736 319 q 791 484 736 442 q 924 526 845 526 q 1048 487 998 526 q 1097 396 1097 449 q 996 276 1097 316 m 970 380 q 922 421 970 421 q 877 407 894 421 q 860 373 860 393 q 909 330 860 330 q 952 345 935 330 q 970 380 970 359 m 961 162 q 942 209 961 188 q 888 230 924 230 q 825 206 849 230 q 800 152 800 182 q 821 109 800 125 q 875 92 841 92 q 938 112 914 92 q 961 162 961 133 z "},"⅜":{"ha":1166,"x_min":62,"x_max":1098,"o":"m 243 872 l 125 872 q 185 984 133 945 q 308 1023 237 1023 q 426 981 382 1023 q 469 889 469 939 q 389 772 469 823 q 458 658 458 725 q 395 535 458 585 q 248 485 332 485 q 137 515 182 485 q 77 582 92 545 q 62 667 62 618 l 181 667 q 256 589 183 589 q 313 612 292 589 q 334 663 334 634 q 223 728 334 728 l 239 823 q 342 882 342 823 q 296 918 342 918 q 243 872 251 918 m 201 -25 l 871 1023 l 987 1023 l 317 -25 l 201 -25 m 996 276 q 1084 157 1084 243 q 1022 34 1084 81 q 868 -12 961 -12 q 727 33 779 -12 q 674 135 674 79 q 798 286 674 234 q 736 383 736 319 q 791 484 736 442 q 924 526 845 526 q 1048 487 998 526 q 1098 396 1098 449 q 996 276 1098 316 m 970 380 q 922 421 970 421 q 877 407 894 421 q 860 373 860 393 q 909 330 860 330 q 953 345 935 330 q 970 380 970 359 m 961 162 q 942 209 961 188 q 888 230 924 230 q 825 206 850 230 q 800 152 800 182 q 821 109 800 125 q 876 92 841 92 q 938 112 914 92 q 961 162 961 133 z "},"⅝":{"ha":1166,"x_min":47,"x_max":1098,"o":"m 201 -25 l 871 1023 l 987 1023 l 317 -25 l 201 -25 m 199 1010 l 496 1010 l 479 907 l 287 907 l 261 836 q 302 841 281 841 q 416 802 372 841 q 459 689 459 762 q 399 543 459 602 q 245 485 340 485 q 47 597 109 485 l 157 640 q 250 589 199 589 q 310 613 288 589 q 332 673 332 637 q 315 718 332 700 q 273 736 299 736 q 217 705 238 736 l 106 735 l 199 1010 m 997 276 q 1084 157 1084 243 q 1023 34 1084 81 q 868 -12 962 -12 q 727 33 779 -12 q 675 135 675 79 q 798 286 675 234 q 736 383 736 319 q 791 484 736 442 q 924 526 845 526 q 1048 487 998 526 q 1098 396 1098 449 q 997 276 1098 316 m 970 380 q 922 421 970 421 q 877 407 894 421 q 860 373 860 393 q 909 330 860 330 q 953 345 935 330 q 970 380 970 359 m 962 162 q 943 209 962 188 q 889 230 924 230 q 825 206 850 230 q 800 152 800 182 q 821 109 800 125 q 876 92 841 92 q 938 112 914 92 q 962 162 962 133 z "}}}
